<svg width="61" height="17" viewBox="0 0 61 17" fill="none" xmlns="http://www.w3.org/2000/svg">
<rect width="61" height="17" rx="8.5" fill="#7674F2"/>
<path d="M11.573 12.09C11.111 12.09 10.685 12.012 10.295 11.856C9.911 11.694 9.575 11.469 9.287 11.181C9.005 10.887 8.786 10.542 8.63 10.146C8.48 9.75 8.405 9.315 8.405 8.841C8.405 8.379 8.486 7.953 8.648 7.563C8.81 7.167 9.038 6.822 9.332 6.528C9.626 6.234 9.968 6.006 10.358 5.844C10.754 5.682 11.183 5.601 11.645 5.601C11.945 5.601 12.239 5.643 12.527 5.727C12.821 5.805 13.088 5.925 13.328 6.087C13.574 6.243 13.784 6.426 13.958 6.636L13.112 7.581C12.902 7.353 12.674 7.179 12.428 7.059C12.182 6.939 11.918 6.879 11.636 6.879C11.378 6.879 11.135 6.927 10.907 7.023C10.685 7.113 10.49 7.245 10.322 7.419C10.154 7.593 10.022 7.8 9.926 8.04C9.83 8.28 9.782 8.547 9.782 8.841C9.782 9.141 9.827 9.414 9.917 9.66C10.013 9.9 10.148 10.107 10.322 10.281C10.496 10.449 10.703 10.581 10.943 10.677C11.189 10.767 11.459 10.812 11.753 10.812C11.945 10.812 12.128 10.785 12.302 10.731C12.482 10.677 12.65 10.602 12.806 10.506C12.962 10.41 13.1 10.299 13.22 10.173L13.877 11.226C13.739 11.388 13.547 11.535 13.301 11.667C13.055 11.799 12.782 11.904 12.482 11.982C12.182 12.054 11.879 12.09 11.573 12.09ZM14.8443 12V5.34H16.1223V12H14.8443ZM19.0045 12.09C18.6625 12.09 18.3655 12.015 18.1135 11.865C17.8615 11.709 17.6665 11.49 17.5285 11.208C17.3965 10.92 17.3305 10.578 17.3305 10.182V7.239H18.6085V9.948C18.6085 10.284 18.6865 10.548 18.8425 10.74C19.0045 10.926 19.2265 11.019 19.5085 11.019C19.6525 11.019 19.7815 10.998 19.8955 10.956C20.0155 10.908 20.1175 10.842 20.2015 10.758C20.2855 10.674 20.3515 10.575 20.3995 10.461C20.4475 10.347 20.4715 10.221 20.4715 10.083V7.239H21.7495V12H20.5345L20.4985 11.019L20.7235 10.911C20.6575 11.133 20.5375 11.334 20.3635 11.514C20.1955 11.694 19.9945 11.835 19.7605 11.937C19.5265 12.039 19.2745 12.09 19.0045 12.09ZM25.7805 12.09C25.5705 12.09 25.3665 12.06 25.1685 12C24.9705 11.934 24.7905 11.85 24.6285 11.748C24.4665 11.646 24.3315 11.529 24.2235 11.397C24.1155 11.265 24.0465 11.127 24.0165 10.983L24.3045 10.866L24.2505 11.982H23.0355V5.34H24.3225V8.346L24.0705 8.247C24.1065 8.103 24.1755 7.965 24.2775 7.833C24.3795 7.701 24.5085 7.584 24.6645 7.482C24.8205 7.374 24.9915 7.29 25.1775 7.23C25.3635 7.17 25.5525 7.14 25.7445 7.14C26.1645 7.14 26.5365 7.248 26.8605 7.464C27.1845 7.674 27.4395 7.968 27.6255 8.346C27.8175 8.718 27.9135 9.141 27.9135 9.615C27.9135 10.095 27.8205 10.521 27.6345 10.893C27.4485 11.265 27.1935 11.559 26.8695 11.775C26.5515 11.985 26.1885 12.09 25.7805 12.09ZM25.4745 11.001C25.7145 11.001 25.9215 10.944 26.0955 10.83C26.2755 10.71 26.4165 10.548 26.5185 10.344C26.6205 10.134 26.6715 9.891 26.6715 9.615C26.6715 9.345 26.6205 9.108 26.5185 8.904C26.4225 8.694 26.2845 8.532 26.1045 8.418C25.9245 8.298 25.7145 8.238 25.4745 8.238C25.2405 8.238 25.0335 8.298 24.8535 8.418C24.6735 8.532 24.5325 8.694 24.4305 8.904C24.3285 9.108 24.2775 9.345 24.2775 9.615C24.2775 9.891 24.3285 10.134 24.4305 10.344C24.5325 10.548 24.6735 10.71 24.8535 10.83C25.0335 10.944 25.2405 11.001 25.4745 11.001ZM28.7092 10.011V8.823H31.6432V10.011H28.7092ZM35.7086 12.09C35.2466 12.09 34.8176 12.009 34.4216 11.847C34.0316 11.685 33.6926 11.46 33.4046 11.172C33.1226 10.878 32.9006 10.533 32.7386 10.137C32.5826 9.741 32.5046 9.306 32.5046 8.832C32.5046 8.364 32.5826 7.932 32.7386 7.536C32.9006 7.14 33.1226 6.795 33.4046 6.501C33.6926 6.207 34.0316 5.979 34.4216 5.817C34.8176 5.655 35.2466 5.574 35.7086 5.574C36.1706 5.574 36.5936 5.655 36.9776 5.817C37.3676 5.979 37.7066 6.207 37.9946 6.501C38.2826 6.795 38.5046 7.143 38.6606 7.545C38.8226 7.941 38.9036 8.37 38.9036 8.832C38.9036 9.3 38.8226 9.732 38.6606 10.128C38.5046 10.524 38.2826 10.869 37.9946 11.163C37.7066 11.457 37.3676 11.685 36.9776 11.847C36.5936 12.009 36.1706 12.09 35.7086 12.09ZM35.7086 10.812C35.9726 10.812 36.2156 10.764 36.4376 10.668C36.6596 10.566 36.8516 10.428 37.0136 10.254C37.1816 10.074 37.3106 9.864 37.4006 9.624C37.4906 9.384 37.5356 9.12 37.5356 8.832C37.5356 8.55 37.4906 8.289 37.4006 8.049C37.3106 7.809 37.1816 7.599 37.0136 7.419C36.8516 7.239 36.6596 7.101 36.4376 7.005C36.2156 6.903 35.9726 6.852 35.7086 6.852C35.4446 6.852 35.1986 6.903 34.9706 7.005C34.7486 7.101 34.5536 7.239 34.3856 7.419C34.2236 7.593 34.0976 7.803 34.0076 8.049C33.9176 8.289 33.8726 8.553 33.8726 8.841C33.8726 9.219 33.9506 9.558 34.1066 9.858C34.2686 10.152 34.4846 10.386 34.7546 10.56C35.0306 10.728 35.3486 10.812 35.7086 10.812ZM39.9456 12V7.239H41.1786L41.2146 8.211L40.9626 8.319C41.0226 8.103 41.1396 7.908 41.3136 7.734C41.4876 7.554 41.6946 7.41 41.9346 7.302C42.1746 7.194 42.4236 7.14 42.6816 7.14C43.0416 7.14 43.3416 7.212 43.5816 7.356C43.8276 7.5 44.0106 7.719 44.1306 8.013C44.2566 8.301 44.3196 8.661 44.3196 9.093V12H43.0416V9.183C43.0416 8.967 43.0116 8.787 42.9516 8.643C42.8916 8.499 42.8016 8.394 42.6816 8.328C42.5616 8.262 42.4086 8.232 42.2226 8.238C42.0786 8.238 41.9466 8.262 41.8266 8.31C41.7066 8.352 41.5986 8.415 41.5026 8.499C41.4126 8.583 41.3436 8.679 41.2956 8.787C41.2476 8.895 41.2236 9.015 41.2236 9.147V12H40.5846C40.4526 12 40.3326 12 40.2246 12C40.1166 12 40.0236 12 39.9456 12ZM45.5533 12V5.34H46.8313V12H45.5533ZM48.6626 14.07L49.7066 11.631L49.7246 12.378L47.3936 7.239H48.8426L50.0126 10.002C50.0546 10.098 50.0996 10.215 50.1476 10.353C50.1956 10.491 50.2316 10.623 50.2556 10.749L50.0396 10.839C50.0816 10.737 50.1236 10.62 50.1656 10.488C50.2136 10.356 50.2616 10.215 50.3096 10.065L51.3086 7.239H52.7756L50.7776 12L49.9586 14.07H48.6626Z" fill="white"/>
</svg>
