<svg width="25" height="24" viewBox="0 0 25 24" fill="none" xmlns="http://www.w3.org/2000/svg">
<path d="M19.693 3.17182C20.9427 3.90927 21.3711 5.54236 20.6495 6.81939L13.6278 19.2459C13.3412 19.753 12.915 20.1248 12.4286 20.3461C12.2428 21.1842 11.6709 21.8903 10.8779 22.2246L7.14378 23.7986L7.00183 23.8533C6.28807 24.1058 5.4987 24.0304 4.84027 23.6421C4.13803 23.2278 3.66378 22.5038 3.55664 21.6825L3.02293 17.5908C2.90111 16.656 3.27085 15.731 3.9846 15.1501C3.97494 14.6792 4.08453 14.1998 4.33179 13.7621L11.3535 1.33555C12.0751 0.0584091 13.6734 -0.379172 14.9234 0.358186L19.693 3.17182ZM5.66555 17.6322L6.14695 21.3296L9.52232 19.9073L5.66555 17.6322ZM16.218 9.3199L11.4491 6.5067L6.74517 14.8314C6.80438 14.8605 6.86316 14.892 6.92065 14.9259L11.1885 17.4436C11.3 17.5094 11.4055 17.5829 11.5045 17.6631L16.2191 9.31958L16.218 9.3199ZM12.7558 4.19424L17.5254 7.00786L18.3863 5.48428L13.6167 2.67066L12.7558 4.19424Z" fill="white"/>
</svg>
