<svg width="370" height="60" viewBox="0 0 370 60" fill="none" xmlns="http://www.w3.org/2000/svg">
<g clip-path="url(#clip0_76_4642)">
<path d="M0 10C0 4.47715 4.47715 0 10 0H360C365.523 0 370 4.47715 370 10V49.5294C370 55.0523 365.523 59.5294 360 59.5294H9.99999C4.47715 59.5294 0 55.0523 0 49.5294V10Z" fill="#11112B"/>
<path d="M31.049 18.1913C31.3483 17.27 32.6517 17.27 32.951 18.1913L35.0312 24.5926C35.1651 25.0046 35.549 25.2835 35.9822 25.2835L42.713 25.2838C43.6817 25.2838 44.0845 26.5234 43.3008 27.0928L37.8556 31.0493C37.5052 31.3039 37.3585 31.7552 37.4924 32.1672L39.5721 38.5687C39.8714 39.49 38.8169 40.2561 38.0332 39.6867L32.5878 35.7306C32.2373 35.476 31.7627 35.476 31.4122 35.7306L25.9668 39.6867C25.1831 40.2561 24.1286 39.49 24.4279 38.5687L26.5076 32.1672C26.6415 31.7552 26.4948 31.3039 26.1444 31.0493L20.6992 27.0928C19.9155 26.5234 20.3183 25.2838 21.287 25.2838L28.0178 25.2835C28.451 25.2835 28.8349 25.0046 28.9688 24.5926L31.049 18.1913Z" fill="#FFAA2A"/>
<path d="M63.024 35.9246C62.1067 35.9246 61.296 35.7433 60.592 35.3806C59.8987 35.018 59.3013 34.474 58.8 33.7486L59.984 32.3886C60.5067 33.1353 61.008 33.6526 61.488 33.9406C61.968 34.2286 62.5387 34.3726 63.2 34.3726C63.6053 34.3726 63.9733 34.3086 64.304 34.1806C64.6347 34.0526 64.896 33.8766 65.088 33.6526C65.28 33.4286 65.376 33.1726 65.376 32.8846C65.376 32.6926 65.344 32.5113 65.28 32.3406C65.216 32.17 65.1147 32.0153 64.976 31.8766C64.848 31.738 64.6773 31.61 64.464 31.4926C64.2613 31.3753 64.0213 31.274 63.744 31.1886C63.4667 31.0926 63.1467 31.0126 62.784 30.9486C62.208 30.8313 61.7067 30.6766 61.28 30.4846C60.8533 30.2926 60.496 30.0526 60.208 29.7646C59.92 29.4766 59.7067 29.1513 59.568 28.7886C59.4293 28.4153 59.36 27.9993 59.36 27.5406C59.36 26.9326 59.5307 26.394 59.872 25.9246C60.2133 25.4553 60.672 25.0873 61.248 24.8206C61.8347 24.5433 62.4907 24.4046 63.216 24.4046C64.08 24.4046 64.832 24.5753 65.472 24.9166C66.1227 25.2473 66.6347 25.7326 67.008 26.3726L65.792 27.5726C65.472 27.05 65.088 26.65 64.64 26.3726C64.2027 26.0953 63.712 25.9566 63.168 25.9566C62.752 25.9566 62.3893 26.0206 62.08 26.1486C61.7707 26.2766 61.5253 26.458 61.344 26.6926C61.1733 26.9166 61.088 27.1833 61.088 27.4926C61.088 27.7166 61.1307 27.9246 61.216 28.1166C61.3013 28.298 61.4293 28.4633 61.6 28.6126C61.7813 28.7513 62.0213 28.8793 62.32 28.9966C62.6187 29.1033 62.976 29.1993 63.392 29.2846C63.9787 29.4126 64.5013 29.578 64.96 29.7806C65.4187 29.9726 65.808 30.202 66.128 30.4686C66.448 30.7353 66.688 31.034 66.848 31.3646C67.0187 31.6953 67.104 32.0526 67.104 32.4366C67.104 33.1513 66.9387 33.77 66.608 34.2926C66.2773 34.8153 65.808 35.2206 65.2 35.5086C64.592 35.786 63.8667 35.9246 63.024 35.9246ZM70.1764 35.7646V25.2206H71.8244V35.7646H70.1764ZM68.4324 28.9646V27.3646H73.7764V28.9646H68.4324ZM80.1749 35.7646V30.2926C80.1749 29.8233 80.0042 29.4446 79.6629 29.1566C79.3322 28.858 78.9109 28.7086 78.3989 28.7086C77.9295 28.7086 77.5029 28.8046 77.1189 28.9966C76.7455 29.1886 76.4042 29.482 76.0949 29.8766L75.0229 28.8046C75.5242 28.2606 76.0629 27.8553 76.6389 27.5886C77.2255 27.322 77.8549 27.1886 78.5269 27.1886C79.1669 27.1886 79.7215 27.2953 80.1909 27.5086C80.6602 27.722 81.0229 28.0366 81.2789 28.4526C81.5349 28.858 81.6629 29.354 81.6629 29.9406V35.7646H80.1749ZM77.6629 35.9246C77.1189 35.9246 76.6335 35.818 76.2069 35.6046C75.7802 35.3913 75.4389 35.098 75.1829 34.7246C74.9375 34.3406 74.8149 33.8926 74.8149 33.3806C74.8149 32.9326 74.8949 32.538 75.0549 32.1966C75.2149 31.8553 75.4495 31.5726 75.7589 31.3486C76.0789 31.1246 76.4735 30.954 76.9429 30.8366C77.4229 30.7193 77.9722 30.6606 78.5909 30.6606H80.9269L80.7829 31.9726H78.3829C78.0629 31.9726 77.7749 32.0046 77.5189 32.0686C77.2735 32.122 77.0602 32.2126 76.8789 32.3406C76.7082 32.458 76.5802 32.602 76.4949 32.7726C76.4095 32.9326 76.3669 33.1246 76.3669 33.3486C76.3669 33.5833 76.4255 33.7913 76.5429 33.9726C76.6602 34.1433 76.8202 34.2766 77.0229 34.3726C77.2255 34.4686 77.4602 34.5166 77.7269 34.5166C78.1109 34.5166 78.4735 34.4526 78.8149 34.3246C79.1669 34.186 79.4762 33.9993 79.7429 33.7646C80.0202 33.53 80.2335 33.2686 80.3829 32.9806L80.7669 34.0526C80.5429 34.426 80.2655 34.7513 79.9349 35.0286C79.6042 35.306 79.2469 35.5246 78.8629 35.6846C78.4789 35.8446 78.0789 35.9246 77.6629 35.9246ZM83.7458 35.7646V27.3646H85.4098V30.0046L85.2498 29.3646C85.3671 28.9593 85.5644 28.5913 85.8418 28.2606C86.1298 27.93 86.4551 27.6686 86.8177 27.4766C87.1911 27.2846 87.5751 27.1886 87.9698 27.1886C88.1511 27.1886 88.3218 27.2046 88.4818 27.2366C88.6524 27.2686 88.7858 27.306 88.8818 27.3486L88.4498 29.1406C88.3218 29.0873 88.1778 29.0446 88.0178 29.0126C87.8684 28.97 87.7191 28.9486 87.5698 28.9486C87.2818 28.9486 87.0044 29.0073 86.7378 29.1246C86.4818 29.2313 86.2524 29.386 86.0498 29.5886C85.8578 29.7806 85.7031 30.01 85.5858 30.2766C85.4684 30.5326 85.4098 30.8153 85.4098 31.1246V35.7646H83.7458ZM92.9989 35.9246C92.2949 35.9246 91.6602 35.802 91.0949 35.5566C90.5295 35.3113 90.0602 34.9486 89.6869 34.4686L90.8069 33.5086C91.1269 33.882 91.4735 34.154 91.8469 34.3246C92.2309 34.4846 92.6629 34.5646 93.1429 34.5646C93.3349 34.5646 93.5109 34.5433 93.6709 34.5006C93.8415 34.4473 93.9855 34.3726 94.1029 34.2766C94.2309 34.1806 94.3269 34.0686 94.3909 33.9406C94.4549 33.802 94.4869 33.6526 94.4869 33.4926C94.4869 33.2153 94.3855 32.9913 94.1829 32.8206C94.0762 32.746 93.9055 32.666 93.6709 32.5806C93.4469 32.4846 93.1535 32.3886 92.7909 32.2926C92.1722 32.1326 91.6655 31.9513 91.2709 31.7486C90.8762 31.546 90.5722 31.3166 90.3589 31.0606C90.1989 30.858 90.0815 30.6393 90.0069 30.4046C89.9322 30.1593 89.8949 29.8926 89.8949 29.6046C89.8949 29.1353 90.0282 28.7193 90.2949 28.3566C90.5615 27.994 90.9189 27.7113 91.3669 27.5086C91.8255 27.2953 92.3375 27.1886 92.9029 27.1886C93.2975 27.1886 93.6869 27.242 94.0709 27.3486C94.4655 27.4553 94.8282 27.61 95.1589 27.8126C95.4895 28.0153 95.7669 28.2553 95.9909 28.5326L95.0469 29.5726C94.8442 29.37 94.6202 29.194 94.3749 29.0446C94.1402 28.8846 93.9002 28.762 93.6549 28.6766C93.4095 28.5913 93.1855 28.5486 92.9829 28.5486C92.7589 28.5486 92.5562 28.57 92.3749 28.6126C92.1935 28.6553 92.0389 28.7193 91.9109 28.8046C91.7935 28.89 91.7029 28.9966 91.6389 29.1246C91.5749 29.2526 91.5429 29.3966 91.5429 29.5566C91.5535 29.6953 91.5855 29.8286 91.6389 29.9566C91.7029 30.074 91.7882 30.1753 91.8949 30.2606C92.0122 30.346 92.1882 30.4366 92.4229 30.5326C92.6575 30.6286 92.9562 30.7193 93.3189 30.8046C93.8522 30.9433 94.2895 31.098 94.6309 31.2686C94.9829 31.4286 95.2602 31.6153 95.4629 31.8286C95.6762 32.0313 95.8255 32.266 95.9109 32.5326C95.9962 32.7993 96.0389 33.098 96.0389 33.4286C96.0389 33.9086 95.9002 34.3406 95.6229 34.7246C95.3562 35.098 94.9935 35.3913 94.5349 35.6046C94.0762 35.818 93.5642 35.9246 92.9989 35.9246Z" fill="white"/>
<rect x="107" y="21.2646" width="61" height="17" rx="8.5" fill="#7674F2"/>
<path d="M118.573 33.3546C118.111 33.3546 117.685 33.2766 117.295 33.1206C116.911 32.9586 116.575 32.7336 116.287 32.4456C116.005 32.1516 115.786 31.8066 115.63 31.4106C115.48 31.0146 115.405 30.5796 115.405 30.1056C115.405 29.6436 115.486 29.2176 115.648 28.8276C115.81 28.4316 116.038 28.0866 116.332 27.7926C116.626 27.4986 116.968 27.2706 117.358 27.1086C117.754 26.9466 118.183 26.8656 118.645 26.8656C118.945 26.8656 119.239 26.9076 119.527 26.9916C119.821 27.0696 120.088 27.1896 120.328 27.3516C120.574 27.5076 120.784 27.6906 120.958 27.9006L120.112 28.8456C119.902 28.6176 119.674 28.4436 119.428 28.3236C119.182 28.2036 118.918 28.1436 118.636 28.1436C118.378 28.1436 118.135 28.1916 117.907 28.2876C117.685 28.3776 117.49 28.5096 117.322 28.6836C117.154 28.8576 117.022 29.0646 116.926 29.3046C116.83 29.5446 116.782 29.8116 116.782 30.1056C116.782 30.4056 116.827 30.6786 116.917 30.9246C117.013 31.1646 117.148 31.3716 117.322 31.5456C117.496 31.7136 117.703 31.8456 117.943 31.9416C118.189 32.0316 118.459 32.0766 118.753 32.0766C118.945 32.0766 119.128 32.0496 119.302 31.9956C119.482 31.9416 119.65 31.8666 119.806 31.7706C119.962 31.6746 120.1 31.5636 120.22 31.4376L120.877 32.4906C120.739 32.6526 120.547 32.7996 120.301 32.9316C120.055 33.0636 119.782 33.1686 119.482 33.2466C119.182 33.3186 118.879 33.3546 118.573 33.3546ZM121.844 33.2646V26.6046H123.122V33.2646H121.844ZM126.005 33.3546C125.663 33.3546 125.366 33.2796 125.114 33.1296C124.862 32.9736 124.667 32.7546 124.529 32.4726C124.397 32.1846 124.331 31.8426 124.331 31.4466V28.5036H125.609V31.2126C125.609 31.5486 125.687 31.8126 125.843 32.0046C126.005 32.1906 126.227 32.2836 126.509 32.2836C126.653 32.2836 126.782 32.2626 126.896 32.2206C127.016 32.1726 127.118 32.1066 127.202 32.0226C127.286 31.9386 127.352 31.8396 127.4 31.7256C127.448 31.6116 127.472 31.4856 127.472 31.3476V28.5036H128.75V33.2646H127.535L127.499 32.2836L127.724 32.1756C127.658 32.3976 127.538 32.5986 127.364 32.7786C127.196 32.9586 126.995 33.0996 126.761 33.2016C126.527 33.3036 126.275 33.3546 126.005 33.3546ZM132.78 33.3546C132.57 33.3546 132.366 33.3246 132.168 33.2646C131.97 33.1986 131.79 33.1146 131.628 33.0126C131.466 32.9106 131.331 32.7936 131.223 32.6616C131.115 32.5296 131.046 32.3916 131.016 32.2476L131.304 32.1306L131.25 33.2466H130.035V26.6046H131.322V29.6106L131.07 29.5116C131.106 29.3676 131.175 29.2296 131.277 29.0976C131.379 28.9656 131.508 28.8486 131.664 28.7466C131.82 28.6386 131.991 28.5546 132.177 28.4946C132.363 28.4346 132.552 28.4046 132.744 28.4046C133.164 28.4046 133.536 28.5126 133.86 28.7286C134.184 28.9386 134.439 29.2326 134.625 29.6106C134.817 29.9826 134.913 30.4056 134.913 30.8796C134.913 31.3596 134.82 31.7856 134.634 32.1576C134.448 32.5296 134.193 32.8236 133.869 33.0396C133.551 33.2496 133.188 33.3546 132.78 33.3546ZM132.474 32.2656C132.714 32.2656 132.921 32.2086 133.095 32.0946C133.275 31.9746 133.416 31.8126 133.518 31.6086C133.62 31.3986 133.671 31.1556 133.671 30.8796C133.671 30.6096 133.62 30.3726 133.518 30.1686C133.422 29.9586 133.284 29.7966 133.104 29.6826C132.924 29.5626 132.714 29.5026 132.474 29.5026C132.24 29.5026 132.033 29.5626 131.853 29.6826C131.673 29.7966 131.532 29.9586 131.43 30.1686C131.328 30.3726 131.277 30.6096 131.277 30.8796C131.277 31.1556 131.328 31.3986 131.43 31.6086C131.532 31.8126 131.673 31.9746 131.853 32.0946C132.033 32.2086 132.24 32.2656 132.474 32.2656ZM135.709 31.2756V30.0876H138.643V31.2756H135.709ZM142.709 33.3546C142.247 33.3546 141.818 33.2736 141.422 33.1116C141.032 32.9496 140.693 32.7246 140.405 32.4366C140.123 32.1426 139.901 31.7976 139.739 31.4016C139.583 31.0056 139.505 30.5706 139.505 30.0966C139.505 29.6286 139.583 29.1966 139.739 28.8006C139.901 28.4046 140.123 28.0596 140.405 27.7656C140.693 27.4716 141.032 27.2436 141.422 27.0816C141.818 26.9196 142.247 26.8386 142.709 26.8386C143.171 26.8386 143.594 26.9196 143.978 27.0816C144.368 27.2436 144.707 27.4716 144.995 27.7656C145.283 28.0596 145.505 28.4076 145.661 28.8096C145.823 29.2056 145.904 29.6346 145.904 30.0966C145.904 30.5646 145.823 30.9966 145.661 31.3926C145.505 31.7886 145.283 32.1336 144.995 32.4276C144.707 32.7216 144.368 32.9496 143.978 33.1116C143.594 33.2736 143.171 33.3546 142.709 33.3546ZM142.709 32.0766C142.973 32.0766 143.216 32.0286 143.438 31.9326C143.66 31.8306 143.852 31.6926 144.014 31.5186C144.182 31.3386 144.311 31.1286 144.401 30.8886C144.491 30.6486 144.536 30.3846 144.536 30.0966C144.536 29.8146 144.491 29.5536 144.401 29.3136C144.311 29.0736 144.182 28.8636 144.014 28.6836C143.852 28.5036 143.66 28.3656 143.438 28.2696C143.216 28.1676 142.973 28.1166 142.709 28.1166C142.445 28.1166 142.199 28.1676 141.971 28.2696C141.749 28.3656 141.554 28.5036 141.386 28.6836C141.224 28.8576 141.098 29.0676 141.008 29.3136C140.918 29.5536 140.873 29.8176 140.873 30.1056C140.873 30.4836 140.951 30.8226 141.107 31.1226C141.269 31.4166 141.485 31.6506 141.755 31.8246C142.031 31.9926 142.349 32.0766 142.709 32.0766ZM146.946 33.2646V28.5036H148.179L148.215 29.4756L147.963 29.5836C148.023 29.3676 148.14 29.1726 148.314 28.9986C148.488 28.8186 148.695 28.6746 148.935 28.5666C149.175 28.4586 149.424 28.4046 149.682 28.4046C150.042 28.4046 150.342 28.4766 150.582 28.6206C150.828 28.7646 151.011 28.9836 151.131 29.2776C151.257 29.5656 151.32 29.9256 151.32 30.3576V33.2646H150.042V30.4476C150.042 30.2316 150.012 30.0516 149.952 29.9076C149.892 29.7636 149.802 29.6586 149.682 29.5926C149.562 29.5266 149.409 29.4966 149.223 29.5026C149.079 29.5026 148.947 29.5266 148.827 29.5746C148.707 29.6166 148.599 29.6796 148.503 29.7636C148.413 29.8476 148.344 29.9436 148.296 30.0516C148.248 30.1596 148.224 30.2796 148.224 30.4116V33.2646H147.585C147.453 33.2646 147.333 33.2646 147.225 33.2646C147.117 33.2646 147.024 33.2646 146.946 33.2646ZM152.553 33.2646V26.6046H153.831V33.2646H152.553ZM155.663 35.3346L156.707 32.8956L156.725 33.6426L154.394 28.5036H155.843L157.013 31.2666C157.055 31.3626 157.1 31.4796 157.148 31.6176C157.196 31.7556 157.232 31.8876 157.256 32.0136L157.04 32.1036C157.082 32.0016 157.124 31.8846 157.166 31.7526C157.214 31.6206 157.262 31.4796 157.31 31.3296L158.309 28.5036H159.776L157.778 33.2646L156.959 35.3346H155.663Z" fill="white"/>
<rect x="274" y="18.7646" width="39" height="22" rx="11" fill="#FFAA2A"/>
<rect x="277" y="21.7646" width="16" height="16" rx="8" fill="white"/>
<path d="M339.609 24.8045C339.765 24.7482 339.895 24.7647 339.955 24.7759C340.023 24.7888 340.076 24.8105 340.107 24.824C340.168 24.8509 340.214 24.8811 340.234 24.8951C340.361 24.9816 340.463 25.1048 340.537 25.2485C340.57 25.2911 340.615 25.3494 340.675 25.4221C340.875 25.6672 341.179 26.0275 341.533 26.4412C342.238 27.2662 343.121 28.2821 343.72 28.9666C343.896 29.1678 343.998 29.456 344 29.7592C344.002 30.0623 343.904 30.3525 343.731 30.5573L340.407 34.4831C340.069 34.8827 339.543 34.8534 339.233 34.4176C338.923 33.9817 338.946 33.3046 339.284 32.905L341.93 29.7787C341.438 29.2129 340.887 28.5784 340.416 28.0263C340.061 27.611 339.745 27.2371 339.531 26.9744C339.427 26.8475 339.333 26.7298 339.269 26.6426C339.262 26.6322 339.175 26.5187 339.113 26.3799C339.102 26.355 339.029 26.1989 339.007 25.977C338.995 25.8553 338.986 25.6068 339.095 25.3392C339.219 25.0346 339.427 24.8701 339.609 24.8045ZM339.457 26.7876C339.466 26.7935 339.484 26.8051 339.511 26.8197C339.493 26.8095 339.475 26.7996 339.457 26.7876Z" fill="white"/>
</g>
<defs>
<clipPath id="clip0_76_4642">
<path d="M0 10C0 4.47715 4.47715 0 10 0H360C365.523 0 370 4.47715 370 10V49.5294C370 55.0523 365.523 59.5294 360 59.5294H9.99999C4.47715 59.5294 0 55.0523 0 49.5294V10Z" fill="white"/>
</clipPath>
</defs>
</svg>
