<svg width="37" height="42" viewBox="0 0 37 42" fill="none" xmlns="http://www.w3.org/2000/svg">
<path d="M25.24 23C25.24 17.919 21.121 13.8 16.04 13.8C10.959 13.8 6.84 17.919 6.84 23C6.84 28.081 10.959 32.2 16.04 32.2C21.121 32.2 25.24 28.081 25.24 23ZM28.92 23C28.92 30.1134 23.1534 35.88 16.04 35.88C8.92657 35.88 3.16 30.1134 3.16 23C3.16 15.8866 8.92657 10.12 16.04 10.12C23.1534 10.12 28.92 15.8866 28.92 23Z" fill="#FFAA2A"/>
<path d="M14.1582 16.9782C14.1582 16.216 14.7761 15.5982 15.5382 15.5982C16.3004 15.5982 16.9182 16.216 16.9182 16.9782V21.2682L18.9352 20.2602C19.6169 19.9194 20.446 20.1958 20.7869 20.8774C21.1277 21.5591 20.8513 22.3883 20.1696 22.7291L16.1554 24.7362C15.7276 24.9501 15.2191 24.9275 14.8123 24.676C14.4055 24.4245 14.1582 23.98 14.1582 23.5018V16.9782Z" fill="#FFAA2A"/>
<path d="M27.6565 12.74L27.6827 0H31.4759L31.4497 12.74H27.6565ZM23 8.08349V4.68267H36.1324V8.08349H23Z" fill="#3F3AD6"/>
<path d="M27.6565 12.74L27.6827 0H31.4759L31.4497 12.74H27.6565ZM23 8.08349V4.68267H36.1324V8.08349H23Z" fill="url(#paint0_linear_65_2715)" fill-opacity="0.7" style="mix-blend-mode:screen"/>
<defs>
<linearGradient id="paint0_linear_65_2715" x1="36.1586" y1="2.66839" x2="27.1336" y2="9.964" gradientUnits="userSpaceOnUse">
<stop/>
<stop offset="1" stop-color="#FFF0DA"/>
</linearGradient>
</defs>
</svg>
