<svg width="26" height="20" viewBox="0 0 26 20" fill="none" xmlns="http://www.w3.org/2000/svg">
<path d="M2.6 0L5.2 5H9.1L6.5 0H9.1L11.7 5H15.6L13 0H15.6L18.2 5H22.1L19.5 0H23.4C24.115 0 24.7271 0.244792 25.2362 0.734375C25.7454 1.22396 26 1.8125 26 2.5V17.5C26 18.1875 25.7454 18.776 25.2362 19.2656C24.7271 19.7552 24.115 20 23.4 20H2.6C1.885 20 1.27292 19.7552 0.76375 19.2656C0.254583 18.776 0 18.1875 0 17.5V2.5C0 1.8125 0.254583 1.22396 0.76375 0.734375C1.27292 0.244792 1.885 0 2.6 0ZM2.6 7.5V17.5H23.4V7.5H2.6Z" fill="white"/>
</svg>
