<svg width="45" height="45" viewBox="0 0 45 45" fill="none" xmlns="http://www.w3.org/2000/svg">
<rect width="45" height="45" rx="22.5" fill="#FFAA2A"/>
<path d="M17.6189 30V16H23.6789C24.5589 16 25.3456 16.2 26.0389 16.6C26.7322 17 27.2789 17.5467 27.6789 18.24C28.0789 18.92 28.2789 19.7 28.2789 20.58C28.2789 21.4733 28.0789 22.28 27.6789 23C27.2789 23.72 26.7322 24.2867 26.0389 24.7C25.3456 25.1133 24.5589 25.32 23.6789 25.32H21.0389V30H17.6189ZM20.9989 22.3H23.2189C23.5122 22.3 23.7722 22.2333 23.9989 22.1C24.2389 21.9533 24.4322 21.7533 24.5789 21.5C24.7256 21.2467 24.7989 20.96 24.7989 20.64C24.7989 20.3067 24.7256 20.02 24.5789 19.78C24.4322 19.54 24.2389 19.3533 23.9989 19.22C23.7722 19.0867 23.5122 19.02 23.2189 19.02H20.9989V22.3Z" fill="black"/>
</svg>
