<svg width="30" height="30" viewBox="0 0 30 30" fill="none" xmlns="http://www.w3.org/2000/svg">
<path d="M19.1579 22.5566C18.1777 21.5763 18.1777 19.987 19.1579 19.0067C20.1382 18.0265 21.7275 18.0265 22.7078 19.0067L29.2196 25.5185C30.1999 26.4988 30.1999 28.0881 29.2196 29.0684C28.2393 30.0486 26.65 30.0486 25.6697 29.0684L19.1579 22.5566Z" fill="white"/>
<path d="M18.4238 6.47476C15.1241 3.17514 9.77439 3.1751 6.47473 6.47476C3.17513 9.77444 3.17513 15.1242 6.47473 18.4239C9.77439 21.7235 15.1241 21.7235 18.4238 18.4239L21.2523 21.2523C16.3905 26.114 8.50805 26.1141 3.64628 21.2523C-1.21543 16.3905 -1.21543 8.5081 3.64628 3.64631C8.50805 -1.21546 16.3905 -1.21541 21.2523 3.64631C26.1141 8.50811 26.1141 16.3905 21.2523 21.2523L18.4238 18.4239C21.7235 15.1242 21.7235 9.77445 18.4238 6.47476Z" fill="url(#paint0_linear_77_2610)"/>
<defs>
<linearGradient id="paint0_linear_77_2610" x1="14.9774" y1="-6.78288" x2="14.9774" y2="29.8036" gradientUnits="userSpaceOnUse">
<stop stop-color="#FFC577"/>
<stop offset="0.4" stop-color="#FF913B"/>
<stop offset="1" stop-color="#FE6BA8"/>
</linearGradient>
</defs>
</svg>
