<svg width="78" height="78" viewBox="0 0 78 78" fill="none" xmlns="http://www.w3.org/2000/svg">
<rect width="78" height="78" rx="39" transform="matrix(1 0 0 -1 0 78)" fill="black" fill-opacity="0.39"/>
<path d="M47.7399 40.8556C47.7399 35.7746 43.6209 31.6556 38.5399 31.6556C33.4589 31.6556 29.3399 35.7746 29.3399 40.8556C29.3399 45.9366 33.4589 50.0556 38.5399 50.0556C43.6209 50.0556 47.7399 45.9366 47.7399 40.8556ZM51.4199 40.8556C51.4199 47.969 45.6533 53.7356 38.5399 53.7356C31.4265 53.7356 25.6599 47.969 25.6599 40.8556C25.6599 33.7422 31.4265 27.9756 38.5399 27.9756C45.6533 27.9756 51.4199 33.7422 51.4199 40.8556Z" fill="#FFAA2A"/>
<path d="M36.6581 34.8338C36.6581 34.0716 37.276 33.4538 38.0381 33.4538C38.8003 33.4538 39.4181 34.0716 39.4181 34.8338V39.1238L41.4351 38.1158C42.1168 37.7749 42.9459 38.0514 43.2868 38.733C43.6276 39.4147 43.3513 40.2438 42.6696 40.5847L38.6553 42.5918C38.2276 42.8057 37.719 42.783 37.3122 42.5316C36.9054 42.2801 36.6581 41.8355 36.6581 41.3573V34.8338Z" fill="#FFAA2A"/>
<path d="M50.1565 30.5955L50.1827 17.8555H53.9759L53.9497 30.5955H50.1565ZM45.5 25.939V22.5381H58.6324V25.939H45.5Z" fill="#3F3AD6"/>
<path d="M50.1565 30.5955L50.1827 17.8555H53.9759L53.9497 30.5955H50.1565ZM45.5 25.939V22.5381H58.6324V25.939H45.5Z" fill="url(#paint0_linear_77_2078)" fill-opacity="0.7" style="mix-blend-mode:screen"/>
<defs>
<linearGradient id="paint0_linear_77_2078" x1="58.6586" y1="20.5239" x2="49.6336" y2="27.8195" gradientUnits="userSpaceOnUse">
<stop/>
<stop offset="1" stop-color="#FFF0DA"/>
</linearGradient>
</defs>
</svg>
