<svg width="33" height="33" viewBox="0 0 33 33" fill="none" xmlns="http://www.w3.org/2000/svg">
<path d="M27.7471 16.1858C27.7471 9.80068 22.5709 4.62452 16.1858 4.62452C9.80068 4.62452 4.62452 9.80068 4.62452 16.1858C4.62452 22.5709 9.80068 27.7471 16.1858 27.7471C22.5709 27.7471 27.7471 22.5709 27.7471 16.1858ZM32.3716 16.1858C32.3716 25.125 25.125 32.3716 16.1858 32.3716C7.24663 32.3716 0 25.125 0 16.1858C0 7.24663 7.24663 0 16.1858 0C25.125 0 32.3716 7.24663 32.3716 16.1858Z" fill="#678352"/>
<path d="M13.821 8.61844C13.821 7.66067 14.5974 6.88425 15.5552 6.88425C16.513 6.88425 17.2894 7.66067 17.2894 8.61844V14.0096L19.8241 12.7428C20.6807 12.3145 21.7227 12.6618 22.151 13.5184C22.5794 14.3751 22.232 15.4171 21.3754 15.8454L16.3309 18.3676C15.7933 18.6364 15.1542 18.608 14.643 18.292C14.1318 17.976 13.821 17.4173 13.821 16.8163V8.61844Z" fill="#678352"/>
</svg>
