<svg width="402" height="45" viewBox="0 0 402 45" fill="none" xmlns="http://www.w3.org/2000/svg">
<path d="M0 0H402V17.943C402 25.5309 398.571 32.7125 392.67 37.4826L389.438 40.0952C382.11 46.0185 371.64 46.0185 364.313 40.0952C356.985 34.172 346.515 34.172 339.188 40.0952C331.86 46.0185 321.39 46.0185 314.063 40.0952C306.735 34.172 296.265 34.172 288.938 40.0952C281.61 46.0185 271.14 46.0185 263.813 40.0952C256.485 34.172 246.015 34.172 238.688 40.0952C231.36 46.0185 220.89 46.0185 213.563 40.0952C206.235 34.172 195.765 34.172 188.438 40.0952C181.11 46.0185 170.64 46.0185 163.313 40.0952C155.985 34.172 145.515 34.172 138.188 40.0952C130.86 46.0185 120.39 46.0185 113.063 40.0952C105.735 34.172 95.2652 34.172 87.9375 40.0952C80.6098 46.0185 70.1402 46.0185 62.8125 40.0952C55.4848 34.172 45.0152 34.172 37.6875 40.0952C30.3598 46.0185 19.8902 46.0185 12.5625 40.0952L9.33037 37.4826C3.42926 32.7125 0 25.5309 0 17.943V0Z" fill="#678352"/>
</svg>
