<svg width="17" height="17" viewBox="0 0 17 17" fill="none" xmlns="http://www.w3.org/2000/svg">
<path d="M12.288 2.13382C13.147 2.62993 13.4415 3.72859 12.9455 4.5877L8.11895 12.9475C7.92192 13.2887 7.62894 13.5388 7.2946 13.6877C7.16693 14.2515 6.77376 14.7266 6.22873 14.9514L3.66194 16.0103L3.56437 16.0472C3.07375 16.217 2.53115 16.1663 2.07856 15.9051C1.59585 15.6263 1.26986 15.1393 1.19622 14.5867L0.829361 11.8341C0.745624 11.2052 0.999773 10.5829 1.49039 10.1921C1.48375 9.8753 1.55908 9.55281 1.72904 9.25833L6.5556 0.898482C7.05165 0.0392943 8.15029 -0.255085 9.00948 0.240967L12.288 2.13382ZM2.64584 11.8619L2.97674 14.3494L5.2969 13.3925L2.64584 11.8619ZM9.89935 6.2699L6.62134 4.37734L3.38795 9.97775C3.42865 9.99731 3.46905 10.0185 3.50857 10.0413L6.44222 11.7351C6.51886 11.7793 6.59135 11.8288 6.65944 11.8828L9.90015 6.26968L9.89935 6.2699ZM7.51953 2.82164L10.798 4.71449L11.3898 3.68951L8.1113 1.79666L7.51953 2.82164Z" fill="#383A4D"/>
</svg>
