<svg width="342" height="79" viewBox="0 0 342 79" fill="none" xmlns="http://www.w3.org/2000/svg">
<rect x="3" y="5.92554" width="61" height="61" rx="7" fill="#E16B66" stroke="#456D2D" stroke-width="6"/>
<path d="M40.48 30.6595C40.5813 33.0155 40.5687 35.4095 40.442 37.8415L40.328 49.9635C39.948 49.9129 39.53 49.8875 39.074 49.8875C38.618 49.8875 38.162 49.8875 37.706 49.8875C37.25 49.8875 36.8067 49.9002 36.376 49.9255C35.9707 49.9255 35.616 49.9255 35.312 49.9255C35.2613 48.8362 35.2233 47.6582 35.198 46.3915C35.198 45.1249 35.1853 43.8329 35.16 42.5155C35.16 41.1982 35.122 39.9062 35.046 38.6395C34.9953 37.3729 34.9067 36.2075 34.78 35.1435C34.6027 35.4222 34.4 35.8655 34.172 36.4735C33.944 37.0562 33.716 37.6642 33.488 38.2975C33.26 38.9309 33.0447 39.4882 32.842 39.9695C32.6393 40.4509 32.4873 40.6915 32.386 40.6915C32.2593 40.6915 32.1073 40.5649 31.93 40.3115C31.778 40.0329 31.6133 39.6909 31.436 39.2855C31.284 38.8802 31.1193 38.4495 30.942 37.9935C30.7647 37.5375 30.6127 37.1195 30.486 36.7395C30.3593 36.3595 30.2453 36.0429 30.144 35.7895C30.068 35.5362 30.03 35.4095 30.03 35.4095C29.8273 37.7909 29.7513 40.1975 29.802 42.6295C29.878 45.0615 29.992 47.4555 30.144 49.8115C29.3333 49.9382 28.4467 49.9889 27.484 49.9635C26.5213 49.9382 25.6347 49.9255 24.824 49.9255C24.7733 49.9255 24.7353 49.8875 24.71 49.8115C24.6847 49.7102 24.6593 49.4695 24.634 49.0895C24.6087 48.7095 24.5833 48.1395 24.558 47.3795C24.558 46.5942 24.558 45.5682 24.558 44.3015C24.558 43.0349 24.558 41.4642 24.558 39.5895C24.5833 37.7149 24.596 35.4855 24.596 32.9015C24.6213 30.3175 24.6467 27.3029 24.672 23.8575C25.0013 23.7562 25.3813 23.6929 25.812 23.6675C26.2427 23.6422 26.686 23.6422 27.142 23.6675C27.598 23.6675 28.054 23.6802 28.51 23.7055C28.966 23.7055 29.4093 23.6929 29.84 23.6675H29.878C30.106 23.9209 30.334 24.3135 30.562 24.8455C30.79 25.3522 31.0053 25.8969 31.208 26.4795C31.4107 27.0622 31.6007 27.6195 31.778 28.1515C31.9807 28.6835 32.1833 29.1015 32.386 29.4055C32.462 29.4815 32.538 29.5195 32.614 29.5195C32.69 29.5449 32.804 29.3042 32.956 28.7975C33.1333 28.2909 33.3107 27.7082 33.488 27.0495C33.6907 26.3655 33.906 25.6942 34.134 25.0355C34.3873 24.3769 34.628 23.8955 34.856 23.5915C35.0333 23.6169 35.35 23.6169 35.806 23.5915C36.2873 23.5662 36.794 23.5409 37.326 23.5155C37.8833 23.4902 38.4407 23.4775 38.998 23.4775C39.5807 23.4522 40.0747 23.4395 40.48 23.4395C40.3787 25.8715 40.3787 28.2782 40.48 30.6595Z" fill="#F8E69A"/>
<rect x="59.5824" y="3.53065" width="61" height="61" rx="7" transform="rotate(11.3236 59.5824 3.53065)" fill="#994340" stroke="#FCB404" stroke-width="6"/>
<path d="M85.6055 25.3695C86.1967 25.5137 87.0536 25.6853 88.1764 25.8843L89.0707 26.0634L89.0408 26.2124C88.6131 28.3487 88.1455 30.4899 87.6382 32.6361C87.1558 34.7872 86.6709 36.9508 86.1835 39.1268C85.7259 41.2829 85.2931 43.444 84.8852 45.6101C84.4773 47.7762 84.124 49.9273 83.8254 52.0636C83.5869 52.2226 83.1423 52.2498 82.4914 52.1453C81.8605 52.0706 81.1749 51.9462 80.4347 51.7722C79.7193 51.6031 79.0312 51.4265 78.3705 51.2426C77.7048 51.0834 77.2402 51.0162 76.9769 51.041C77.5985 48.8402 78.1232 46.6071 78.551 44.3417C78.9788 42.0762 79.3768 39.8307 79.745 37.605C80.143 35.3594 80.5459 33.1536 80.9538 30.9875C81.3916 28.8016 81.9311 26.6877 82.5725 24.6459L82.5874 24.5714C82.7166 24.5714 82.9501 24.6311 83.2879 24.7504C83.6555 24.8499 83.9263 24.917 84.1002 24.9518C84.5423 25.0662 85.0441 25.2054 85.6055 25.3695Z" fill="#F8E69A"/>
<rect x="100.053" y="12.1897" width="61" height="61" rx="7" transform="rotate(-5.84399 100.053 12.1897)" fill="#E16B66" stroke="#456D2D" stroke-width="6"/>
<path d="M143.942 28.0978C144.723 29.2656 145.034 30.8126 144.875 32.7388L144.837 32.7427C143.971 32.9842 143.036 33.1817 142.033 33.3353C141.027 33.4637 140.071 33.447 139.163 33.2853C139.244 32.5894 139.048 32.0365 138.573 31.6267C138.098 31.2169 137.552 30.98 136.934 30.9159C136.316 30.8518 135.731 30.9754 135.177 31.2868C134.648 31.5955 134.369 32.1079 134.341 32.8239C134.308 33.0054 134.301 33.1844 134.319 33.3608C134.36 33.5095 134.402 33.6707 134.445 33.8445C134.709 34.4287 135.078 34.7984 135.552 34.9536C136.026 35.1088 136.532 35.1971 137.069 35.2185C138.42 35.233 139.699 35.5351 140.905 36.1246C142.137 36.7116 143.173 37.5096 144.015 38.5184C144.528 39.0516 144.933 39.6469 145.229 40.3041C145.523 40.9361 145.719 41.6037 145.816 42.3067C145.939 43.0072 145.962 43.7306 145.885 44.477C145.832 45.1955 145.687 45.8979 145.452 46.5841C145.229 47.3963 144.894 48.1054 144.447 48.7114C144 49.3174 143.467 49.8304 142.847 50.2503C142.253 50.6676 141.588 51.0031 140.85 51.2569C140.134 51.483 139.385 51.6233 138.601 51.6781C137.489 51.7664 136.361 51.6909 135.216 51.4516C134.094 51.1844 133.071 50.7671 132.147 50.1996C131.223 49.632 130.461 48.9078 129.862 48.027C129.259 47.1209 128.934 46.0591 128.886 44.8417L128.875 44.7283L128.863 44.6149C129.732 44.3986 130.7 44.2741 131.766 44.2414C132.83 44.1834 133.789 44.098 134.643 43.9851C134.776 44.7864 135.153 45.359 135.774 45.7029C136.42 46.0442 137.07 46.1814 137.726 46.1143C138.404 46.0194 138.96 45.7333 139.395 45.2559C139.855 44.7758 139.964 44.1025 139.723 43.236C139.585 42.6389 139.31 42.1832 138.896 41.8691C138.479 41.5298 137.994 41.2738 137.442 41.1011C136.915 40.9259 136.343 40.8189 135.728 40.78C135.11 40.7158 134.532 40.6605 133.992 40.6138C133.478 40.5646 132.995 40.4485 132.543 40.2656C132.092 40.0826 131.674 39.858 131.29 39.5917C130.017 38.6014 129.136 37.4565 128.647 36.157C128.182 34.8548 128.037 33.5582 128.21 32.2672C128.384 30.9761 128.833 29.7714 129.559 28.653C130.31 27.5321 131.265 26.6577 132.423 26.0298C133.002 25.7159 133.653 25.4837 134.376 25.3333C135.097 25.1577 135.825 25.0577 136.561 25.0333C137.32 24.9811 138.061 25.0071 138.785 25.1113C139.534 25.2129 140.225 25.3714 140.858 25.5867C142.132 26.0929 143.16 26.9299 143.942 28.0978Z" fill="#F8E69A"/>
<rect x="166.936" y="4.95366" width="61" height="61" rx="7" transform="rotate(8.05268 166.936 4.95366)" fill="#994340" stroke="#FCB404" stroke-width="6"/>
<path d="M205.719 30.937C206.197 32.2583 206.128 33.8348 205.51 35.6664L205.473 35.6611C204.574 35.6873 203.619 35.6546 202.608 35.5628C201.601 35.4459 200.677 35.2 199.834 34.8249C200.081 34.169 200.023 33.5851 199.66 33.0733C199.297 32.5614 198.824 32.2002 198.24 31.9896C197.656 31.779 197.057 31.7583 196.445 31.9276C195.857 32.1003 195.464 32.5308 195.264 33.2189C195.189 33.3874 195.139 33.5594 195.114 33.735C195.118 33.8891 195.12 34.0557 195.121 34.2348C195.236 34.8652 195.505 35.3127 195.928 35.5772C196.352 35.8418 196.821 36.0489 197.337 36.1987C198.645 36.5373 199.814 37.1376 200.844 37.9996C201.898 38.8652 202.713 39.8888 203.288 41.0703C203.657 41.7111 203.907 42.3861 204.037 43.0953C204.171 43.7794 204.2 44.4744 204.126 45.1803C204.077 45.8897 203.926 46.5975 203.672 47.3036C203.447 47.9882 203.138 48.6353 202.745 49.2449C202.334 49.9799 201.839 50.5878 201.259 51.0687C200.679 51.5495 200.038 51.9194 199.337 52.1783C198.66 52.4408 197.933 52.6066 197.155 52.6757C196.407 52.7233 195.645 52.6795 194.871 52.5444C193.771 52.3632 192.694 52.0189 191.64 51.5116C190.615 50.9827 189.722 50.3319 188.961 49.5591C188.201 48.7862 187.635 47.9003 187.265 46.9012C186.898 45.8771 186.837 44.7683 187.083 43.575L187.099 43.4621L187.115 43.3492C188.01 43.348 188.98 43.4595 190.023 43.6838C191.069 43.8831 192.02 44.0305 192.877 44.126C192.813 44.9358 193.042 45.5822 193.562 46.0651C194.107 46.5516 194.706 46.841 195.358 46.9333C196.039 47.004 196.648 46.8599 197.185 46.5009C197.747 46.1454 198.014 45.5181 197.988 44.6189C197.998 44.0063 197.84 43.4977 197.513 43.0933C197.19 42.6638 196.781 42.299 196.286 41.9987C195.817 41.702 195.288 41.4608 194.7 41.2753C194.116 41.0647 193.567 40.872 193.055 40.6972C192.567 40.5259 192.126 40.2972 191.732 40.0111C191.337 39.725 190.986 39.4066 190.677 39.0559C189.68 37.789 189.099 36.466 188.936 35.0869C188.798 33.7113 188.968 32.4177 189.447 31.2062C189.925 29.9946 190.651 28.9331 191.624 28.0218C192.623 27.114 193.759 26.4945 195.034 26.1631C195.672 25.9975 196.36 25.9285 197.098 25.9561C197.839 25.9587 198.57 26.0366 199.291 26.1896C200.04 26.3212 200.753 26.5244 201.43 26.7994C202.133 27.0779 202.766 27.3977 203.329 27.7588C204.444 28.5562 205.241 29.6156 205.719 30.937Z" fill="#F8E69A"/>
<rect x="216.211" y="12.4431" width="61" height="61" rx="7" transform="rotate(-6.27711 216.211 12.4431)" fill="#E16B66" stroke="#456D2D" stroke-width="6"/>
<path d="M259.54 34.0192C260.163 35.0466 260.549 36.2402 260.698 37.6C259.906 37.8146 259.021 37.9884 258.042 38.1217C257.087 38.2521 256.173 38.2763 255.297 38.1942C255.339 37.8837 255.268 37.5857 255.084 37.3001C254.925 37.0118 254.694 36.7695 254.392 36.5734C254.116 36.3744 253.795 36.244 253.432 36.182C253.091 36.0921 252.758 36.0778 252.433 36.139C251.865 36.3034 251.449 36.5785 251.186 36.9643C250.945 37.3221 250.847 37.7025 250.891 38.1054C250.935 38.5083 251.131 38.8946 251.477 39.2642C251.824 39.6339 252.298 39.8876 252.899 40.0254C254.331 40.0717 255.684 40.2033 256.956 40.4201C258.226 40.6117 259.192 41.0534 259.855 41.7451C260.508 42.5907 260.951 43.4851 261.182 44.4281C261.41 45.346 261.361 46.5237 261.035 47.9613C260.592 49.2589 259.782 50.24 258.607 50.9045C257.431 51.569 256.111 51.969 254.648 52.1045C253.369 52.2961 252.199 52.3102 251.136 52.1468C250.073 51.9834 249.133 51.6662 248.317 51.1953C247.525 50.7217 246.872 50.1055 246.355 49.3467C245.863 48.5853 245.562 47.7009 245.451 46.6936L245.439 46.5803L245.431 46.5048C246.25 46.3126 247.192 46.1836 248.255 46.1176C249.316 46.0265 250.236 45.9379 251.017 45.8521C251.106 46.4285 251.423 46.8778 251.968 47.2002C252.535 47.4945 253.113 47.6477 253.7 47.6595C254.285 47.6461 254.801 47.4747 255.249 47.145C255.697 46.8154 255.869 46.2869 255.763 45.5594C255.772 44.9467 255.584 44.5087 255.198 44.2453C254.812 43.9819 254.321 43.8065 253.726 43.7191C253.127 43.6065 252.456 43.5275 251.712 43.4819C250.968 43.4363 250.226 43.3012 249.488 43.0766C248.025 42.7532 246.911 42.124 246.146 41.1887C245.402 40.2255 244.984 39.2011 244.89 38.1156C244.819 37.002 245.059 35.9434 245.611 34.9397C246.189 33.9332 247.076 33.1984 248.274 32.7353C248.739 32.5568 249.307 32.3923 249.978 32.242C250.675 32.0889 251.414 31.9694 252.194 31.8836C252.975 31.7977 253.761 31.7622 254.553 31.7771C255.342 31.7667 256.072 31.8011 256.743 31.8802C257.982 32.2536 258.914 32.9666 259.54 34.0192Z" fill="#F8E69A"/>
<rect x="216.211" y="12.4431" width="61" height="61" rx="7" transform="rotate(-6.27711 216.211 12.4431)" fill="#994340" stroke="#FCB404" stroke-width="6"/>
<path d="M257.912 26.1702C258.714 26.7446 259.315 27.4558 259.714 28.3039C259.932 28.6623 260.101 29.0387 260.221 29.4333C260.363 29.8 260.481 30.182 260.576 30.5793C260.696 31.2033 260.79 31.8301 260.859 32.4596C260.951 33.0612 261.019 33.6781 261.063 34.3105C261.134 35.6534 261.252 36.953 261.415 38.2093C261.579 39.4656 261.683 40.754 261.726 42.0745L261.75 43.3335C261.796 44.2204 261.756 45.1295 261.629 46.061C261.499 46.9673 261.248 47.8105 260.875 48.5906C260.514 49.242 260.001 49.7954 259.337 50.2507C258.696 50.678 257.997 51.0353 257.238 51.3226C256.555 51.6017 255.851 51.8065 255.127 51.9372C254.427 52.0651 253.709 52.1441 252.974 52.174C252.439 52.1818 251.915 52.1631 251.4 52.1177C250.913 52.0948 250.432 52.0076 249.957 51.856C249.507 51.7016 249.088 51.4927 248.703 51.2293C248.314 50.9407 247.979 50.5571 247.697 50.0784C247.275 49.4876 246.962 48.8466 246.759 48.1554C246.578 47.4362 246.435 46.7129 246.329 45.9854C246.038 44.0296 245.733 42.0751 245.417 40.122C245.122 38.141 244.929 36.1489 244.836 34.1457C244.736 33.0098 244.75 31.8614 244.877 30.7005C245.027 29.5117 245.443 28.4337 246.127 27.4665C246.351 27.187 246.616 26.9285 246.921 26.691C247.708 26.1967 248.57 25.8088 249.507 25.5273C250.467 25.2178 251.428 25.0356 252.391 24.9807C253.378 24.923 254.342 24.9954 255.282 25.1979C256.244 25.3724 257.121 25.6965 257.912 26.1702ZM256.886 39.778L256.686 37.9649L256.328 35.4047C256.325 35.3795 256.273 35.1305 256.17 34.6576C256.089 34.1567 256.013 33.6936 255.94 33.2683C255.812 32.5688 255.54 31.9488 255.124 31.4084C254.733 30.8652 254.233 30.487 253.623 30.2737C253.097 30.1277 252.577 30.1467 252.062 30.3307C251.547 30.5148 251.105 30.7801 250.735 31.1266C249.928 31.9034 249.432 32.8373 249.246 33.9282C249.15 34.9072 249.135 35.9283 249.201 36.9915C249.292 38.0519 249.421 39.1081 249.588 40.1602C249.811 41.0277 249.998 41.9245 250.151 42.8507C250.301 43.7517 250.548 44.6038 250.891 45.4071C251.198 45.8831 251.607 46.2332 252.115 46.4576C252.624 46.6819 253.159 46.7888 253.718 46.7783C254.275 46.7425 254.821 46.606 255.355 46.3688C255.887 46.1064 256.318 45.7404 256.649 45.2708C256.842 44.9437 256.98 44.6865 257.061 44.4991C257.14 44.2866 257.179 44.0656 257.179 43.8362C257.179 43.6068 257.15 43.3424 257.092 43.043C257.056 42.7156 257.034 42.2848 257.026 41.7504C256.996 41.244 256.96 40.802 256.919 40.4242C256.902 40.0437 256.891 39.8283 256.886 39.778Z" fill="#F8E69A"/>
<rect x="277.671" y="4.65269" width="61" height="61" rx="7" transform="rotate(8.72289 277.671 4.65269)" fill="#E16B66" stroke="#456D2D" stroke-width="6"/>
<path d="M313.94 36.7081C314.276 37.8617 314.34 39.1146 314.132 40.4668C313.312 40.469 312.411 40.4078 311.431 40.283C310.475 40.162 309.585 39.9486 308.761 39.6427C308.882 39.3537 308.891 39.0475 308.787 38.7239C308.708 38.4042 308.548 38.1106 308.307 37.843C308.091 37.5792 307.815 37.3703 307.48 37.2164C307.174 37.0412 306.856 36.9412 306.527 36.9163C305.935 36.9281 305.463 37.0862 305.108 37.3907C304.783 37.6739 304.589 38.0159 304.528 38.4165C304.467 38.8172 304.555 39.2409 304.794 39.6876C305.033 40.1344 305.425 40.5021 305.971 40.7908C307.342 41.2062 308.615 41.6834 309.788 42.2222C310.965 42.736 311.784 43.4127 312.244 44.2522C312.657 45.2382 312.853 46.2166 312.832 47.1873C312.815 48.133 312.463 49.258 311.776 50.5622C311.012 51.7008 309.976 52.4389 308.668 52.7765C307.36 53.1141 305.982 53.1589 304.534 52.9111C303.249 52.7652 302.115 52.4758 301.13 52.0428C300.146 51.6099 299.32 51.0603 298.654 50.3942C298.012 49.7319 297.54 48.9674 297.237 48.1008C296.959 47.2381 296.897 46.3059 297.051 45.3043L297.068 45.1916L297.08 45.1165C297.921 45.1431 298.864 45.2621 299.908 45.4736C300.956 45.66 301.868 45.8127 302.644 45.9318C302.581 46.5116 302.771 47.0277 303.214 47.4801C303.686 47.9114 304.205 48.2087 304.769 48.3722C305.337 48.5107 305.88 48.4787 306.398 48.2762C306.916 48.0738 307.219 47.6075 307.305 46.8775C307.472 46.2881 307.404 45.8162 307.099 45.462C306.795 45.1077 306.366 44.8113 305.813 44.5726C305.264 44.309 304.636 44.0589 303.929 43.8222C303.222 43.5856 302.541 43.2633 301.886 42.8552C300.557 42.1643 299.644 41.2681 299.146 40.1666C298.678 39.0439 298.539 37.9461 298.729 36.8732C298.948 35.7791 299.454 34.8188 300.247 33.9922C301.066 33.1694 302.113 32.6894 303.39 32.5521C303.885 32.4999 304.476 32.4881 305.164 32.5168C305.877 32.5492 306.621 32.625 307.397 32.7441C308.174 32.8632 308.942 33.0324 309.703 33.2516C310.468 33.4458 311.164 33.668 311.792 33.9182C312.892 34.5995 313.608 35.5295 313.94 36.7081Z" fill="#F8E69A"/>
<rect x="277.671" y="4.65269" width="61" height="61" rx="7" transform="rotate(8.72289 277.671 4.65269)" fill="#E16B66" stroke="#456D2D" stroke-width="6"/>
<path d="M312.572 53.6445C312.389 53.6677 312.084 53.6466 311.659 53.5813C311.158 53.5045 310.588 53.3786 309.948 53.2036C309.305 53.0536 308.733 52.9402 308.232 52.8633C307.69 50.8836 307.138 48.9664 306.577 47.1118C306.045 45.2361 305.613 43.4527 305.283 41.7618L305.081 40.5773C305.023 40.2865 304.961 40.0208 304.895 39.78C304.859 39.5181 304.815 39.3833 304.765 39.3756C304.74 39.3718 304.657 39.6665 304.514 40.2598C304.397 40.8569 304.255 41.6168 304.088 42.5394C303.92 43.4621 303.738 44.4849 303.54 45.6079C303.367 46.7347 303.2 47.8239 303.039 48.8756C302.95 49.4516 302.864 50.015 302.779 50.5658C302.699 51.0917 302.638 51.5694 302.598 51.9989C302.311 52.0318 302.028 52.0396 301.748 52.0224C301.469 52.0051 301.192 51.9754 300.916 51.9331C300.315 51.8409 299.708 51.7092 299.093 51.5381C298.504 51.3707 297.921 51.2429 297.345 51.1545L297.749 48.5253C298.114 46.1465 298.436 43.8765 298.717 41.7153C299.022 39.558 299.355 37.3025 299.716 34.9487C299.981 33.2209 300.268 31.522 300.575 29.852C300.886 28.1569 301.228 26.5177 301.599 24.9343C301.857 24.9227 302.126 24.9255 302.405 24.9427C302.709 24.9637 303.012 24.9973 303.312 25.0434C303.462 25.0665 303.711 25.1174 304.057 25.1963C304.408 25.25 304.755 25.3289 305.098 25.4327C305.444 25.5116 305.739 25.5952 305.982 25.6837C306.25 25.7761 306.38 25.8473 306.372 25.8974C306.478 26.375 306.583 26.7756 306.687 27.0991C306.791 27.4226 306.885 27.7317 306.968 28.0264C307.076 28.3249 307.178 28.6609 307.275 29.0345C307.4 29.387 307.535 29.8434 307.68 30.4038C307.711 30.5367 307.787 30.7919 307.908 31.1693C308.03 31.5468 308.167 31.9907 308.319 32.501C308.475 32.9863 308.638 33.5111 308.808 34.0754C308.981 34.6146 309.136 35.1124 309.271 35.5688C309.435 36.0041 309.569 36.3834 309.673 36.707C309.781 37.0055 309.847 37.1566 309.872 37.1605C309.955 37.1219 310.056 36.8811 310.175 36.4381C310.295 35.9951 310.387 35.5607 310.452 35.135C310.606 34.1334 310.723 33.2031 310.804 32.344C310.913 31.4638 311.037 30.5729 311.175 29.6714C311.256 29.1456 311.336 28.6198 311.417 28.0939C311.527 27.5469 311.642 26.9623 311.763 26.3401C312.638 26.3205 313.551 26.3837 314.502 26.5297C315.429 26.6718 316.243 26.8737 316.946 27.1354L315.091 39.2298C314.955 40.2854 314.804 41.3515 314.639 42.4282C314.473 43.505 314.308 44.5817 314.143 45.6584C314.032 46.3846 313.911 47.0838 313.783 47.7561C313.679 48.4322 313.573 49.1208 313.466 49.8219C313.389 50.3227 313.312 50.8235 313.235 51.3243C313.183 51.829 313.119 52.3317 313.042 52.8325L312.927 53.5837C312.873 53.6011 312.755 53.6213 312.572 53.6445Z" fill="#F8E69A"/>
</svg>
