<svg width="72" height="73" viewBox="0 0 72 73" fill="none" xmlns="http://www.w3.org/2000/svg">
<g filter="url(#filter0_d_77_945)">
<circle cx="36" cy="32.1257" r="22" fill="#96AC5B"/>
</g>
<path d="M45 27.1257L33.5894 28.8954L40.8273 37.8924L45 27.1257ZM25.1402 31.8575C24.7159 31.5039 24.0853 31.5613 23.7318 31.9855C23.3782 32.4098 23.4355 33.0404 23.8598 33.394L24.5 32.6257L25.1402 31.8575ZM24.5 32.6257L23.8598 33.394C28.7958 37.5073 34.3757 35.9728 38.482 33.6363L37.9875 32.7671L37.4929 31.898C33.6402 34.0902 29.1014 35.1585 25.1402 31.8575L24.5 32.6257Z" fill="white"/>
<path d="M20.093 2.0787C20.4514 1.30696 21.5486 1.30696 21.907 2.0787L24.1654 6.94178C24.3111 7.25554 24.6086 7.4717 24.9521 7.51332L30.275 8.15845C31.1197 8.26083 31.4588 9.30427 30.8356 9.8836L26.9084 13.5343C26.655 13.7698 26.5414 14.1196 26.6079 14.4591L27.6393 19.7209C27.8029 20.5559 26.9153 21.2007 26.1717 20.7871L21.4862 18.1802C21.1839 18.012 20.8161 18.012 20.5138 18.1802L15.8283 20.7871C15.0847 21.2007 14.1971 20.5559 14.3607 19.7209L15.3921 14.4591C15.4586 14.1196 15.345 13.7698 15.0916 13.5343L11.1644 9.8836C10.5412 9.30427 10.8803 8.26083 11.725 8.15845L17.0479 7.51332C17.3914 7.4717 17.6889 7.25554 17.8346 6.94178L20.093 2.0787Z" fill="#FCB404" stroke="#456D2D" stroke-width="3"/>
<defs>
<filter id="filter0_d_77_945" x="0" y="0.125732" width="72" height="72" filterUnits="userSpaceOnUse" color-interpolation-filters="sRGB">
<feFlood flood-opacity="0" result="BackgroundImageFix"/>
<feColorMatrix in="SourceAlpha" type="matrix" values="0 0 0 0 0 0 0 0 0 0 0 0 0 0 0 0 0 0 127 0" result="hardAlpha"/>
<feOffset dy="4"/>
<feGaussianBlur stdDeviation="7"/>
<feComposite in2="hardAlpha" operator="out"/>
<feColorMatrix type="matrix" values="0 0 0 0 0 0 0 0 0 0 0 0 0 0 0 0 0 0 0.25 0"/>
<feBlend mode="normal" in2="BackgroundImageFix" result="effect1_dropShadow_77_945"/>
<feBlend mode="normal" in="SourceGraphic" in2="effect1_dropShadow_77_945" result="shape"/>
</filter>
</defs>
</svg>
