<svg width="38" height="38" viewBox="0 0 38 38" fill="none" xmlns="http://www.w3.org/2000/svg" xmlns:xlink="http://www.w3.org/1999/xlink">
<path d="M28.3215 1.2619L27.9493 11.7333L37.8329 15.2125L29.4139 21.4504L32.8561 31.3469L22.73 28.6539L17.1388 37.5155L12.9307 27.9195L2.5164 29.0732L7.39513 19.8003L-0.000104493 12.3773L10.2916 10.4101L11.4843 0.000116585L19.4391 6.81995L28.3215 1.2619Z" fill="#FFAA2A"/>
<path d="M28.3215 1.2619L27.9493 11.7333L37.8329 15.2125L29.4139 21.4504L32.8561 31.3469L22.73 28.6539L17.1388 37.5155L12.9307 27.9195L2.5164 29.0732L7.39513 19.8003L-0.000104493 12.3773L10.2916 10.4101L11.4843 0.000116585L19.4391 6.81995L28.3215 1.2619Z" fill="url(#pattern0_78_3998)" fill-opacity="0.35"/>
<defs>
<pattern id="pattern0_78_3998" patternUnits="userSpaceOnUse" patternTransform="matrix(204.35 117.981 -132.363 229.26 -16.9188 -156.342)" preserveAspectRatio="none" viewBox="0 0 102.148 114.6" width="1" height="1">
<g id="pattern0_78_3998_inner">
<path d="M2.31814 84.7754L0 83.437L48.1724 0L50.4905 1.33838L2.31814 84.7754ZM8.11222 88.1206L5.79408 86.7822L53.9664 3.34521L56.2846 4.68359L8.11222 88.1206ZM13.9071 91.4663L11.589 90.1279L59.7614 6.69092L62.0795 8.0293L13.9071 91.4663ZM19.7012 94.8115L17.3831 93.4731L65.5555 10.0361L67.8736 11.3745L19.7012 94.8115ZM25.4962 98.1572L23.178 96.8188L71.3504 13.3818L73.6685 14.7202L25.4962 98.1572ZM30.798 101.218L28.4799 99.8799L76.6523 16.4429L78.9704 17.7812L30.798 101.218ZM36.5921 104.563L34.2748 103.226L82.4472 19.7886L84.7645 21.1265L36.5921 104.563ZM42.387 107.909L40.0689 106.571L88.2413 23.1338L90.5594 24.4722L42.387 107.909ZM48.1811 111.254L45.8638 109.916L94.0362 26.4795L96.3535 27.8174L48.1811 111.254ZM53.976 114.6L51.6579 113.262L99.8303 29.8247L102.148 31.1631L53.976 114.6Z" fill="white"/>
</g>
</pattern></defs>
</svg>
