<svg width="17" height="25" viewBox="0 0 17 25" fill="none" xmlns="http://www.w3.org/2000/svg">
<path d="M12.7816 0.313721C12.9479 0.473402 13.1078 0.636538 13.2604 0.802158C13.478 0.741043 13.7782 0.974811 13.9037 0.977471C14.0076 0.979183 14.0828 0.863725 14.1919 0.871533C14.3146 0.879796 14.4815 1.03631 14.7009 1.05153C15.0614 1.07848 15.1846 0.775723 15.4108 0.778721C15.6453 0.782583 15.9502 1.03058 16.2596 0.993408C16.3038 0.968042 16.3485 0.942543 16.393 0.917471C16.3881 0.833221 16.3826 0.748678 16.377 0.664346C16.5308 0.665632 16.5509 0.841654 16.6812 0.880908C16.8342 0.927342 16.9555 0.801001 17.0606 0.833096C17.1464 0.85965 17.2234 1.01389 17.3348 1.04122C17.498 1.08223 17.5194 0.89955 17.6165 0.895908C17.6553 0.891558 18.3221 1.0223 18.3611 1.03841C18.633 1.13466 18.5708 1.37715 18.7715 1.48278C19.339 1.78227 20.0128 1.8823 20.6147 2.15216C20.8835 2.27368 21.1358 2.45354 21.3856 2.69872C20.6132 2.89616 21.138 3.95492 21.4673 2.93966C21.4874 2.97448 21.5089 3.00631 21.5312 3.03528C21.6637 3.23991 21.9452 3.20561 22.0936 3.39997C22.1994 3.53932 22.1917 3.72005 22.3716 3.88935C22.6895 4.18537 23.3192 4.28022 22.888 4.85591C23.3379 5.15559 23.4285 5.67045 24.0393 5.43716C24.1595 5.52679 24.0832 6.04097 24.1303 6.19653C24.1922 6.33998 24.6515 7.39469 24.7135 7.57278C24.7925 7.74246 24.9227 8.04348 25.0346 8.16903C25.1713 8.31827 25.8411 8.24132 25.2449 8.83466C25.4327 9.20962 25.4521 9.3664 25.4515 9.75997C25.4507 9.8314 25.3421 9.86226 25.3501 9.90153C25.367 9.98287 25.4743 10.1036 25.5079 10.2503C25.5621 10.4897 25.3408 10.6563 25.6966 10.5878C25.7754 10.7413 25.8507 10.9036 25.921 11.064C25.8551 11.1262 25.7881 11.1868 25.721 11.2468C25.8004 11.3304 25.8787 11.4149 25.9558 11.5028C25.7448 11.4645 25.6707 11.5409 25.675 11.6312C25.682 11.7624 25.8598 11.9349 26.0412 11.8197C25.9275 12.1366 25.7999 12.4404 25.66 12.7375C25.0793 12.6331 25.5071 13.3855 25.829 13.389C25.8226 13.4246 25.816 13.4605 25.8093 13.4959C25.5994 13.7752 25.6652 14.0875 25.4637 14.4278C25.2596 14.7651 25.2102 14.712 24.9172 14.7372C24.9062 14.8235 24.8937 14.9098 24.8806 14.9959C25.4256 15.686 24.2596 15.1468 24.4759 16.0665C23.9486 16.0904 23.905 16.7124 23.8139 17.1306C23.8043 17.1787 23.8819 17.2269 23.8731 17.2947C23.8512 17.462 23.5374 17.7209 23.7876 17.875C23.6399 17.9403 23.4916 18.0022 23.3435 18.0606C23.3221 18.1806 23.299 18.3012 23.274 18.4215C23.3473 18.4771 23.4204 18.5329 23.4937 18.5884C23.108 18.5775 22.9804 18.9222 22.8092 19.0047C22.7751 19.0203 22.6745 18.9439 22.5791 19C22.4672 19.0655 22.3406 19.2598 22.211 19.3384C22.274 19.476 22.335 19.615 22.3951 19.7547C22.2602 20.0015 21.9316 19.8033 21.8016 19.8887C21.7778 19.9079 21.4267 20.2675 21.4091 20.2909C21.2817 20.4837 21.5413 20.6889 20.9847 21.0522C20.8847 21.1159 20.7429 21.0878 20.657 21.1478C20.5089 21.2546 20.1941 21.7826 20.2832 21.9962C19.9308 21.894 19.4804 22.3173 19.2795 22.3365C19.2196 22.3418 19.117 22.192 18.9555 22.24C18.8235 22.28 18.593 22.5725 18.4278 22.629C18.2533 22.6886 18.1276 22.5793 18.0512 22.6047C17.9789 22.6289 17.9713 22.7693 17.8747 22.8137C17.575 22.9487 17.2276 22.8787 16.9902 22.9675C16.6477 23.095 16.4584 23.547 16.1873 23.7981C16.1029 23.7984 16.0058 23.7447 15.9253 23.7662C15.0445 23.9974 14.0006 24.1253 12.9553 23.9547C12.8239 23.9311 12.6973 23.9075 12.5731 23.8825C12.1226 23.802 11.1006 23.1214 11.251 23.9884C11.0617 24.1122 9.96774 23.5287 9.75703 23.4503C9.53956 23.3836 9.32134 23.4715 9.14762 23.4165C8.62176 23.2461 8.30141 23.0102 7.64239 22.8437C7.47254 22.8007 7.22694 22.8734 7.13627 22.824C7.02735 22.7639 6.99097 22.5528 6.85927 22.4678C6.5419 22.2682 5.93122 21.9599 5.66204 21.7487C5.61285 21.7101 5.67592 21.573 5.6273 21.4853C5.43948 21.1447 5.119 20.9461 4.90614 21.3793C4.76873 21.0729 4.52652 20.9603 4.27795 20.8572C4.12547 20.7884 3.97364 20.7192 3.84131 20.6247C2.99972 20.0722 1.89446 18.6279 1.31352 17.9603C0.933567 17.5469 0.728035 17.6478 0.564195 16.8203C0.531443 16.6368 0.516922 16.4492 0.490014 16.2287C0.425397 15.7033 0.697943 15.1847 0.151034 14.92C0.155219 14.3545 0.0121804 13.9217 0.383906 13.4903C0.282304 13.4525 0.180872 13.4134 0.0796695 13.3731C0.0723337 13.3066 0.0660976 13.2392 0.0599504 13.1725C0.15186 13.1466 0.243933 13.1213 0.336017 13.0965C0.335284 12.6375 -0.0348493 12.0315 0.00267126 11.6209C0.0276647 10.934 0.538413 9.26237 0.890029 8.72685C1.06171 8.43842 0.88498 8.34819 1.33605 8.32278C1.33598 8.24485 1.33647 8.16563 1.33793 8.08747C1.27223 8.01099 1.20701 7.93318 1.14262 7.85497C1.30793 7.45775 1.65872 7.06813 1.8572 6.71778C2.20326 6.07969 2.66299 5.01464 3.29669 4.5681C3.45256 4.45577 3.74815 4.41396 3.8723 4.28685C4.05449 4.10194 3.88674 3.83418 4.13804 3.59872C4.56852 3.18471 5.65698 2.83104 6.10243 2.54497C6.23619 2.45538 6.24468 2.3179 6.3353 2.25247C6.71969 1.97697 7.06976 1.81629 7.41891 1.47341C7.98966 1.55489 8.07846 1.93666 8.34665 2.24497C8.55096 2.47741 9.06035 3.01317 9.17485 3.24435C9.25696 3.40533 9.2277 3.65694 9.32696 3.83122C8.94517 4.12555 8.72656 4.02925 8.26495 3.9306C7.63379 4.22713 7.04015 4.58922 6.49212 5.01435C6.37729 4.96635 6.2615 4.91973 6.14375 4.8756V4.87466C5.84806 4.95003 5.93572 5.24011 5.86956 5.38091C5.18984 6.65913 3.40171 8.59787 2.99245 10.1378C2.87564 10.4533 2.84285 11.5146 2.66474 11.7222C2.61437 11.7758 2.44806 11.7785 2.43563 11.8412C2.4909 12.4137 2.5992 12.97 2.7577 13.4987C2.62507 14.6541 3.20897 15.7574 3.82159 16.6525C4.35243 17.4418 5.04034 18.1008 5.83294 18.6062C7.80983 19.9167 9.53221 20.8556 11.651 21.2247C12.1146 21.3171 12.6992 21.3238 13.2229 21.3822C13.3246 21.3942 13.4378 21.4077 13.5412 21.4262C13.7372 21.4589 13.8485 21.7219 14.1224 21.4947C14.1334 21.5653 14.1451 21.6359 14.1563 21.7065C14.4053 21.5895 14.5405 21.4016 14.8267 21.3222C15.0626 21.2628 15.7073 21.0584 15.9291 21.0006C16.0454 20.9726 16.0532 21.1125 16.1563 21.0728C16.336 21.0032 16.6414 20.6753 16.8794 20.5609C17.0923 20.4624 17.5258 20.4095 17.6785 20.2975C18.2315 19.899 18.7047 19.3109 19.2898 18.9231C19.453 18.8164 19.7554 18.7863 19.7997 18.7412C19.8844 18.6544 19.7993 18.5044 19.8438 18.4356C20.0713 18.0893 20.6523 17.788 20.9189 17.4906C21.7931 16.5372 22.4306 15.333 22.8392 14.1747C23.0957 13.5042 23.2596 12.3778 23.3359 11.6312C23.3446 11.5633 23.3532 11.4988 23.3622 11.439C23.3845 11.2875 23.5705 11.3175 23.5632 11.1868C23.5538 11.0424 23.4214 10.974 23.4045 10.9103C23.3036 10.4478 22.9306 9.54224 22.8599 9.10372C22.8503 9.0194 22.9563 8.90429 22.935 8.8581C22.9241 8.83458 22.811 8.82373 22.7669 8.75685C22.3729 8.17055 22.1311 7.71214 21.7011 7.12185C21.1858 6.42225 20.4387 5.76488 19.6644 5.10247C19.3764 4.86441 18.8321 4.55655 18.3592 4.28966C18.0819 4.13301 17.9855 3.78375 17.9404 3.76747C17.8413 3.73234 17.7112 3.88525 17.5019 3.85372C16.8191 3.74821 15.9968 3.28032 15.3394 3.23028C15.0149 3.20239 14.544 3.35951 14.2379 3.3681C13.9929 3.36989 13.4391 3.21442 13.3262 3.31653C13.2575 3.3763 13.2135 3.58107 13.1384 3.60247C13.0694 3.62087 12.9805 3.49307 12.8999 3.48341C12.565 3.44438 12.4413 3.35862 12.1374 3.32216C11.6552 3.23941 10.5135 3.66228 10.2397 2.87216C10.237 2.8641 10.2346 2.85518 10.2322 2.84685C10.1843 2.68889 10.2465 2.48044 10.2124 2.29653C10.1781 2.11195 9.81127 0.964932 10.0134 0.837783C10.3109 0.655598 11.1189 0.830096 11.2735 0.804971C11.3843 0.781811 11.51 0.658091 11.6538 0.626846C12.1178 0.529125 12.3562 0.605472 12.7816 0.313721ZM14.453 23.4728C14.47 23.5664 14.4873 23.6605 14.5046 23.754C14.5744 23.7053 14.6438 23.6555 14.7121 23.605C14.6614 23.5551 14.6116 23.5039 14.5628 23.4531C14.5263 23.4599 14.4894 23.4665 14.453 23.4728ZM12.9553 4.54935C13.1341 4.54139 13.3642 4.57279 13.5609 4.56153C13.7173 4.69799 13.5446 4.76043 13.268 4.87372C13.2787 5.0818 13.2893 5.29212 13.2999 5.50466C13.1924 5.52326 13.0843 5.54219 12.9769 5.56091L12.9478 5.58903C12.9182 5.6498 13.137 5.6809 13.1919 5.71935C13.7924 6.13809 13.3197 6.95771 13.2511 7.41622C13.2367 7.51502 13.3802 7.83628 13.206 7.90372C13.1605 7.9212 12.9944 7.92628 12.9872 7.94497C13.0853 8.11252 13.1838 8.27843 13.282 8.4456C13.0242 8.78849 13.2369 9.14275 13.2764 9.48903C13.2993 9.68913 13.3226 9.88894 13.3459 10.0881C13.4079 9.97777 13.4877 9.86874 13.5778 9.8181L13.5966 9.79935C13.6251 9.78484 13.6557 9.77649 13.6868 9.77591C13.724 9.77525 13.8357 9.86886 13.8473 9.85747C13.852 9.85037 13.8 9.7673 13.8116 9.74216C13.9176 9.52399 14.079 9.45483 14.2642 9.33247C14.6189 9.09719 14.8562 8.6365 15.2493 8.4156C15.3347 8.3682 15.5756 8.5354 15.5835 8.52435C15.6009 8.5 15.4861 8.34573 15.4981 8.27028C15.5406 8.02146 15.8773 7.99364 15.9526 7.79591C15.9896 7.69826 15.9201 7.4306 15.9516 7.32903C15.9771 7.24819 16.1695 7.20288 16.1216 7.10216C16.0925 7.04098 15.9592 6.88044 15.9591 6.84528C15.9607 6.81463 16.0664 6.88569 16.0897 6.87341C16.1884 6.82261 16.276 6.85938 16.3808 6.83028C16.5366 6.78696 16.742 6.37814 17.3273 7.01591C17.3329 7.02204 17.3385 7.02833 17.3442 7.03466C17.4544 7.15712 17.5491 7.31453 17.6709 7.4556C17.793 7.59679 18.6101 8.48214 18.6175 8.56747C18.6219 8.68427 18.2794 8.57891 18.2588 8.61622C18.2448 8.6418 18.2929 8.74483 18.2804 8.7831C18.2384 8.90608 18.1411 8.8869 18.2653 9.17591C18.1293 9.08773 17.9938 8.99878 17.8578 8.9106C17.867 9.00031 17.6682 8.9022 17.6512 8.93216C17.6378 8.95691 17.7093 9.05869 17.6935 9.08216C17.6752 9.10837 17.5492 9.04129 17.5207 9.09435C17.4738 9.18062 17.6791 9.43142 17.6653 9.49935C17.6504 9.56885 17.4669 9.50006 17.4888 9.63341C17.5058 9.6658 17.5225 9.69853 17.5395 9.73091C17.5984 9.78606 17.658 9.84076 17.717 9.89591C17.7148 9.94809 17.5932 9.83848 17.5648 9.85747C17.5326 9.88176 17.6219 10.0115 17.6015 10.029C17.5847 10.0432 17.4785 9.97117 17.4625 9.99622C17.4391 10.0324 17.5667 10.1593 17.5733 10.1997C17.5757 10.215 17.5201 10.3963 17.5132 10.4078C17.4652 10.4607 17.2936 10.2819 17.2371 10.3037C17.0808 10.3657 17.0962 10.6217 17.039 10.7753C17.0136 10.8438 16.953 10.8785 16.8784 10.8925C16.5288 10.3541 16.0305 10.1399 16.7592 10.8184C16.6114 10.7617 16.7524 10.9951 16.6718 11.0068C16.6198 11.0141 16.5044 10.9335 16.4606 10.9778C16.3825 11.0581 16.5544 11.429 16.0559 10.9272C16.0424 11.1072 15.787 10.9933 16.1723 11.4859C16.1727 11.537 15.859 11.3193 15.7967 11.3078C15.738 11.2963 15.4239 11.3564 15.3845 11.38C15.346 11.4025 15.2817 11.4488 15.2915 11.514C15.2979 11.5573 15.4098 11.7135 15.438 11.7812C15.398 11.7605 15.3138 11.7011 15.1638 11.5759C15.1425 11.6823 15.1058 11.6889 14.9845 11.6865C14.9624 11.6853 14.8839 11.6107 14.8755 11.6143C14.8627 11.6274 14.9 11.7078 14.8849 11.7381C14.8599 11.7869 14.6685 11.6478 14.9347 11.8909C14.955 11.9574 14.9756 12.0234 14.9976 12.0887C14.9385 12.0502 14.8796 12.0114 14.8201 11.9734C14.8638 12.0381 14.9079 12.1026 14.9525 12.1665C14.5786 11.8009 14.7216 12.1034 14.9741 12.2706C14.8513 12.2461 14.7273 12.2244 14.6023 12.205C14.1533 11.8159 14.4554 12.2748 14.7168 12.4656C14.7119 12.4709 14.7067 12.4762 14.7018 12.4815C14.5388 12.4325 14.6035 12.5579 14.4727 12.5556C14.3407 12.5544 14.2986 12.5142 14.0642 12.3718C14.0651 12.3968 14.0659 12.422 14.067 12.4468C14.6172 12.964 13.5687 12.2004 13.9393 12.6747C13.5182 12.4583 13.6415 12.7181 13.714 12.8715C13.7222 12.8895 13.7998 12.9383 13.8163 12.9653C13.8553 13.0304 13.7083 13.046 13.9619 13.1959C13.8734 13.1776 13.7843 13.1593 13.6952 13.1425C13.7284 13.1916 13.762 13.241 13.7957 13.2897C13.8752 13.3358 13.9546 13.3823 14.0342 13.4284C13.7386 13.3133 13.8027 13.4434 13.7187 13.4406C13.7016 13.44 13.5904 13.3797 13.5478 13.3843C13.5174 13.3879 13.5065 13.4121 13.4924 13.434C13.4931 13.4541 13.4926 13.474 13.4924 13.4931C13.5962 13.5632 13.6998 13.6337 13.8041 13.7031C13.8427 13.7915 13.5058 13.6363 13.4623 13.6553C13.4564 13.6577 13.4361 13.7336 13.4295 13.7697C13.4767 13.8113 13.5231 13.8553 13.5281 13.8878C13.6106 13.9549 13.6996 14.0318 13.6173 14.0987C13.5941 14.1172 13.487 14.0889 13.4717 14.109C13.4452 14.1443 13.6093 14.372 13.8116 14.4803C13.5303 14.4027 13.5742 14.582 13.4811 14.5853C13.4515 14.5851 13.2859 14.5108 13.2342 14.53C13.2101 14.5394 13.2329 14.5901 13.2482 14.6359L11.4651 17.5984L11.0679 14.4109C11.0092 14.2497 10.994 14.2101 11.0003 14.184C11.0213 14.1118 11.1713 14.0767 11.1824 14.0565C11.1913 14.0348 11.0667 14.0202 11.066 13.9881C11.0669 13.8972 11.2631 13.8046 11.2651 13.7453C11.2662 13.7032 11.1964 13.6677 11.1045 13.6318L11.081 13.63C11.0831 13.6284 11.0847 13.6259 11.0867 13.6243C10.9699 13.5805 10.8238 13.5378 10.7355 13.4959C10.7589 13.4751 10.8361 13.4532 10.8369 13.4312C10.8438 13.1762 10.9089 12.8929 10.9852 12.6372C11.0203 12.5214 11.5163 12.2255 10.6857 12.309C10.5398 12.2699 10.8734 11.9707 10.8782 11.9153C10.8827 11.8592 10.7337 11.814 10.7308 11.77C10.7238 11.64 10.831 11.5422 10.7007 11.3818C10.6666 11.3406 10.4903 11.296 10.4923 11.2712C10.4962 11.2415 10.6654 11.2089 10.6763 11.17C10.7006 11.0756 10.6444 10.9086 10.6735 10.8184C10.6792 10.8021 10.8295 10.7958 10.8763 10.7725C11.0592 10.6822 11.0431 10.5829 10.5646 10.6009C10.8359 10.4863 10.5886 10.3777 10.573 10.2728C10.5419 10.0476 10.6538 9.63535 10.4528 9.44028C10.326 9.3167 10.1108 9.3188 10.296 9.13747C10.3371 9.09721 10.3925 9.05698 10.4416 9.0081C10.557 8.89318 10.9542 8.78773 10.4763 8.69966C10.6002 8.57236 10.5131 8.47122 10.9214 8.37716C10.8234 8.36586 10.7254 8.35377 10.6275 8.34247C10.6251 8.32696 10.6224 8.3111 10.62 8.2956C10.7134 8.29086 10.8073 8.28626 10.9007 8.28153C10.9257 8.16957 10.5419 8.02693 10.5449 7.93185C10.5496 7.77276 10.7001 7.36413 10.8266 7.21372C10.8936 7.13358 10.6937 7.12834 11.1054 7.08341C11.0768 7.06547 11.0476 7.04787 11.019 7.02997C10.929 7.01863 10.8387 7.00755 10.7486 6.99622C10.7452 6.89515 10.886 6.77073 10.8848 6.67372C10.882 6.49719 10.6346 6.22926 10.7974 6.04935C10.8386 6.00437 11.0248 5.94849 11.0228 5.90497C11.019 5.8419 10.7119 5.826 10.7064 5.74372C10.698 5.60328 11.0556 5.34361 11.0284 5.2131C11.0206 5.17426 10.9064 5.15693 10.8942 5.12872C10.8417 5.01233 10.8507 4.92166 10.6735 4.81278C10.9693 4.69413 11.3514 4.70618 11.7364 4.67028C12.0271 4.64308 12.7008 4.56056 12.9553 4.54935ZM15.4558 11.7906L15.4464 11.8C15.4458 11.7948 15.4413 11.7891 15.438 11.7812C15.4459 11.7853 15.4511 11.7895 15.4558 11.7906ZM15.468 11.7803C15.4695 11.7893 15.4661 11.7929 15.4558 11.7906L15.468 11.7803ZM16.3028 10.9037C16.0888 10.6487 16.1731 10.9444 16.331 11.0425C16.3664 11.0646 16.3581 10.97 16.3028 10.9037ZM22.4476 4.18935C22.1769 4.38744 22.7512 4.57573 22.7378 4.30747C22.7343 4.24593 22.5179 4.13695 22.4476 4.18935Z" fill="#4FB0F4"/>
</svg>
