<svg width="18" height="16" viewBox="0 0 18 16" fill="none" xmlns="http://www.w3.org/2000/svg">
<path d="M13.9161 10.8808C14.0091 10.8785 14.1289 10.8873 14.2312 10.884C14.3123 10.923 14.2225 10.9391 14.0789 10.9708C14.0846 11.0295 14.0901 11.0884 14.0958 11.1471C14.04 11.1524 13.9837 11.158 13.9278 11.1633C13.8639 11.1858 14.0067 11.195 14.0398 11.2071C14.3525 11.3234 14.1083 11.5528 14.073 11.6808C14.0655 11.7085 14.1403 11.7982 14.0496 11.8171C14.026 11.8219 13.9419 11.8233 13.9363 11.8283C13.9875 11.8749 14.0387 11.9218 14.0899 11.9683C13.9561 12.0642 14.0667 12.1636 14.0873 12.2602C14.1282 12.4515 14.1746 12.6414 14.1889 12.8302C14.2074 12.8319 14.2263 12.8337 14.2455 12.8352C14.6558 12.8672 15.131 12.7756 15.562 12.8252C15.6559 12.836 15.7206 12.9792 15.7338 12.9777C15.7628 12.9747 15.7813 12.8783 15.8399 12.8546C16.0351 12.7766 16.2982 12.8797 16.4838 12.8315C16.5755 12.8076 16.7016 12.6853 16.7918 12.6583C16.864 12.6369 17.0339 12.6844 17.0659 12.6308C17.0852 12.5983 17.0941 12.4947 17.1173 12.4815C17.1387 12.47 17.1695 12.5326 17.1948 12.5358C17.3006 12.5503 17.3399 12.5933 17.4357 12.6177C17.5779 12.6541 18 12.5722 18.0001 13.0046C18.0001 13.0088 18.0002 13.0134 18.0001 13.0177C17.9986 13.1001 17.9625 13.1902 17.9571 13.2833C17.9518 13.377 17.9559 13.9777 17.9051 14.0121C17.8311 14.0567 17.6535 13.9021 17.614 13.909C17.5871 13.9138 17.554 13.9686 17.5196 13.9783C17.4085 14.0097 17.3502 13.9697 17.2501 14.1183C17.2101 14.0401 17.1703 13.9616 17.1303 13.8833C17.0781 13.9196 16.9987 13.8166 16.9669 13.8221C16.9409 13.8268 16.9256 13.8883 16.8985 13.8915C16.8681 13.8951 16.8211 13.8283 16.7657 13.8383C16.675 13.8546 16.6587 14.0159 16.6043 14.0365C16.5478 14.0577 16.4602 13.9703 16.3881 14.0271C16.3791 14.0448 16.3698 14.0625 16.3608 14.0802C16.3673 14.1204 16.3738 14.1607 16.3803 14.2008C16.3441 14.2195 16.3283 14.1376 16.295 14.1358C16.2558 14.1341 16.2355 14.2118 16.2091 14.2115C16.1875 14.2109 16.1583 14.149 16.1303 14.1527C16.0894 14.1581 16.0982 14.2482 16.0763 14.2652C16.0675 14.2718 15.9053 14.3219 15.8959 14.3227C15.8263 14.3263 15.82 14.2023 15.7644 14.1915C15.6105 14.1621 15.4524 14.2618 15.31 14.2996C15.2465 14.3165 15.18 14.3093 15.1166 14.2896C15.2165 13.9729 14.9949 13.7265 15.0776 14.2221C15.007 14.1517 14.957 14.2853 14.8901 14.2627C14.8469 14.2479 14.817 14.1792 14.7553 14.1808C14.6457 14.1845 14.5258 14.3798 14.4942 14.0271C14.3825 14.0811 14.2838 13.9917 14.2293 14.1708C14.2312 14.2036 14.2321 14.2364 14.2273 14.2683C14.2173 14.3369 14.2324 14.4506 14.1668 14.514C14.1525 14.5276 14.0561 14.5244 14.0561 14.5358C14.0566 14.5485 14.1212 14.5555 14.1264 14.5615C14.1632 14.6027 14.2285 14.6933 14.1622 14.7321C14.1494 14.7395 14.0741 14.7452 14.0743 14.7496C14.0755 14.7519 14.1258 14.757 14.131 14.764C14.1774 14.8261 14.1479 14.8713 14.1303 14.9321C14.0969 15.0488 14.1925 15.1845 14.1407 15.3071C14.1288 15.3337 13.9804 15.3521 13.9819 15.3558C13.9865 15.364 14.0856 15.3693 14.1101 15.3858C14.191 15.4413 14.0842 15.5162 14.1342 15.569C14.159 15.5951 14.2864 15.6308 14.3146 15.6565C14.337 15.677 14.2874 15.7255 14.3432 15.7346C14.3772 15.7401 14.4853 15.7424 14.4988 15.749C14.5105 15.755 14.4462 15.7637 14.4422 15.7708C14.4272 15.801 14.3824 15.8123 14.3569 15.8396C14.319 15.88 14.4042 16.0002 13.9539 16.0002C13.9495 16.0002 13.9447 16.0002 13.9402 16.0002C13.8544 15.9998 13.7606 15.9899 13.6635 15.9883C13.566 15.9868 12.9405 15.9878 12.9044 15.9733C12.858 15.9523 13.0189 15.9014 13.0118 15.8902C13.0067 15.8826 12.9497 15.8731 12.9396 15.8633C12.9071 15.8318 12.9484 15.8156 12.7937 15.7871C12.8753 15.7757 12.9569 15.7641 13.0385 15.7527C13.0009 15.7379 13.1073 15.7156 13.1023 15.7065C13.0975 15.6991 13.0343 15.6947 13.0301 15.6871C13.0263 15.6784 13.0959 15.6647 13.0854 15.649C13.0682 15.6233 12.901 15.6187 12.879 15.6033C12.8569 15.5873 12.948 15.562 12.8888 15.5415C12.8703 15.5389 12.8519 15.5365 12.8334 15.534C12.7916 15.5358 12.7496 15.5378 12.7078 15.5396C12.6883 15.5293 12.7735 15.5247 12.7755 15.5152C12.7774 15.5041 12.6966 15.4983 12.6967 15.4908C12.6971 15.4847 12.762 15.4763 12.7579 15.4683C12.7519 15.4568 12.6583 15.459 12.6407 15.4527C12.6336 15.4499 12.5816 15.4041 12.5808 15.4015C12.5783 15.382 12.7054 15.3802 12.7176 15.3646C12.7483 15.3208 12.6444 15.2757 12.6049 15.2352C12.5873 15.2172 12.5948 15.1982 12.6153 15.1802C12.9453 15.2086 13.2019 15.1454 12.6857 15.169C12.7589 15.1489 12.6205 15.1348 12.6433 15.1158C12.6587 15.1035 12.7305 15.0947 12.7286 15.0771C12.7244 15.0459 12.5217 15.0117 12.8888 15.0027C12.8246 14.9662 12.9571 14.9347 12.6329 14.9215C12.6131 14.912 12.8065 14.8877 12.8328 14.8771C12.8576 14.867 12.9451 14.7903 12.95 14.7777C12.9548 14.7651 12.9595 14.7433 12.9311 14.7327C12.895 14.7195 12.5601 14.7101 12.9532 14.6865C12.9214 14.659 12.9324 14.6489 12.978 14.6233C12.9862 14.6187 13.045 14.6179 13.045 14.6152C13.0443 14.6096 13.0021 14.6001 12.9969 14.5902C12.9882 14.5738 13.1108 14.5647 12.9233 14.5665C12.8919 14.5557 12.8603 14.5447 12.8289 14.534C12.865 14.5302 12.9015 14.5265 12.9376 14.5227C12.8982 14.517 12.8585 14.511 12.8191 14.5052C13.0905 14.512 12.9301 14.4714 12.7742 14.4846C12.8304 14.4637 12.8867 14.443 12.9428 14.4221C13.2517 14.425 12.9786 14.3761 12.8107 14.3802C12.8109 14.3778 12.8111 14.3751 12.8113 14.3727C12.8934 14.3517 12.8265 14.3327 12.8816 14.3071C12.9367 14.2816 12.9668 14.2836 13.1088 14.2758C13.1007 14.2699 13.0922 14.2643 13.0841 14.2583C12.695 14.2268 13.3692 14.2318 13.0704 14.1777C13.3152 14.1605 13.1863 14.1184 13.1121 14.0902C13.103 14.087 13.0565 14.0864 13.0418 14.0821C13.0065 14.0714 13.0674 14.0443 12.9142 14.0452C12.9584 14.0358 13.0027 14.0265 13.047 14.0171C13.0192 14.0094 12.9914 14.0017 12.9636 13.994C12.9624 13.994 12.961 13.994 12.9597 13.994L12.8458 14.0846C12.8325 14.0499 12.8187 14.015 12.8054 13.9802C12.7852 14.018 12.7651 14.0562 12.7449 14.094C12.7686 13.8334 12.6256 13.9874 12.672 14.1371C12.5984 14.0831 12.5248 14.0292 12.4513 13.9752C12.4616 13.6786 12.2897 13.9408 12.3041 14.1021C12.2957 14.1019 12.2872 14.1017 12.2788 14.1015C12.205 14.0227 12.1375 14.0868 12.0476 14.034C11.9578 13.9811 11.9662 13.9523 11.9389 13.8158C11.9178 13.8237 11.8963 13.8318 11.8751 13.8396C11.7642 14.2131 11.7838 13.566 11.5939 13.8527C11.5331 13.6177 11.3832 13.7415 11.284 13.8127C11.2728 13.8216 11.2723 13.8661 11.2573 13.8802C11.2197 13.9141 11.1238 13.8556 11.1271 14.0027C11.0939 13.9602 11.0606 13.9177 11.0274 13.8752C11.0004 13.9019 10.9732 13.9285 10.9461 13.9552C10.9462 14.0012 10.9459 14.0474 10.9461 14.0933C10.8914 13.9368 10.8055 13.9964 10.7631 13.959C10.7549 13.9505 10.7526 13.888 10.7267 13.8708C10.696 13.8505 10.6387 13.8694 10.6023 13.8496C10.5881 13.9197 10.5742 13.9901 10.56 14.0602C10.4949 14.098 10.4719 13.9132 10.4337 13.8983C10.4268 13.8958 10.3005 13.9094 10.2937 13.9133C10.2384 13.9449 10.2537 14.1021 10.0932 14.0683C10.0647 14.0619 10.0415 14.008 10.0157 14.0058C9.96995 14.0021 9.83253 14.1259 9.82172 14.2402C9.76632 14.097 9.61798 14.1554 9.57432 14.114C9.5612 14.101 9.55811 14.0102 9.51768 13.9908C9.48488 13.975 9.40051 14.0479 9.35883 14.0358C9.31463 14.0225 9.29856 13.9456 9.27875 13.9402C9.26013 13.9358 9.24294 13.9968 9.21755 13.9965C9.13797 13.9943 9.06561 13.8952 9.00271 13.8933C8.91184 13.8908 8.83136 14.0733 8.75531 14.1546C8.73649 14.1426 8.71776 14.1037 8.69802 14.1033C8.45307 14.0976 8.17677 14.0638 7.9311 14.0246C7.817 14.0066 7.5331 13.7578 7.60883 14.1727C7.56903 14.2452 7.28084 14.0777 7.22602 14.0752C7.17125 14.0728 7.1278 14.1472 7.08474 14.1483C6.95469 14.1516 6.86283 14.0979 6.70453 14.1627C6.66369 14.1798 6.62 14.2681 6.59581 14.2671C6.56666 14.2655 6.53525 14.18 6.4975 14.1746C6.40742 14.1624 6.23947 14.1906 6.1531 14.1758C6.13746 14.1724 6.13196 14.0979 6.10948 14.0746C6.02165 13.9833 5.92283 13.9914 5.94021 14.2302C5.82766 14.0948 5.72356 14.2183 5.61925 14.2258C5.3987 14.2413 4.99714 14.1857 4.80479 14.2858C4.68359 14.3492 4.68637 14.4565 4.50792 14.364C4.46836 14.3435 4.42893 14.3159 4.38096 14.2915C4.26834 14.2339 4.16472 14.036 4.07888 14.2746C3.95391 14.2128 3.85456 14.2563 3.76182 14.0527C3.75092 14.1015 3.73953 14.1502 3.72862 14.199C3.71331 14.2002 3.69771 14.2015 3.6824 14.2027C3.67762 14.1561 3.67285 14.1093 3.66807 14.0627C3.55832 14.0505 3.41918 14.242 3.32628 14.2408C3.17037 14.2387 2.76839 14.1638 2.62055 14.1008C2.54235 14.0678 2.53782 14.1673 2.49294 13.9621C2.47544 13.9764 2.45772 13.991 2.44021 14.0052C2.42925 14.0501 2.41862 14.0953 2.40766 14.1402C2.30696 14.142 2.18718 14.072 2.09125 14.0727C1.91645 14.0743 1.65408 14.1978 1.47862 14.1165C1.43468 14.096 1.37975 14.0032 1.33669 14.004C1.27402 14.0054 1.25856 14.1596 1.17914 14.1627C1.04194 14.1674 0.786037 13.9884 0.656355 14.0021C0.618042 14.0062 0.600131 14.0633 0.573673 14.0696C0.46215 14.0959 0.370063 14.0911 0.263126 14.1796C0.148465 14.0321 0.158656 13.8416 0.123152 13.6496C0.0961842 13.5045 0.013146 13.1679 0.00140732 13.0408C-0.00679338 12.9516 0.0240237 12.8366 0.012475 12.7383C0.149963 12.66 0.208099 12.7464 0.319767 12.8846C0.525927 12.8791 0.732096 12.8739 0.938256 12.8683C0.957021 12.922 0.976133 12.976 0.994897 13.0296C1.07402 13.0912 1.10779 12.9534 1.1505 12.9221C1.55949 12.622 2.36423 12.8563 2.81456 12.8902C2.91159 12.8974 3.22713 12.8256 3.29373 12.9127C3.31087 12.9353 3.31598 13.0171 3.33409 13.0215C3.49785 12.9723 3.66186 12.9231 3.82563 12.874C4.16258 13.0025 4.5115 12.8963 4.85102 12.8765C5.76946 12.8228 6.67873 12.7579 7.58214 12.7777C7.75667 12.7817 7.97827 12.7198 8.14919 12.7596C8.22054 12.7762 8.25078 12.9086 8.34451 12.8096C8.34549 12.8453 8.34613 12.8814 8.34711 12.9171C8.4289 12.8739 8.48133 12.7929 8.57302 12.7846C8.65019 12.7778 8.85424 12.7722 8.92263 12.7858C8.95802 12.7927 8.945 12.8593 8.97797 12.859C9.03447 12.8579 9.15522 12.7659 9.23318 12.7658C9.3038 12.7659 9.42303 12.8426 9.47732 12.8315C9.67274 12.7918 9.88561 12.6778 10.0939 12.7083C10.1514 12.717 10.2255 12.8037 10.2436 12.8015C10.2788 12.7964 10.2896 12.7123 10.3133 12.7015C10.4334 12.6469 10.6207 12.7469 10.7384 12.7508C11.122 12.7638 11.5283 12.7266 11.9103 12.7421C12.1455 12.7516 12.5328 12.7379 12.7586 12.7958C12.7552 12.7931 12.7518 12.79 12.7475 12.7871C12.73 12.7755 12.6388 12.7634 12.6388 12.7565C12.6403 12.7482 12.7295 12.7391 12.7351 12.7283C12.7477 12.7027 12.7185 12.6548 12.7338 12.6302C12.7387 12.6259 12.8152 12.6241 12.8393 12.6177C12.9342 12.5928 12.9258 12.5653 12.6772 12.5702C12.8185 12.5382 12.6896 12.508 12.6817 12.4783C12.6658 12.4156 12.7233 12.3018 12.6192 12.2471C12.5533 12.2126 12.4415 12.2135 12.5379 12.1627C12.5592 12.1515 12.5879 12.1401 12.6134 12.1265C12.6734 12.0944 12.8795 12.0646 12.631 12.0402C12.6954 12.0047 12.6499 11.9766 12.8621 11.9502C12.8113 11.9471 12.7605 11.9439 12.7097 11.9408C12.7085 11.9365 12.7071 11.9321 12.7058 11.9277C12.7544 11.9264 12.8031 11.9247 12.8517 11.9233C12.8634 11.8922 12.6656 11.8528 12.6661 11.8265C12.6684 11.7821 12.7463 11.6679 12.812 11.6258C12.8466 11.6036 12.7426 11.6024 12.9565 11.5896C12.9416 11.5846 12.9265 11.5796 12.9116 11.5746L12.7709 11.5652C12.7691 11.5366 12.8418 11.5025 12.8413 11.4752C12.8398 11.4255 12.7109 11.3508 12.7957 11.3008C12.8171 11.2883 12.914 11.2725 12.9129 11.2602C12.9108 11.2425 12.7505 11.2378 12.7475 11.2152C12.7437 11.1762 12.9286 11.1039 12.9148 11.0671C12.9107 11.0561 12.8509 11.0509 12.8445 11.0433C12.8172 11.0117 12.8221 10.9856 12.7299 10.9552C12.8836 10.9226 13.0819 10.9253 13.282 10.9152C13.4331 10.9076 13.7838 10.8842 13.9161 10.8808ZM12.7482 15.0383C12.7278 15.0417 12.7672 15.0574 12.812 15.0583C12.9852 15.062 12.8411 15.0239 12.7482 15.0383ZM14.6896 14.1008C14.7024 13.9346 14.5673 14.0728 14.6179 14.1621C14.6296 14.1817 14.6862 14.1438 14.6896 14.1008ZM8.37055 13.8121C8.37178 13.8596 8.37257 13.9071 8.3738 13.9546C8.39151 13.9348 8.40948 13.915 8.42719 13.8952C8.41724 13.8667 8.40719 13.8381 8.39724 13.8096C8.38834 13.8104 8.37945 13.8113 8.37055 13.8121ZM13.0437 13.9233C12.9931 13.9306 12.963 13.8408 12.9604 13.9408C12.9719 13.9387 13.0342 13.9387 13.0515 13.9315C13.0609 13.9276 13.0615 13.9221 13.062 13.9165C13.0558 13.9193 13.0501 13.9224 13.0437 13.9233ZM4.58279 5.12085C4.67575 5.11852 4.79559 5.12726 4.89789 5.12397C4.97901 5.16297 4.8892 5.17915 4.74555 5.21085C4.75128 5.26951 4.75674 5.32844 4.76248 5.3871C4.70664 5.39244 4.65034 5.39801 4.59451 5.40335C4.53061 5.42578 4.67335 5.435 4.70649 5.4471C5.01915 5.56343 4.77498 5.79275 4.73969 5.92085C4.73219 5.94845 4.80699 6.03816 4.71625 6.0571C4.69266 6.06192 4.60853 6.06329 4.60297 6.06835C4.65418 6.11494 4.7054 6.16176 4.75662 6.20835C4.62276 6.30419 4.73339 6.40365 4.75401 6.50022C4.80237 6.72635 4.85898 6.95053 4.86013 7.17335C5.03014 7.16509 5.20097 7.12771 5.36925 7.11647C6.1729 7.06285 6.96872 6.99795 7.75922 7.01772C7.91201 7.02168 8.10638 6.95965 8.25597 6.9996C8.31827 7.01636 8.3446 7.14849 8.42654 7.0496C8.4274 7.08534 8.42828 7.12136 8.42914 7.1571C8.50055 7.11386 8.54628 7.03288 8.62641 7.0246C8.69396 7.01776 8.87263 7.01219 8.9324 7.02585C8.9633 7.03267 8.95193 7.09903 8.98057 7.09897C9.02997 7.0979 9.13566 7.00598 9.20388 7.00585C9.26565 7.00585 9.3699 7.08258 9.41742 7.07147C9.58847 7.03189 9.77485 6.91783 9.95714 6.94835C10.0073 6.95697 10.0719 7.04315 10.088 7.04147C10.1186 7.03646 10.1281 6.95304 10.1485 6.94147C10.2537 6.88677 10.4179 6.98688 10.5209 6.99085C10.8567 7.0038 11.2127 6.96662 11.547 6.9821C11.7582 6.99179 12.1092 6.97691 12.3041 7.04022C12.346 7.05406 12.3348 7.14626 12.3699 7.14647C12.409 7.14645 12.4304 7.08401 12.4487 7.07897C12.5753 7.0437 12.8552 6.9809 12.9747 7.0446C12.9974 7.05723 13.0139 7.12924 13.0274 7.12897C13.0344 7.12867 13.0501 7.07963 13.0717 7.0746C13.263 7.03001 13.4025 7.05831 13.5899 7.07522C13.9489 7.10722 14.3652 7.01556 14.7423 7.06522C14.8242 7.07631 14.8804 7.21887 14.892 7.21772C14.9174 7.21484 14.9338 7.11835 14.9851 7.0946C15.1559 7.0167 15.3859 7.11967 15.5483 7.07147C15.6285 7.04769 15.7389 6.92536 15.8178 6.89835C15.881 6.8769 16.0295 6.9244 16.0574 6.87085C16.0744 6.83836 16.0826 6.73448 16.103 6.72147C16.1217 6.71049 16.148 6.77228 16.17 6.77585C16.2628 6.79025 16.2977 6.83325 16.3816 6.85772C16.5063 6.89387 16.875 6.81258 16.8751 7.2446C16.8751 7.24884 16.8752 7.25338 16.8751 7.25772C16.8738 7.34011 16.842 7.43018 16.8373 7.52335C16.8327 7.61708 16.8364 8.21828 16.7918 8.2521C16.7271 8.2966 16.5717 8.14214 16.5372 8.14897C16.5137 8.15393 16.4846 8.20866 16.4545 8.21835C16.3574 8.24959 16.3064 8.20979 16.2189 8.35835C16.1838 8.28007 16.1491 8.20163 16.114 8.12335C16.0683 8.15966 15.9986 8.05641 15.9708 8.0621C15.9481 8.06702 15.9346 8.1286 15.9109 8.13147C15.8843 8.13483 15.8434 8.0683 15.795 8.07835C15.7156 8.09455 15.7014 8.25591 15.6538 8.27647C15.6043 8.29771 15.5274 8.21025 15.4643 8.2671C15.4564 8.28478 15.4487 8.30254 15.4409 8.32022C15.4465 8.3604 15.4521 8.40067 15.4578 8.44085C15.426 8.45956 15.4121 8.37734 15.3829 8.37585C15.3487 8.37424 15.3311 8.45183 15.308 8.45147C15.2891 8.45106 15.2636 8.38896 15.239 8.39272C15.2032 8.39812 15.2108 8.48831 15.1915 8.50522C15.1828 8.51211 15.0421 8.56196 15.034 8.56272C14.973 8.56629 14.9673 8.4423 14.9187 8.43147C14.784 8.40216 14.6456 8.50183 14.5209 8.5396C14.4653 8.55645 14.4071 8.54938 14.3517 8.5296C14.4391 8.21286 14.2454 7.96647 14.3178 8.4621C14.2561 8.39177 14.2123 8.52534 14.1538 8.50272C14.116 8.48785 14.0898 8.41917 14.0359 8.42085C13.94 8.42448 13.835 8.61986 13.8074 8.2671C13.6947 8.32934 13.5967 8.20103 13.5561 8.51272C13.5269 8.53079 13.4525 8.34601 13.42 8.32085C13.3885 8.29695 13.1541 8.21337 13.1147 8.20835C13.076 8.20367 13.0079 8.19913 12.9754 8.22647C12.9345 8.26099 12.9056 8.58269 12.8328 8.20522C12.7483 8.23571 12.718 8.22526 12.6394 8.18147C12.6253 8.17361 12.6235 8.11822 12.6153 8.1171C12.5982 8.1171 12.5685 8.15829 12.5379 8.16335C12.4876 8.17137 12.4587 8.05413 12.4643 8.23397C12.4311 8.26419 12.3979 8.29439 12.3647 8.3246C12.3531 8.2899 12.3418 8.25493 12.3302 8.22022C12.3125 8.25805 12.2945 8.29615 12.2768 8.33397C12.2975 8.07344 12.1724 8.22742 12.213 8.3771C12.1486 8.32312 12.084 8.26921 12.0196 8.21522C12.0286 7.91867 11.8781 8.18084 11.8907 8.3421C11.8836 8.34187 11.8764 8.3417 11.8692 8.34147C11.8047 8.26267 11.7454 8.32679 11.6668 8.27397C11.5881 8.22107 11.595 8.19227 11.5711 8.05585C11.5526 8.06363 11.5342 8.07182 11.5157 8.0796C11.4187 8.45308 11.4359 7.80595 11.2696 8.09272C11.2165 7.8577 11.0856 7.98146 10.9988 8.05272C10.9888 8.06124 10.9881 8.10621 10.9747 8.12022C10.9418 8.15397 10.8579 8.09564 10.8608 8.24272C10.8318 8.20019 10.8026 8.15776 10.7735 8.11522C10.7499 8.14188 10.7262 8.16857 10.7026 8.19522C10.7027 8.24116 10.7031 8.28741 10.7032 8.33335C10.6554 8.17679 10.5801 8.23641 10.5431 8.19897C10.5358 8.19109 10.534 8.12812 10.5112 8.11085C10.4844 8.09037 10.4344 8.10921 10.4024 8.0896C10.39 8.15976 10.3777 8.23007 10.3653 8.30022C10.3082 8.3383 10.2876 8.15274 10.254 8.13835C10.2454 8.13629 10.1382 8.14944 10.1323 8.15335C10.0837 8.1847 10.097 8.34216 9.95649 8.30835C9.93161 8.30182 9.91129 8.24803 9.88878 8.24585C9.84872 8.24209 9.72832 8.36585 9.71886 8.48022C9.67039 8.33699 9.54094 8.39532 9.50271 8.35397C9.49121 8.34127 9.48846 8.25053 9.45323 8.23085C9.42451 8.21502 9.35035 8.28801 9.31391 8.27585C9.27531 8.26256 9.26153 8.18591 9.24425 8.18022C9.22787 8.17519 9.21252 8.23683 9.19021 8.23647C9.12068 8.23415 9.05768 8.13529 9.00271 8.13335C8.9231 8.13047 8.85252 8.31325 8.78591 8.3946C8.76944 8.38257 8.75305 8.34371 8.73578 8.34335C8.52141 8.33757 8.27955 8.30382 8.06456 8.2646C7.96469 8.24652 7.7164 7.99783 7.78266 8.41272C7.74782 8.48506 7.4964 8.31812 7.44802 8.31522C7.40014 8.31273 7.36197 8.38699 7.32432 8.38835C7.21054 8.39159 7.13013 8.33797 6.99164 8.40272C6.95597 8.41961 6.91781 8.50761 6.89659 8.5071C6.87113 8.50566 6.84361 8.42036 6.81065 8.4146C6.73188 8.40237 6.58484 8.43057 6.50922 8.41585C6.49542 8.41297 6.49055 8.338 6.47081 8.3146C6.39396 8.22329 6.30781 8.23139 6.32302 8.47022C6.22449 8.33457 6.13308 8.45827 6.04177 8.46585C5.84869 8.48129 5.49707 8.42551 5.32888 8.52585C5.22286 8.58918 5.22576 8.69631 5.06977 8.60397C5.03514 8.58348 5.00042 8.55593 4.95844 8.53147C4.93674 8.5188 4.91547 8.49911 4.89464 8.47897C4.89399 8.48867 4.89541 8.49875 4.89399 8.50835C4.88396 8.57694 4.89903 8.69061 4.83344 8.75397C4.81919 8.76764 4.72276 8.76437 4.72276 8.77585C4.72324 8.78849 4.78784 8.79555 4.79307 8.80147C4.82985 8.84272 4.89516 8.93328 4.82888 8.9721C4.81604 8.97949 4.74072 8.98517 4.74099 8.9896C4.74214 8.99188 4.79244 8.99701 4.79763 9.00397C4.84404 9.06609 4.81461 9.11126 4.79698 9.1721C4.76361 9.28881 4.85913 9.42449 4.8074 9.5471C4.79544 9.5737 4.64705 9.5921 4.64854 9.59585C4.65313 9.60397 4.75226 9.60929 4.7768 9.62585C4.85768 9.68132 4.75087 9.75623 4.80089 9.80897C4.82563 9.83506 4.95308 9.8708 4.98123 9.89647C5.00368 9.91698 4.95405 9.96551 5.00987 9.9746C5.04387 9.9801 5.15194 9.98237 5.16547 9.98897C5.17717 9.99504 5.11284 10.0037 5.10883 10.0108C5.09384 10.041 5.04905 10.0523 5.02354 10.0796C4.98568 10.12 5.07092 10.2402 4.62055 10.2402C4.61613 10.2402 4.6114 10.2402 4.60688 10.2402C4.52106 10.2398 4.42723 10.2299 4.33018 10.2283C4.23268 10.2268 3.6072 10.2278 3.57107 10.2133C3.52462 10.1923 3.68561 10.1414 3.67849 10.1302C3.67335 10.1226 3.61632 10.1131 3.60623 10.1033C3.57379 10.0718 3.61505 10.0556 3.46039 10.0271C3.54197 10.0157 3.62361 10.0041 3.70518 9.99272C3.66757 9.97792 3.77401 9.95557 3.76899 9.94647C3.76416 9.93914 3.70095 9.93467 3.69672 9.9271C3.69299 9.91844 3.76255 9.90473 3.75206 9.88897C3.73482 9.86331 3.56771 9.85873 3.54568 9.84335C3.52356 9.82728 3.61467 9.80198 3.55544 9.78147C3.53701 9.77891 3.51854 9.77653 3.50011 9.77397C3.45824 9.77582 3.41632 9.77776 3.37445 9.7796C3.35502 9.7693 3.44016 9.76466 3.44216 9.75522C3.44403 9.74408 3.36326 9.73835 3.36339 9.73085C3.36377 9.7247 3.42867 9.71633 3.42458 9.70835C3.4186 9.6968 3.32498 9.69897 3.3074 9.69272C3.30024 9.68991 3.24825 9.64407 3.2475 9.64147C3.24493 9.62197 3.37209 9.62016 3.38422 9.6046C3.41492 9.56083 3.31109 9.51572 3.27159 9.47522C3.25402 9.45716 3.26149 9.43824 3.28201 9.42022C3.61192 9.44864 3.86857 9.38545 3.35232 9.40897C3.42561 9.38894 3.28717 9.37483 3.31 9.35585C3.32537 9.34354 3.39716 9.33468 3.39529 9.3171C3.39108 9.28593 3.18835 9.2517 3.55544 9.24272C3.49122 9.20616 3.6238 9.17466 3.29958 9.16147C3.27975 9.15203 3.47318 9.12769 3.49945 9.1171C3.52429 9.10697 3.61177 9.03029 3.61664 9.01772C3.62151 9.00514 3.6262 8.9833 3.59776 8.97272C3.56167 8.95945 3.22679 8.95013 3.6199 8.92647C3.5881 8.89898 3.5991 8.88886 3.64464 8.86335C3.65291 8.85871 3.71164 8.85793 3.71169 8.85522C3.71092 8.84963 3.66879 8.84009 3.66352 8.83022C3.6549 8.81385 3.77748 8.80466 3.58995 8.80647C3.55854 8.7957 3.52696 8.78475 3.49555 8.77397C3.5317 8.7702 3.56812 8.7665 3.60427 8.76272C3.56485 8.75696 3.5252 8.75099 3.48578 8.74522C3.75719 8.75197 3.59678 8.71141 3.44086 8.7246C3.49702 8.70369 3.55332 8.68301 3.60948 8.6621C3.91841 8.66502 3.6453 8.61611 3.47732 8.62022C3.47756 8.61783 3.47773 8.61512 3.47797 8.61272C3.56008 8.59175 3.49317 8.57266 3.54828 8.5471C3.60332 8.52159 3.63349 8.52362 3.7755 8.51585C3.76738 8.50985 3.75887 8.50435 3.75076 8.49835C3.46452 8.47514 3.7534 8.47114 3.8074 8.4496C3.66155 8.42165 3.49763 8.37959 3.41807 8.34085C3.3496 8.3077 3.34601 8.40733 3.30675 8.2021C3.29139 8.2164 3.27588 8.23093 3.26052 8.24522C3.25093 8.29015 3.24147 8.3353 3.23188 8.38022C3.14381 8.38202 3.0391 8.31208 2.95518 8.31272C2.80223 8.31416 2.57232 8.43782 2.41873 8.35647C2.38023 8.33585 2.33206 8.24293 2.29438 8.24397C2.23955 8.24555 2.22598 8.39985 2.15636 8.40272C2.03625 8.40718 1.81273 8.22843 1.69932 8.2421C1.66583 8.2462 1.65018 8.30319 1.62706 8.3096C1.52948 8.33587 1.44913 8.33108 1.35557 8.4196C1.25515 8.27209 1.26361 8.08171 1.23253 7.8896C1.20893 7.74453 1.13668 7.4079 1.12641 7.28085C1.11923 7.1916 1.14628 7.07656 1.13617 6.97835C1.25628 6.90025 1.30684 6.98662 1.4044 7.1246C1.58487 7.11909 1.7656 7.11386 1.94607 7.10835C1.96248 7.16196 1.97913 7.21599 1.99555 7.2696C2.06476 7.33122 2.09427 7.19349 2.13162 7.1621C2.44669 6.89783 3.03036 7.04735 3.43435 7.11022C3.4454 7.08482 3.46538 7.06128 3.41417 7.0271C3.39662 7.01554 3.30544 7.00339 3.30544 6.99647C3.30694 6.98818 3.39616 6.9791 3.4018 6.96835C3.41437 6.9427 3.38516 6.89475 3.4005 6.87022C3.40536 6.86587 3.48191 6.86406 3.50596 6.85772C3.60089 6.83275 3.59248 6.80528 3.34386 6.81022C3.48516 6.77819 3.35631 6.74803 3.34841 6.71835C3.33247 6.65561 3.38996 6.54179 3.28591 6.4871C3.21992 6.45262 3.10818 6.45349 3.20453 6.40272C3.22588 6.39147 3.25458 6.38012 3.28005 6.36647C3.34004 6.33444 3.5462 6.30464 3.29763 6.28022C3.36203 6.24467 3.31656 6.21661 3.52875 6.19022C3.47797 6.18713 3.42719 6.18395 3.37641 6.18085C3.37515 6.1765 3.37376 6.17207 3.3725 6.16772C3.42107 6.16637 3.46977 6.16471 3.51833 6.16335C3.53002 6.13222 3.33225 6.09284 3.33279 6.06647C3.33504 6.02213 3.41301 5.9079 3.47862 5.86585C3.51327 5.84357 3.40926 5.84237 3.62315 5.8296C3.60826 5.82461 3.59312 5.81959 3.57823 5.8146L3.43761 5.80522C3.43573 5.77662 3.50845 5.74249 3.50792 5.71522C3.50642 5.6655 3.37761 5.59078 3.46234 5.54085C3.48374 5.52833 3.58062 5.51248 3.57953 5.50022C3.57745 5.48246 3.41716 5.47783 3.41417 5.45522C3.41034 5.41617 3.59524 5.34392 3.58149 5.3071C3.57736 5.29614 3.51755 5.29091 3.51117 5.28335C3.48386 5.25166 3.48875 5.22562 3.39659 5.19522C3.55024 5.16258 3.74856 5.16533 3.94867 5.15522C4.09979 5.14755 4.45044 5.12419 4.58279 5.12085ZM3.41482 9.27835C3.39448 9.28168 3.4339 9.29738 3.47862 9.29835C3.65184 9.302 3.5078 9.26395 3.41482 9.27835ZM13.978 8.34085C13.9892 8.17455 13.8712 8.31283 13.9155 8.4021C13.9256 8.4219 13.975 8.38387 13.978 8.34085ZM8.44932 8.0521C8.45041 8.09955 8.4515 8.14715 8.45258 8.1946C8.46806 8.17486 8.48332 8.15496 8.4988 8.13522C8.4901 8.10671 8.48146 8.07811 8.47276 8.0496C8.46498 8.05041 8.45711 8.05129 8.44932 8.0521ZM13.3536 0.000849343C13.4466 -0.00119295 13.5664 0.00622384 13.6687 0.00334934C13.75 0.0374928 13.6601 0.0518521 13.5164 0.0795993C13.5221 0.130943 13.5276 0.182631 13.5333 0.233974C13.4775 0.238642 13.4212 0.243057 13.3653 0.247724C13.3012 0.267389 13.4443 0.275872 13.4773 0.286474C13.79 0.38828 13.5458 0.588772 13.5105 0.700849C13.5031 0.725016 13.5778 0.803656 13.4871 0.820224C13.4631 0.824483 13.3775 0.825674 13.3738 0.830224C13.425 0.870979 13.4763 0.91197 13.5274 0.952724C13.3938 1.03656 13.5042 1.12325 13.5248 1.20772C13.5807 1.43619 13.6483 1.66237 13.6277 1.8871C13.6256 1.90969 13.6414 1.93598 13.6518 1.96147C13.9788 1.96119 14.3369 1.90336 14.6661 1.94522C14.7507 1.95627 14.8087 2.0978 14.8211 2.09772C14.8473 2.09484 14.8642 1.99836 14.9174 1.9746C15.0942 1.89656 15.3326 1.99963 15.5008 1.95147C15.5839 1.92772 15.6983 1.80536 15.7801 1.77835C15.8455 1.7569 15.9992 1.8044 16.0281 1.75085C16.0457 1.71847 16.054 1.61478 16.075 1.60147C16.0944 1.58996 16.1224 1.65257 16.1453 1.65585C16.2411 1.67027 16.2767 1.71326 16.3634 1.73772C16.4923 1.77408 16.875 1.69225 16.8751 2.1246C16.8751 2.12884 16.8752 2.13338 16.8751 2.13772C16.8738 2.22011 16.8409 2.31018 16.836 2.40335C16.8312 2.49695 16.8352 3.09677 16.7892 3.1321C16.7223 3.17663 16.5615 3.02256 16.5255 3.02897C16.5011 3.03369 16.4708 3.08863 16.4396 3.09835C16.3389 3.12961 16.2861 3.08977 16.1954 3.23835C16.1591 3.16005 16.123 3.08165 16.0867 3.00335C16.0395 3.03957 15.9678 2.937 15.9389 2.9421C15.9153 2.94678 15.901 3.00859 15.8764 3.01147C15.8488 3.0147 15.8066 2.94846 15.7566 2.95835C15.6743 2.97454 15.6595 3.13591 15.6101 3.15647C15.5589 3.17771 15.4795 3.09025 15.4142 3.1471C15.406 3.16483 15.3976 3.18249 15.3894 3.20022C15.3953 3.24041 15.4011 3.28066 15.407 3.32085C15.3741 3.33942 15.3597 3.25734 15.3295 3.25585C15.2941 3.25438 15.2759 3.33183 15.2521 3.33147C15.2325 3.33101 15.2058 3.2688 15.1804 3.27272C15.1435 3.27822 15.1515 3.36824 15.1316 3.38522C15.1237 3.39179 14.9767 3.44195 14.9682 3.44272C14.9051 3.44629 14.8994 3.3223 14.8491 3.31147C14.7095 3.28203 14.5661 3.38181 14.437 3.4196C14.3793 3.43647 14.3193 3.42936 14.2618 3.4096C14.3524 3.09288 14.1517 2.8465 14.2267 3.3421C14.1627 3.27159 14.1174 3.40535 14.0567 3.38272C14.0175 3.36796 13.9904 3.29905 13.9344 3.30085C13.835 3.30451 13.726 3.49988 13.6974 3.1471C13.6689 3.1622 13.6413 3.16544 13.6153 3.1671C13.6116 3.17127 13.6088 3.17644 13.6043 3.18022C13.5937 3.18908 13.5379 3.18896 13.5099 3.19272C13.5062 3.19578 13.5036 3.20004 13.5001 3.20397C13.5163 3.2115 13.5591 3.21666 13.5639 3.22085C13.6007 3.25687 13.6661 3.33684 13.5997 3.37085C13.5866 3.37729 13.5116 3.38198 13.5118 3.38585C13.5124 3.38782 13.5628 3.39227 13.5685 3.39835C13.615 3.45277 13.5854 3.49253 13.5678 3.54585C13.5345 3.64792 13.6298 3.76612 13.5782 3.87335C13.5672 3.89627 13.4235 3.91215 13.4194 3.91585C13.4224 3.92306 13.5229 3.92812 13.5476 3.94272C13.6284 3.99122 13.522 4.05659 13.5717 4.10272C13.5965 4.12555 13.7239 4.15714 13.7521 4.1796C13.7743 4.19758 13.7249 4.23979 13.7807 4.24772C13.8147 4.25254 13.9228 4.25507 13.9363 4.26085C13.947 4.26617 13.8832 4.27335 13.8797 4.2796C13.8647 4.30596 13.8199 4.31577 13.7944 4.3396C13.7565 4.37499 13.8417 4.4802 13.3914 4.48022C13.387 4.48022 13.3822 4.48024 13.3777 4.48022C13.2919 4.47985 13.1981 4.47093 13.101 4.4696C13.0034 4.46828 12.3771 4.46916 12.3419 4.45647C12.2955 4.43807 12.4564 4.39379 12.4493 4.38397C12.4443 4.37729 12.3875 4.36938 12.3771 4.36085C12.3444 4.33319 12.386 4.31827 12.2312 4.29335C12.3128 4.28338 12.3945 4.27394 12.476 4.26397C12.4385 4.25109 12.5437 4.23139 12.5398 4.22335C12.5349 4.21687 12.4706 4.21261 12.4676 4.20585C12.4646 4.19827 12.5333 4.18644 12.5229 4.17272C12.5052 4.15031 12.338 4.14622 12.3165 4.13272C12.2944 4.11866 12.3855 4.09692 12.3263 4.07897C12.3078 4.07673 12.2894 4.07434 12.2709 4.0721C12.2291 4.07371 12.1872 4.07549 12.1453 4.0771C12.126 4.0681 12.2109 4.06409 12.213 4.05585C12.2149 4.04614 12.1348 4.04111 12.1342 4.0346C12.1346 4.02921 12.1995 4.02158 12.1954 4.0146C12.1883 4.00473 12.0958 4.00689 12.0782 4.00147C12.0714 3.99929 12.0191 3.95875 12.0183 3.95647C12.0151 3.93926 12.1432 3.93767 12.1551 3.92397C12.1858 3.88568 12.0819 3.84628 12.0424 3.81085C12.0248 3.79504 12.0323 3.77849 12.0528 3.76272C12.3828 3.78759 12.6394 3.73214 12.1232 3.75272C12.1964 3.7352 12.0581 3.72307 12.0808 3.70647C12.0962 3.69573 12.1675 3.68801 12.1661 3.67272C12.1623 3.64543 11.9588 3.61558 12.3263 3.60772C12.2617 3.5757 12.3949 3.54802 12.0704 3.53647C12.0506 3.52821 12.244 3.50699 12.2703 3.49772C12.295 3.48896 12.3826 3.42123 12.3875 3.41022C12.3923 3.39917 12.3968 3.38002 12.3686 3.37085C12.3319 3.35926 11.9981 3.3509 12.3907 3.33022C12.359 3.30617 12.3699 3.29757 12.4155 3.27522C12.4237 3.27117 12.4825 3.27072 12.4825 3.26835C12.4818 3.26346 12.4397 3.25509 12.4344 3.24647C12.4257 3.23214 12.5483 3.22426 12.3608 3.22585C12.3294 3.21642 12.2978 3.20653 12.2664 3.1971C12.3025 3.19379 12.339 3.1904 12.3751 3.1871C12.3357 3.18206 12.296 3.17714 12.2566 3.1721C12.4988 3.17737 12.3973 3.15119 12.2618 3.15335C12.2425 3.17037 12.2233 3.18758 12.2039 3.2046C12.1918 3.16987 12.1795 3.13495 12.1674 3.10022C12.149 3.13811 12.1305 3.17609 12.1121 3.21397C12.1336 2.95339 12.0043 3.10742 12.0463 3.2571C11.9797 3.20317 11.9131 3.14916 11.8465 3.09522C11.8558 2.79866 11.6999 3.06084 11.713 3.2221C11.7054 3.22187 11.6978 3.22171 11.6902 3.22147C11.6234 3.14265 11.562 3.20689 11.4806 3.15397C11.3992 3.10108 11.4064 3.07225 11.3816 2.93585C11.3625 2.94363 11.3434 2.95182 11.3243 2.9596C11.2238 3.33308 11.2413 2.68591 11.0691 2.97272C11.0141 2.73782 10.8791 2.86146 10.7892 2.93272C10.7787 2.94097 10.7782 2.98596 10.7644 3.00022C10.7304 3.03405 10.643 2.97559 10.6459 3.12272C10.6159 3.08027 10.5861 3.03768 10.5561 2.99522C10.5315 3.02197 10.5065 3.04848 10.4819 3.07522C10.482 3.12116 10.4824 3.16741 10.4825 3.21335C10.433 3.05678 10.3549 3.11641 10.3165 3.07897C10.3091 3.0703 10.3074 3.00804 10.284 2.99085C10.2563 2.97038 10.2044 2.98918 10.1713 2.9696C10.1585 3.03976 10.1451 3.11006 10.1323 3.18022C10.0733 3.21756 10.0524 3.03272 10.0177 3.01835C10.0097 3.01612 9.89748 3.02942 9.89138 3.03335C9.8411 3.06476 9.85527 3.22215 9.70974 3.18835C9.68385 3.18221 9.66283 3.12814 9.63943 3.12585C9.59804 3.12189 9.47345 3.24576 9.46365 3.36022C9.41351 3.21715 9.27944 3.27506 9.23969 3.23397C9.22778 3.22128 9.22468 3.1306 9.18826 3.11085C9.1585 3.09501 9.08146 3.16808 9.04373 3.15585C9.00373 3.14245 8.9894 3.06564 8.97146 3.06022C8.9546 3.05556 8.93906 3.11648 8.91612 3.11647C8.84399 3.11432 8.77847 3.01519 8.72146 3.01335C8.63908 3.01047 8.56643 3.19314 8.4975 3.2746C8.48042 3.26275 8.46333 3.22388 8.44542 3.22335C8.2234 3.21759 7.9728 3.18382 7.75011 3.1446C7.6467 3.12658 7.38916 2.87777 7.45779 3.29272C7.42162 3.36487 7.16176 3.19832 7.11143 3.19522C7.06182 3.19273 7.02218 3.26705 6.98318 3.26835C6.86536 3.27159 6.78215 3.21803 6.63878 3.28272C6.60173 3.29966 6.56176 3.38812 6.53982 3.3871C6.51345 3.38525 6.48478 3.3 6.45063 3.2946C6.36893 3.28249 6.21697 3.31058 6.13878 3.29585C6.12459 3.29249 6.11944 3.21792 6.09906 3.1946C6.01949 3.10336 5.93032 3.11146 5.94607 3.35022C5.84405 3.21465 5.7496 3.33824 5.65505 3.34585C5.45518 3.36132 5.09108 3.30563 4.91677 3.40585C4.80693 3.4692 4.80962 3.57647 4.64789 3.48397C4.612 3.46346 4.57619 3.43594 4.53266 3.41147C4.43059 3.35388 4.33701 3.15598 4.25922 3.3946C4.14592 3.33274 4.05553 3.37648 3.97146 3.17272C3.96158 3.22149 3.95139 3.27021 3.94151 3.31897C3.92765 3.32018 3.9137 3.32152 3.89984 3.32272C3.89551 3.27611 3.89115 3.22934 3.88682 3.18272C3.78733 3.17037 3.66116 3.36208 3.57693 3.36085C3.43563 3.35869 3.07159 3.28384 2.93761 3.22085C2.86657 3.18754 2.86242 3.28752 2.82172 3.0821C2.80585 3.09636 2.79006 3.11097 2.77419 3.12522C2.76426 3.17014 2.75418 3.21531 2.74425 3.26022C2.65301 3.26197 2.54469 3.19201 2.45779 3.19272C2.29937 3.19423 2.06149 3.3178 1.90245 3.23647C1.86258 3.21587 1.81258 3.12293 1.77354 3.12397C1.71685 3.12571 1.70299 3.27978 1.63096 3.28272C1.50668 3.2874 1.27523 3.10861 1.15766 3.1221C1.12275 3.12606 1.10624 3.18348 1.08214 3.1896C0.981163 3.21583 0.898355 3.21122 0.801538 3.2996C0.697532 3.1521 0.706124 2.96171 0.673933 2.7696C0.649494 2.62453 0.574546 2.2879 0.563907 2.16085C0.556472 2.0716 0.584139 1.95656 0.573673 1.85835C0.698326 1.7799 0.751103 1.8664 0.852319 2.0046C1.03916 1.99909 1.22602 1.99385 1.41287 1.98835C1.42987 2.04196 1.4473 2.09599 1.4643 2.1496C1.53587 2.21098 1.5663 2.0736 1.60492 2.0421C1.97562 1.7419 2.70529 1.97639 3.11339 2.01022C3.20134 2.01741 3.48729 1.94562 3.54763 2.03272C3.56314 2.05546 3.56766 2.13727 3.58409 2.14147C3.73258 2.09229 3.88156 2.04315 4.03005 1.99397C4.33532 2.12231 4.65085 2.01628 4.95844 1.99647C5.79081 1.94285 6.61495 1.87795 7.4337 1.89772C7.59195 1.90168 7.7931 1.83965 7.94802 1.8796C8.01263 1.89624 8.03954 2.02855 8.12445 1.9296C8.12535 1.96534 8.12617 2.00136 8.12706 2.0371C8.20108 1.99396 8.24859 1.91306 8.33149 1.9046C8.40138 1.89777 8.58647 1.89224 8.64854 1.90585C8.68057 1.91268 8.66895 1.9791 8.69867 1.97897C8.74981 1.9779 8.85914 1.88608 8.92979 1.88585C8.99379 1.88585 9.10194 1.96263 9.15115 1.95147C9.32834 1.91188 9.52156 1.79776 9.71039 1.82835C9.76252 1.83717 9.82948 1.92387 9.84581 1.92147C9.87772 1.91644 9.88753 1.8323 9.90896 1.82147C10.0178 1.76698 10.187 1.86675 10.2937 1.87085C10.6414 1.88381 11.01 1.84664 11.3562 1.8621C11.575 1.87182 11.9388 1.85688 12.1407 1.92022C12.1842 1.93392 12.1726 2.02642 12.2091 2.02647C12.2496 2.02645 12.2715 1.96416 12.2905 1.95897C12.3201 1.95101 12.3578 1.94173 12.3998 1.93272C12.4447 1.90616 12.45 1.88197 12.1746 1.89397C12.0994 1.88412 12.272 1.81308 12.2761 1.79897C12.2787 1.78533 12.2011 1.77407 12.2 1.76335C12.1968 1.73108 12.2521 1.70826 12.185 1.66897C12.1676 1.65893 12.0776 1.64817 12.0763 1.6421C12.0778 1.63484 12.167 1.6265 12.1726 1.6171C12.1849 1.59461 12.156 1.55287 12.1713 1.53147C12.1761 1.52766 12.2527 1.52639 12.2768 1.52085C12.3718 1.499 12.3634 1.47465 12.1147 1.47897C12.2556 1.45103 12.1278 1.42488 12.1192 1.39897C12.1031 1.34408 12.1611 1.24372 12.0567 1.19585C11.9908 1.16568 11.879 1.16651 11.9754 1.1221C11.9967 1.11227 12.0255 1.10215 12.0509 1.09022C12.1111 1.06222 12.3168 1.03657 12.0685 1.01522C12.1329 0.984109 12.0874 0.959563 12.2996 0.936474C12.2488 0.933762 12.198 0.931061 12.1472 0.928349C12.146 0.924533 12.1446 0.920291 12.1433 0.916474C12.1919 0.915285 12.2406 0.914538 12.2892 0.913349C12.3023 0.886007 12.1022 0.850869 12.1036 0.827724C12.1063 0.788704 12.184 0.689425 12.2495 0.652724C12.2841 0.633221 12.1801 0.632026 12.394 0.620849C12.3791 0.61648 12.364 0.612094 12.3491 0.607724C12.3023 0.604995 12.2552 0.602329 12.2084 0.599599C12.2066 0.574573 12.2793 0.544708 12.2788 0.520849C12.2773 0.477345 12.1485 0.412039 12.2332 0.368349C12.2545 0.357395 12.3515 0.343452 12.3504 0.332724C12.3483 0.317177 12.188 0.313129 12.185 0.293349C12.1812 0.259134 12.3665 0.195538 12.3523 0.163349C12.3474 0.153919 12.2883 0.149291 12.282 0.142724C12.2548 0.115055 12.2594 0.0924027 12.1674 0.0658493C12.3211 0.0372861 12.5194 0.0396896 12.7195 0.0308493C12.8706 0.0241373 13.2213 0.00377097 13.3536 0.000849343ZM12.1857 3.63835C12.1652 3.64125 12.2047 3.65562 12.2495 3.65647C12.4227 3.65967 12.2786 3.62575 12.1857 3.63835ZM13.8745 3.22085C13.8861 3.05455 13.7641 3.19283 13.81 3.2821C13.8206 3.30171 13.8713 3.26381 13.8745 3.22085ZM12.3067 3.11397C12.3014 3.11866 12.2958 3.12304 12.2905 3.12772C12.3204 3.11799 12.3504 3.10871 12.3803 3.09897C12.6544 3.10124 12.4704 3.06966 12.308 3.0646C12.3078 3.0778 12.3061 3.09405 12.3067 3.11397ZM8.14789 2.9321C8.14901 2.97955 8.15003 3.02714 8.15115 3.0746C8.16715 3.05489 8.18332 3.03493 8.19932 3.01522C8.19032 2.98671 8.18164 2.95811 8.17263 2.9296C8.16448 2.93042 8.15604 2.93128 8.14789 2.9321Z" fill="#4FB0F4"/>
</svg>
