<svg width="48" height="48" viewBox="0 0 48 48" fill="none" xmlns="http://www.w3.org/2000/svg">
<rect width="48" height="48" rx="24" transform="matrix(1 0 0 -1 0 48)" fill="#4FB0F4"/>
<path d="M26.268 30.164C27.4627 30.22 28.6947 30.2293 29.964 30.192V30.248C30.0013 30.8453 30.0107 31.4707 29.992 32.124C29.9733 32.7587 29.8893 33.356 29.74 33.916C27.836 33.8973 25.8947 33.9253 23.916 34C21.956 34.056 20.0707 34.0093 18.26 33.86C18.26 32.236 18.2413 30.6307 18.204 29.044C18.1667 27.4387 18.1387 25.8427 18.12 24.256C18.1013 22.6693 18.1013 21.0827 18.12 19.496C18.1387 17.9093 18.1947 16.3133 18.288 14.708C19.016 14.6707 19.8 14.6427 20.64 14.624C21.4987 14.5867 22.3573 14.5587 23.216 14.54C24.0747 14.5213 24.9053 14.5027 25.708 14.484C26.5107 14.4653 27.22 14.456 27.836 14.456C28.452 14.456 28.9467 14.4653 29.32 14.484C29.6933 14.5027 29.88 14.5213 29.88 14.54C29.9733 15.1933 29.992 15.856 29.936 16.528C29.8987 17.2 29.88 17.8627 29.88 18.516V18.544C29.2827 18.6747 28.676 18.7587 28.06 18.796C27.4627 18.8147 26.856 18.824 26.24 18.824C25.624 18.8053 25.008 18.796 24.392 18.796C23.776 18.796 23.16 18.824 22.544 18.88H22.46L22.432 18.908C22.4507 19.4493 22.4227 20.0093 22.348 20.588C22.292 21.148 22.3293 21.68 22.46 22.184L22.488 22.212C23.048 22.2493 23.6173 22.268 24.196 22.268C24.7747 22.268 25.3533 22.2773 25.932 22.296V22.324C26.0253 22.9587 26.0533 23.5933 26.016 24.228C25.9787 24.8627 25.9693 25.5253 25.988 26.216C25.708 26.2907 25.3907 26.3373 25.036 26.356C24.6813 26.356 24.336 26.356 24 26.356C23.6827 26.356 23.3933 26.3653 23.132 26.384C22.8707 26.4027 22.6933 26.4493 22.6 26.524C22.5067 27.0653 22.4693 27.672 22.488 28.344C22.5253 29.016 22.5627 29.576 22.6 30.024L22.628 30.052C23.86 30.052 25.0733 30.0893 26.268 30.164Z" fill="white"/>
</svg>
