<svg width="48" height="48" viewBox="0 0 48 48" fill="none" xmlns="http://www.w3.org/2000/svg">
<rect width="48" height="48" rx="10" transform="matrix(1 0 0 -1 0 48)" fill="white"/>
<path d="M12.302 35.8478L17.3749 20.2875H19.8468L24.8828 35.8478H22.0604L19.4409 27.4675C19.3672 27.2155 19.2749 26.9043 19.1642 26.5339C19.0659 26.1634 18.9613 25.7707 18.8506 25.3557C18.74 24.9408 18.6354 24.5481 18.5371 24.1776C18.451 23.7923 18.3772 23.4811 18.3157 23.244L18.8138 23.2217C18.74 23.5478 18.6539 23.896 18.5555 24.2665C18.4694 24.6222 18.371 24.9927 18.2603 25.378C18.162 25.7633 18.0574 26.1337 17.9467 26.4894C17.8484 26.8451 17.75 27.1859 17.6516 27.5119L15.0506 35.8478H12.302ZM14.6632 32.5801L15.5855 29.8682H21.4701L22.4109 32.5801H14.6632Z" fill="#231A15"/>
<path d="M12.302 35.8478L17.3749 20.2875H19.8468L24.8828 35.8478H22.0604L19.4409 27.4675C19.3672 27.2155 19.2749 26.9043 19.1642 26.5339C19.0659 26.1634 18.9613 25.7707 18.8506 25.3557C18.74 24.9408 18.6354 24.5481 18.5371 24.1776C18.451 23.7923 18.3772 23.4811 18.3157 23.244L18.8138 23.2217C18.74 23.5478 18.6539 23.896 18.5555 24.2665C18.4694 24.6222 18.371 24.9927 18.2603 25.378C18.162 25.7633 18.0574 26.1337 17.9467 26.4894C17.8484 26.8451 17.75 27.1859 17.6516 27.5119L15.0506 35.8478H12.302ZM14.6632 32.5801L15.5855 29.8682H21.4701L22.4109 32.5801H14.6632Z" fill="black" fill-opacity="0.2"/>
<path d="M12.302 35.8478L17.3749 20.2875H19.8468L24.8828 35.8478H22.0604L19.4409 27.4675C19.3672 27.2155 19.2749 26.9043 19.1642 26.5339C19.0659 26.1634 18.9613 25.7707 18.8506 25.3557C18.74 24.9408 18.6354 24.5481 18.5371 24.1776C18.451 23.7923 18.3772 23.4811 18.3157 23.244L18.8138 23.2217C18.74 23.5478 18.6539 23.896 18.5555 24.2665C18.4694 24.6222 18.371 24.9927 18.2603 25.378C18.162 25.7633 18.0574 26.1337 17.9467 26.4894C17.8484 26.8451 17.75 27.1859 17.6516 27.5119L15.0506 35.8478H12.302ZM14.6632 32.5801L15.5855 29.8682H21.4701L22.4109 32.5801H14.6632Z" fill="black" fill-opacity="0.2"/>
<path d="M12.302 35.8478L17.3749 20.2875H19.8468L24.8828 35.8478H22.0604L19.4409 27.4675C19.3672 27.2155 19.2749 26.9043 19.1642 26.5339C19.0659 26.1634 18.9613 25.7707 18.8506 25.3557C18.74 24.9408 18.6354 24.5481 18.5371 24.1776C18.451 23.7923 18.3772 23.4811 18.3157 23.244L18.8138 23.2217C18.74 23.5478 18.6539 23.896 18.5555 24.2665C18.4694 24.6222 18.371 24.9927 18.2603 25.378C18.162 25.7633 18.0574 26.1337 17.9467 26.4894C17.8484 26.8451 17.75 27.1859 17.6516 27.5119L15.0506 35.8478H12.302ZM14.6632 32.5801L15.5855 29.8682H21.4701L22.4109 32.5801H14.6632Z" fill="black" fill-opacity="0.2"/>
<path d="M12.302 35.8478L17.3749 20.2875H19.8468L24.8828 35.8478H22.0604L19.4409 27.4675C19.3672 27.2155 19.2749 26.9043 19.1642 26.5339C19.0659 26.1634 18.9613 25.7707 18.8506 25.3557C18.74 24.9408 18.6354 24.5481 18.5371 24.1776C18.451 23.7923 18.3772 23.4811 18.3157 23.244L18.8138 23.2217C18.74 23.5478 18.6539 23.896 18.5555 24.2665C18.4694 24.6222 18.371 24.9927 18.2603 25.378C18.162 25.7633 18.0574 26.1337 17.9467 26.4894C17.8484 26.8451 17.75 27.1859 17.6516 27.5119L15.0506 35.8478H12.302ZM14.6632 32.5801L15.5855 29.8682H21.4701L22.4109 32.5801H14.6632Z" fill="black" fill-opacity="0.2"/>
<path d="M34.0858 22.4186C34.2168 23.0726 34.3198 23.5913 34.3946 23.9746L36.5 35.814V35.8478C35.9385 35.9831 35.321 36.0282 34.6473 35.9831C33.9735 35.9605 33.3373 35.8703 32.7384 35.7125H32.7103C32.598 35.3517 32.4858 34.9232 32.3735 34.4271C32.2799 33.9309 32.177 33.4235 32.0647 32.9049C31.9711 32.3862 31.8682 31.8901 31.7559 31.4165C31.6436 30.9429 31.522 30.537 31.391 30.1987C31.1477 30.1536 30.9606 30.1311 30.8296 30.1311C30.6986 30.1311 30.5769 30.1311 30.4646 30.1311C30.3711 30.1311 30.2588 30.1424 30.1278 30.1649C30.0155 30.1649 29.8564 30.1649 29.6506 30.1649C29.5196 30.5257 29.4073 30.9542 29.3137 31.4503C29.2388 31.9239 29.1546 32.4313 29.0611 32.9725C28.9862 33.4912 28.902 33.9986 28.8084 34.4947C28.7148 34.9908 28.5838 35.4306 28.4154 35.814C28.3967 35.814 28.378 35.8252 28.3593 35.8478C28.3593 35.8478 28.3499 35.8478 28.3312 35.8478C28.1815 35.8929 27.8072 35.8929 27.2083 35.8478C26.6095 35.8027 25.6738 35.7914 24.4012 35.814C24.3825 35.814 24.3638 35.8027 24.3451 35.7801C24.3825 35.6223 24.448 35.1825 24.5416 34.4609C24.6351 33.7393 24.7661 32.8034 24.9346 31.6533C25.103 30.5032 25.2995 29.1839 25.5241 27.6956C25.7674 26.1846 26.0481 24.5835 26.3662 22.8922C26.6843 21.2008 27.0306 19.4419 27.4048 17.6152C27.7791 15.7886 28.1908 13.9732 28.64 12.1691C28.771 12.1466 28.9113 12.1353 29.0611 12.1353C29.2108 12.1353 29.4073 12.1353 29.6506 12.1353C29.8938 12.1353 30.2026 12.1353 30.5769 12.1353C30.9699 12.1128 31.4752 12.0677 32.0928 12C32.1489 12.2932 32.2331 12.7442 32.3454 13.3531C32.4764 13.9394 32.6074 14.6159 32.7384 15.3827C32.8881 16.1269 33.0378 16.9274 33.1875 17.7844C33.356 18.6413 33.515 19.4644 33.6648 20.2537C33.8145 21.043 33.9548 21.7646 34.0858 22.4186ZM30.4646 26.2072C30.8202 26.1846 31.1758 26.1734 31.5313 26.1734C31.3442 24.234 31.1758 22.723 31.0261 21.6406C30.8951 20.5581 30.7734 19.8252 30.6611 19.4419C30.5676 19.0585 30.4646 18.9796 30.3523 19.2051C30.2588 19.408 30.1652 19.8365 30.0716 20.4905C29.9968 21.1445 29.9032 21.9676 29.7909 22.9598C29.6973 23.9521 29.5851 25.0233 29.4541 26.1734C29.7722 26.1959 30.1091 26.2072 30.4646 26.2072Z" fill="#231A15"/>
<path d="M34.0858 22.4186C34.2168 23.0726 34.3198 23.5913 34.3946 23.9746L36.5 35.814V35.8478C35.9385 35.9831 35.321 36.0282 34.6473 35.9831C33.9735 35.9605 33.3373 35.8703 32.7384 35.7125H32.7103C32.598 35.3517 32.4858 34.9232 32.3735 34.4271C32.2799 33.9309 32.177 33.4235 32.0647 32.9049C31.9711 32.3862 31.8682 31.8901 31.7559 31.4165C31.6436 30.9429 31.522 30.537 31.391 30.1987C31.1477 30.1536 30.9606 30.1311 30.8296 30.1311C30.6986 30.1311 30.5769 30.1311 30.4646 30.1311C30.3711 30.1311 30.2588 30.1424 30.1278 30.1649C30.0155 30.1649 29.8564 30.1649 29.6506 30.1649C29.5196 30.5257 29.4073 30.9542 29.3137 31.4503C29.2388 31.9239 29.1546 32.4313 29.0611 32.9725C28.9862 33.4912 28.902 33.9986 28.8084 34.4947C28.7148 34.9908 28.5838 35.4306 28.4154 35.814C28.3967 35.814 28.378 35.8252 28.3593 35.8478C28.3593 35.8478 28.3499 35.8478 28.3312 35.8478C28.1815 35.8929 27.8072 35.8929 27.2083 35.8478C26.6095 35.8027 25.6738 35.7914 24.4012 35.814C24.3825 35.814 24.3638 35.8027 24.3451 35.7801C24.3825 35.6223 24.448 35.1825 24.5416 34.4609C24.6351 33.7393 24.7661 32.8034 24.9346 31.6533C25.103 30.5032 25.2995 29.1839 25.5241 27.6956C25.7674 26.1846 26.0481 24.5835 26.3662 22.8922C26.6843 21.2008 27.0306 19.4419 27.4048 17.6152C27.7791 15.7886 28.1908 13.9732 28.64 12.1691C28.771 12.1466 28.9113 12.1353 29.0611 12.1353C29.2108 12.1353 29.4073 12.1353 29.6506 12.1353C29.8938 12.1353 30.2026 12.1353 30.5769 12.1353C30.9699 12.1128 31.4752 12.0677 32.0928 12C32.1489 12.2932 32.2331 12.7442 32.3454 13.3531C32.4764 13.9394 32.6074 14.6159 32.7384 15.3827C32.8881 16.1269 33.0378 16.9274 33.1875 17.7844C33.356 18.6413 33.515 19.4644 33.6648 20.2537C33.8145 21.043 33.9548 21.7646 34.0858 22.4186ZM30.4646 26.2072C30.8202 26.1846 31.1758 26.1734 31.5313 26.1734C31.3442 24.234 31.1758 22.723 31.0261 21.6406C30.8951 20.5581 30.7734 19.8252 30.6611 19.4419C30.5676 19.0585 30.4646 18.9796 30.3523 19.2051C30.2588 19.408 30.1652 19.8365 30.0716 20.4905C29.9968 21.1445 29.9032 21.9676 29.7909 22.9598C29.6973 23.9521 29.5851 25.0233 29.4541 26.1734C29.7722 26.1959 30.1091 26.2072 30.4646 26.2072Z" fill="black" fill-opacity="0.2"/>
<path d="M34.0858 22.4186C34.2168 23.0726 34.3198 23.5913 34.3946 23.9746L36.5 35.814V35.8478C35.9385 35.9831 35.321 36.0282 34.6473 35.9831C33.9735 35.9605 33.3373 35.8703 32.7384 35.7125H32.7103C32.598 35.3517 32.4858 34.9232 32.3735 34.4271C32.2799 33.9309 32.177 33.4235 32.0647 32.9049C31.9711 32.3862 31.8682 31.8901 31.7559 31.4165C31.6436 30.9429 31.522 30.537 31.391 30.1987C31.1477 30.1536 30.9606 30.1311 30.8296 30.1311C30.6986 30.1311 30.5769 30.1311 30.4646 30.1311C30.3711 30.1311 30.2588 30.1424 30.1278 30.1649C30.0155 30.1649 29.8564 30.1649 29.6506 30.1649C29.5196 30.5257 29.4073 30.9542 29.3137 31.4503C29.2388 31.9239 29.1546 32.4313 29.0611 32.9725C28.9862 33.4912 28.902 33.9986 28.8084 34.4947C28.7148 34.9908 28.5838 35.4306 28.4154 35.814C28.3967 35.814 28.378 35.8252 28.3593 35.8478C28.3593 35.8478 28.3499 35.8478 28.3312 35.8478C28.1815 35.8929 27.8072 35.8929 27.2083 35.8478C26.6095 35.8027 25.6738 35.7914 24.4012 35.814C24.3825 35.814 24.3638 35.8027 24.3451 35.7801C24.3825 35.6223 24.448 35.1825 24.5416 34.4609C24.6351 33.7393 24.7661 32.8034 24.9346 31.6533C25.103 30.5032 25.2995 29.1839 25.5241 27.6956C25.7674 26.1846 26.0481 24.5835 26.3662 22.8922C26.6843 21.2008 27.0306 19.4419 27.4048 17.6152C27.7791 15.7886 28.1908 13.9732 28.64 12.1691C28.771 12.1466 28.9113 12.1353 29.0611 12.1353C29.2108 12.1353 29.4073 12.1353 29.6506 12.1353C29.8938 12.1353 30.2026 12.1353 30.5769 12.1353C30.9699 12.1128 31.4752 12.0677 32.0928 12C32.1489 12.2932 32.2331 12.7442 32.3454 13.3531C32.4764 13.9394 32.6074 14.6159 32.7384 15.3827C32.8881 16.1269 33.0378 16.9274 33.1875 17.7844C33.356 18.6413 33.515 19.4644 33.6648 20.2537C33.8145 21.043 33.9548 21.7646 34.0858 22.4186ZM30.4646 26.2072C30.8202 26.1846 31.1758 26.1734 31.5313 26.1734C31.3442 24.234 31.1758 22.723 31.0261 21.6406C30.8951 20.5581 30.7734 19.8252 30.6611 19.4419C30.5676 19.0585 30.4646 18.9796 30.3523 19.2051C30.2588 19.408 30.1652 19.8365 30.0716 20.4905C29.9968 21.1445 29.9032 21.9676 29.7909 22.9598C29.6973 23.9521 29.5851 25.0233 29.4541 26.1734C29.7722 26.1959 30.1091 26.2072 30.4646 26.2072Z" fill="black" fill-opacity="0.2"/>
<path d="M34.0858 22.4186C34.2168 23.0726 34.3198 23.5913 34.3946 23.9746L36.5 35.814V35.8478C35.9385 35.9831 35.321 36.0282 34.6473 35.9831C33.9735 35.9605 33.3373 35.8703 32.7384 35.7125H32.7103C32.598 35.3517 32.4858 34.9232 32.3735 34.4271C32.2799 33.9309 32.177 33.4235 32.0647 32.9049C31.9711 32.3862 31.8682 31.8901 31.7559 31.4165C31.6436 30.9429 31.522 30.537 31.391 30.1987C31.1477 30.1536 30.9606 30.1311 30.8296 30.1311C30.6986 30.1311 30.5769 30.1311 30.4646 30.1311C30.3711 30.1311 30.2588 30.1424 30.1278 30.1649C30.0155 30.1649 29.8564 30.1649 29.6506 30.1649C29.5196 30.5257 29.4073 30.9542 29.3137 31.4503C29.2388 31.9239 29.1546 32.4313 29.0611 32.9725C28.9862 33.4912 28.902 33.9986 28.8084 34.4947C28.7148 34.9908 28.5838 35.4306 28.4154 35.814C28.3967 35.814 28.378 35.8252 28.3593 35.8478C28.3593 35.8478 28.3499 35.8478 28.3312 35.8478C28.1815 35.8929 27.8072 35.8929 27.2083 35.8478C26.6095 35.8027 25.6738 35.7914 24.4012 35.814C24.3825 35.814 24.3638 35.8027 24.3451 35.7801C24.3825 35.6223 24.448 35.1825 24.5416 34.4609C24.6351 33.7393 24.7661 32.8034 24.9346 31.6533C25.103 30.5032 25.2995 29.1839 25.5241 27.6956C25.7674 26.1846 26.0481 24.5835 26.3662 22.8922C26.6843 21.2008 27.0306 19.4419 27.4048 17.6152C27.7791 15.7886 28.1908 13.9732 28.64 12.1691C28.771 12.1466 28.9113 12.1353 29.0611 12.1353C29.2108 12.1353 29.4073 12.1353 29.6506 12.1353C29.8938 12.1353 30.2026 12.1353 30.5769 12.1353C30.9699 12.1128 31.4752 12.0677 32.0928 12C32.1489 12.2932 32.2331 12.7442 32.3454 13.3531C32.4764 13.9394 32.6074 14.6159 32.7384 15.3827C32.8881 16.1269 33.0378 16.9274 33.1875 17.7844C33.356 18.6413 33.515 19.4644 33.6648 20.2537C33.8145 21.043 33.9548 21.7646 34.0858 22.4186ZM30.4646 26.2072C30.8202 26.1846 31.1758 26.1734 31.5313 26.1734C31.3442 24.234 31.1758 22.723 31.0261 21.6406C30.8951 20.5581 30.7734 19.8252 30.6611 19.4419C30.5676 19.0585 30.4646 18.9796 30.3523 19.2051C30.2588 19.408 30.1652 19.8365 30.0716 20.4905C29.9968 21.1445 29.9032 21.9676 29.7909 22.9598C29.6973 23.9521 29.5851 25.0233 29.4541 26.1734C29.7722 26.1959 30.1091 26.2072 30.4646 26.2072Z" fill="black" fill-opacity="0.2"/>
<path d="M34.0858 22.4186C34.2168 23.0726 34.3198 23.5913 34.3946 23.9746L36.5 35.814V35.8478C35.9385 35.9831 35.321 36.0282 34.6473 35.9831C33.9735 35.9605 33.3373 35.8703 32.7384 35.7125H32.7103C32.598 35.3517 32.4858 34.9232 32.3735 34.4271C32.2799 33.9309 32.177 33.4235 32.0647 32.9049C31.9711 32.3862 31.8682 31.8901 31.7559 31.4165C31.6436 30.9429 31.522 30.537 31.391 30.1987C31.1477 30.1536 30.9606 30.1311 30.8296 30.1311C30.6986 30.1311 30.5769 30.1311 30.4646 30.1311C30.3711 30.1311 30.2588 30.1424 30.1278 30.1649C30.0155 30.1649 29.8564 30.1649 29.6506 30.1649C29.5196 30.5257 29.4073 30.9542 29.3137 31.4503C29.2388 31.9239 29.1546 32.4313 29.0611 32.9725C28.9862 33.4912 28.902 33.9986 28.8084 34.4947C28.7148 34.9908 28.5838 35.4306 28.4154 35.814C28.3967 35.814 28.378 35.8252 28.3593 35.8478C28.3593 35.8478 28.3499 35.8478 28.3312 35.8478C28.1815 35.8929 27.8072 35.8929 27.2083 35.8478C26.6095 35.8027 25.6738 35.7914 24.4012 35.814C24.3825 35.814 24.3638 35.8027 24.3451 35.7801C24.3825 35.6223 24.448 35.1825 24.5416 34.4609C24.6351 33.7393 24.7661 32.8034 24.9346 31.6533C25.103 30.5032 25.2995 29.1839 25.5241 27.6956C25.7674 26.1846 26.0481 24.5835 26.3662 22.8922C26.6843 21.2008 27.0306 19.4419 27.4048 17.6152C27.7791 15.7886 28.1908 13.9732 28.64 12.1691C28.771 12.1466 28.9113 12.1353 29.0611 12.1353C29.2108 12.1353 29.4073 12.1353 29.6506 12.1353C29.8938 12.1353 30.2026 12.1353 30.5769 12.1353C30.9699 12.1128 31.4752 12.0677 32.0928 12C32.1489 12.2932 32.2331 12.7442 32.3454 13.3531C32.4764 13.9394 32.6074 14.6159 32.7384 15.3827C32.8881 16.1269 33.0378 16.9274 33.1875 17.7844C33.356 18.6413 33.515 19.4644 33.6648 20.2537C33.8145 21.043 33.9548 21.7646 34.0858 22.4186ZM30.4646 26.2072C30.8202 26.1846 31.1758 26.1734 31.5313 26.1734C31.3442 24.234 31.1758 22.723 31.0261 21.6406C30.8951 20.5581 30.7734 19.8252 30.6611 19.4419C30.5676 19.0585 30.4646 18.9796 30.3523 19.2051C30.2588 19.408 30.1652 19.8365 30.0716 20.4905C29.9968 21.1445 29.9032 21.9676 29.7909 22.9598C29.6973 23.9521 29.5851 25.0233 29.4541 26.1734C29.7722 26.1959 30.1091 26.2072 30.4646 26.2072Z" fill="black" fill-opacity="0.2"/>
</svg>
