<svg width="25" height="22" viewBox="0 0 25 22" fill="none" xmlns="http://www.w3.org/2000/svg">
<path d="M11.4098 0.888484C11.8333 0.488532 12.4474 0.363186 12.6912 0.443853C12.8049 0.476242 12.8233 0.688295 12.9605 0.548167C12.9545 0.604168 12.948 0.660116 12.942 0.716106C13.0485 0.661402 13.1294 0.544599 13.2268 0.547427C13.289 0.549554 13.4109 0.563716 13.4798 0.579979C13.5035 0.585591 13.5248 0.591899 13.5383 0.599215C13.5658 0.61434 13.5411 0.716942 13.5693 0.720545C13.6185 0.725321 13.7429 0.592476 13.815 0.599955C13.8794 0.607117 13.9814 0.738703 14.0369 0.727204C14.2347 0.684153 14.4777 0.525702 14.7153 0.608832C14.7804 0.63225 14.8464 0.781381 14.8685 0.78195C14.9116 0.781485 14.9492 0.653189 14.9824 0.642124C15.1515 0.585556 15.3771 0.802859 15.5595 0.882566C15.6437 0.918258 15.7335 0.959384 15.8302 1.01203C16.4598 1.34735 16.8205 1.95378 16.9414 2.39032C17.0447 2.72749 17.145 3.20506 17.0731 3.4564C17.0581 3.51139 16.9113 3.51503 16.9163 3.55775C16.9221 3.60466 17.0229 3.61961 17.0332 3.64061C17.1057 3.78975 17.2327 4.09245 17.1471 4.21546C17.1307 4.23977 17.021 4.26905 17.0213 4.28278C17.0222 4.28952 17.1018 4.29482 17.1123 4.31311C17.1261 4.33706 17.1374 4.36052 17.1464 4.38043L17.2344 4.64085L16.9296 5.16243C16.5001 5.65421 16.2386 5.61153 15.9812 5.6766C15.4205 5.75989 14.954 5.91831 14.5008 5.86673C14.4044 5.85421 14.3294 5.63577 14.3158 5.63517C14.2871 5.64097 14.2742 5.79257 14.2167 5.8327C14.0464 5.94924 13.8158 5.8421 13.6404 5.87413L13.687 5.87191C13.6678 5.87682 13.6504 5.88397 13.6337 5.89411C13.5598 5.93857 13.4884 6.14117 13.4369 6.19299C13.3949 6.23349 13.2697 6.18268 13.2668 6.27068C13.2656 6.32345 13.2981 6.48473 13.2889 6.50816C13.2801 6.52807 13.2372 6.43887 13.2187 6.43787C13.1418 6.43507 13.0931 6.37863 13.0071 6.36463C12.9576 6.35525 12.8736 6.3881 12.7762 6.39201C12.7512 6.44607 12.7263 6.49315 12.7023 6.52665C12.6476 6.60102 12.8055 6.61012 12.4803 6.6465C12.5025 6.66427 12.5247 6.68214 12.5469 6.69977C12.6176 6.71208 12.6885 6.72455 12.7592 6.73676C12.7597 6.8343 12.6474 6.94914 12.6468 7.04305C12.646 7.21299 12.8367 7.47313 12.7067 7.6423C12.6739 7.68535 12.5275 7.73657 12.5284 7.77917C12.5301 7.84127 12.7718 7.8589 12.7762 7.93527C12.7824 8.0703 12.4991 8.31898 12.5203 8.44575C12.5265 8.48411 12.6164 8.50201 12.6261 8.52787C12.6672 8.63675 12.6597 8.72781 12.7992 8.83193C12.5662 8.94561 12.2657 8.93526 11.9624 8.96954C11.8299 8.98553 11.5961 9.01928 11.3839 9.04722C11.4856 9.08836 11.5742 9.14126 11.6377 9.2048C11.9133 9.43322 12.0116 9.62616 12.1067 9.7789C12.2487 10.0146 12.3889 10.2497 12.5232 10.4854C13.0966 11.4729 13.6948 12.5447 14.3151 13.3966C14.3569 13.2151 14.3983 13.0272 14.4379 12.8403C14.613 12.01 14.781 11.1455 15.0268 10.2657C15.1725 9.75139 15.3073 9.0909 15.6098 8.48792C15.706 8.29732 15.8218 8.11803 15.9708 7.95007C16.0793 7.82889 16.201 7.74865 16.3481 7.66746C16.5152 7.59468 16.6102 7.47231 17.1286 7.39964C17.2899 7.38938 17.5141 7.37855 17.7967 7.44699C17.7855 7.50333 17.7732 7.55935 17.7597 7.61493C18.4894 7.93731 18.6258 8.14947 18.8664 8.482C19.0463 8.77117 19.3838 9.44285 19.4761 9.67237C19.5236 9.79134 19.4103 9.79921 19.4635 9.90393C19.5579 10.088 19.8844 10.4061 20.0161 10.6548C20.1355 10.8825 20.2304 11.3128 20.3417 11.4768C20.7384 12.0664 21.2762 12.6304 21.6289 13.2967C21.7265 13.4821 21.749 13.7769 21.7887 13.8331C21.8654 13.9401 21.9949 13.8966 22.0551 13.9596C22.2411 14.1554 22.3969 14.4663 22.5508 14.7719C22.6559 14.9782 22.7497 15.1751 22.8422 15.329C23.6025 16.5919 24.3785 17.9974 24.7976 19.4779C24.8001 19.4868 24.8025 19.4957 24.805 19.5046C24.8628 19.689 24.8756 19.9435 24.8087 20.1667C24.7479 20.3795 24.6321 20.5478 24.5246 20.6594C24.3565 20.8327 24.2005 20.9053 24.1207 20.9435C24.0231 20.9881 23.951 21.0116 23.8898 21.0301C23.8251 21.0493 23.7686 21.0625 23.7204 21.073C23.5148 21.1166 23.3605 21.1336 23.1959 21.1499C22.8787 21.1793 22.5724 21.1904 22.2704 21.1958C21.6661 21.2054 21.0994 21.1863 20.6879 21.1374C20.5074 21.1158 20.5557 20.9704 20.4075 20.9702C20.242 20.9699 20.1504 21.0675 20.0746 21.0752C19.5387 21.1292 18.3629 21.22 17.861 21.1166C17.7638 21.0967 17.6974 20.9827 17.6398 20.9827C17.6109 20.9828 17.5454 21.0594 17.4541 21.0671C16.6494 21.1334 16.0672 21.0862 15.282 21.0612C15.0358 21.0535 14.7872 21.0519 14.5296 21.0538C13.2238 21.1405 11.803 21.3088 10.4835 21.3023C10.1362 21.3006 9.88909 21.0851 9.8399 21.0885C9.73296 21.0974 9.67023 21.2522 9.45446 21.2979C8.73626 21.4487 7.75657 21.3143 7.06928 21.4015C6.72962 21.4451 6.26273 21.6429 5.92626 21.687C5.65733 21.7231 5.02191 21.6468 4.90235 21.73C4.82945 21.7807 4.79428 21.9438 4.70703 21.9637C4.62641 21.9812 4.51339 21.8821 4.4185 21.8757C4.02188 21.8474 3.87529 21.7759 3.5174 21.7285C3.43033 21.7169 3.315 21.7096 3.18374 21.7018L3.1105 21.6974C2.72934 21.6376 2.28564 21.6543 1.59091 21.2624C1.22195 21.0764 0.851401 20.4795 0.882163 20.2377C0.87881 19.9846 0.98302 19.9156 1.11743 19.8745C1.1239 19.8729 1.13069 19.8714 1.1374 19.87C1.26314 19.8406 1.44387 19.9643 1.59313 19.9396C1.72624 19.8931 2.66292 19.6668 2.63628 19.4913C2.75822 19.5727 2.92732 19.6509 2.98843 19.6533C3.07171 19.6566 3.18358 19.59 3.2962 19.5786L3.24811 19.5756C3.25439 19.5747 3.26104 19.574 3.26734 19.5734C3.67176 19.5358 3.88258 19.6035 4.24982 19.3751C4.39259 19.501 4.53749 19.6266 4.68188 19.7517C4.87268 19.6964 5.16014 19.8602 5.27669 19.8516C5.3717 19.8444 5.42767 19.7467 5.52675 19.7421C5.63799 19.7363 5.80889 19.8414 6.01134 19.8242C6.34281 19.7962 6.39917 19.5408 6.59727 19.5061C6.80226 19.4702 7.12477 19.6034 7.38592 19.5083C7.41826 19.4796 7.45052 19.4505 7.48284 19.4217C7.45791 19.3589 7.43295 19.2959 7.40812 19.2331C7.53937 19.2008 7.59956 19.3297 7.72106 19.3292C7.86375 19.3286 7.93361 19.2035 8.02956 19.2013C8.10818 19.1997 8.21817 19.2955 8.32031 19.2863C8.46892 19.2734 8.43212 19.1321 8.51119 19.1029C8.54285 19.0919 9.13134 18.9931 9.16445 18.9904C9.41751 18.9757 9.44736 19.1699 9.65051 19.1791C10.2141 19.2034 10.7839 19.0198 11.3003 18.9342C11.5311 18.8959 11.7743 18.8947 12.0076 18.9135C11.6689 19.4322 12.4988 19.7769 12.1541 19.0126C12.4179 19.1093 12.5891 18.8882 12.8354 18.9098C12.9948 18.924 13.1106 19.0259 13.3363 19.0096C13.7371 18.9801 14.1565 18.6451 14.3069 19.1939C14.3483 19.1825 14.3893 19.1737 14.4297 19.1665L14.4838 19.1643C14.9075 19.1137 15.2627 19.2408 15.4174 18.7929C15.5397 18.7626 15.8563 19.0544 15.9922 19.0947C16.1248 19.1318 17.1188 19.2672 17.2825 19.276C17.4446 19.2841 17.7306 19.2938 17.8677 19.2516C18.043 19.1992 18.1617 18.69 18.4677 19.2885C18.8228 19.2427 18.9479 19.2608 19.2815 19.3322C19.3411 19.3451 19.3476 19.433 19.3821 19.4336C19.4516 19.434 19.5789 19.3692 19.7061 19.3618C19.9136 19.3498 20.0391 19.5369 20.0154 19.2523C20.1533 19.2051 20.2944 19.1577 20.4326 19.1103C20.4812 19.1652 20.5269 19.2203 20.5769 19.2752C20.6526 19.2154 20.7274 19.1554 20.8003 19.0955C20.7129 19.5077 21.235 19.2631 21.0645 19.0274C21.3305 19.1114 21.5994 19.1945 21.8649 19.2745C21.8394 19.7437 22.4453 19.3131 22.3821 19.0592C22.4112 19.0584 22.4398 19.0571 22.4679 19.0562C22.6248 19.1242 22.7738 19.1092 22.9214 19.0969C22.8835 19.0477 22.8295 18.9952 22.752 18.9408C23.0183 18.6027 22.6216 18.1789 22.3651 17.9154C22.3351 17.884 22.2707 17.9156 22.2267 17.877C22.1212 17.7819 22.0455 17.4373 21.8457 17.5566C21.8507 17.4226 21.8538 17.2878 21.8553 17.1519C21.772 17.0885 21.688 17.0247 21.6038 16.9626C21.5412 16.999 21.4785 17.0356 21.4159 17.072C21.5355 16.7827 21.2965 16.5683 21.2679 16.4099C21.2626 16.3778 21.3449 16.3207 21.319 16.2272C21.2881 16.1161 21.1538 15.9602 21.1088 15.8343C21.0327 15.8455 20.9563 15.8562 20.8802 15.8676C20.8352 15.8733 20.7899 15.8797 20.7449 15.8854C20.5588 15.7106 20.7587 15.4807 20.7019 15.3505C20.6929 15.3301 20.4209 14.9427 20.4023 14.9244C20.2538 14.7809 20.0658 14.9543 19.7979 14.4183C19.7493 14.3206 19.7777 14.202 19.7313 14.1187C19.6482 13.9712 19.2192 13.6314 19.0403 13.6822C19.1277 13.3866 18.7738 12.9553 18.7481 12.7752C18.7413 12.722 18.8602 12.6405 18.8147 12.4955C18.7756 12.3744 18.5248 12.1575 18.4647 12.005C18.4041 11.8483 18.4854 11.7429 18.4566 11.6706C18.4301 11.6044 18.3138 11.5927 18.2709 11.5101C18.1329 11.24 18.153 10.9348 18.0482 10.7214C17.8997 10.4183 17.5085 10.2798 17.2707 10.0933C17.2558 10.0222 17.2846 9.94099 17.2514 9.87508C17.2384 9.84895 17.2246 9.82295 17.2115 9.79666C16.9845 10.1612 16.5548 10.826 17.176 10.754C17.2457 10.9051 16.7526 11.8278 16.7084 12.0287C16.6619 12.222 16.7434 12.4019 16.7121 12.5562C16.6163 13.0239 16.4683 13.3371 16.4228 13.9596C16.4105 14.1223 16.4984 14.3324 16.4694 14.4287C16.4325 14.5502 16.2669 14.6373 16.2024 14.7986C16.1193 14.9864 16.0723 15.2265 15.7821 15.6501C15.7089 15.7487 15.5969 15.8876 15.4063 16.0237C15.2207 16.1611 14.894 16.2961 14.5718 16.2864C13.8883 16.2373 13.6981 15.9647 13.5346 15.8306C13.5126 15.8081 13.492 15.7865 13.4732 15.7655C13.4204 15.7057 13.4888 15.6062 13.445 15.5044C13.2847 15.1163 13.0552 14.8138 12.791 15.093C12.6843 14.5899 12.3046 14.3615 12.0779 14.0196C11.6664 13.4043 11.1352 12.3165 10.6937 11.6699C10.5159 11.8669 10.3571 12.0438 10.0478 12.1123C10.0915 12.1868 10.136 12.2609 10.1802 12.335C10.1527 12.3813 10.1247 12.4281 10.0974 12.4748C10.0262 12.4497 9.95484 12.425 9.88355 12.4001C9.6572 12.721 9.65989 13.3046 9.48997 13.5912C9.20345 14.0665 8.38448 15.2942 7.99923 15.7374C7.79906 15.9672 7.91948 16.0705 7.55164 16.0452C7.53243 16.117 7.51478 16.1855 7.49393 16.2575C7.52756 16.3349 7.56065 16.4126 7.59307 16.4906C7.47017 16.6693 7.31236 16.8476 7.08185 17.0528C6.959 17.1581 6.83862 17.2637 6.60171 17.3939C6.39907 17.5114 5.8924 17.6811 5.42318 17.4619C5.30391 17.409 5.1966 17.3382 5.10728 17.2614C4.79248 16.9979 4.49796 16.6778 4.255 16.3367C4.03723 16.5964 3.82924 16.8599 3.74083 17.0691C3.68697 17.1935 3.74043 17.2902 3.70976 17.3776C3.58044 17.7486 3.4436 18.0421 3.43528 18.4341C3.07457 18.7109 2.8084 18.5756 2.47943 18.5909C2.23177 18.5989 1.63315 18.7221 1.42075 18.7699C1.2715 18.7884 1.13892 18.5664 0.972421 18.5946C1.04615 17.9009 1.25685 17.7973 1.62346 17.4679C1.92291 16.7318 2.25803 16.0195 2.63702 15.3194C2.7462 15.2973 2.8558 15.2766 2.96476 15.2565L3.03726 15.1766C3.17196 14.99 3.08479 14.8031 3.12382 14.6565C3.16559 14.5012 3.22459 14.3366 3.29989 14.1668C3.37746 14.0353 3.44331 13.8801 3.74083 13.6681C3.88747 13.5681 4.15382 13.4529 4.46141 13.475C4.76831 13.4952 5.00095 13.6316 5.13761 13.7377C5.6282 14.1759 5.64246 14.4006 5.7635 14.6299C5.8406 14.8034 5.93415 14.9844 6.03057 15.1544C6.28761 14.8121 6.52077 14.4613 6.71121 14.1542C6.89589 13.8554 7.37397 12.782 7.62118 12.6353C7.68452 12.5983 7.80584 12.6485 7.84535 12.5924C8.08743 12.0262 8.341 11.4598 8.62142 10.8953C8.92239 10.5664 9.19983 10.216 9.47739 9.85732C9.69826 9.60242 9.83832 9.31323 10.4251 9.02946C10.4429 9.01947 10.4617 9.00953 10.4821 9.00135C10.4652 8.91555 10.5839 8.86046 10.7558 8.77497C10.7473 8.56987 10.7395 8.36428 10.7321 8.1587C10.8169 8.14041 10.9019 8.12167 10.9866 8.10321L11.0096 8.07658C11.0334 8.01748 10.861 7.98605 10.8179 7.94785C10.3469 7.53503 10.7307 6.73394 10.7972 6.28621C10.811 6.19067 10.7071 5.87006 10.8468 5.80829C10.8835 5.79247 11.0136 5.79221 11.0199 5.77426C10.9479 5.60807 10.8764 5.4417 10.8054 5.27562C11.0214 4.94736 10.8702 4.59244 10.8572 4.25097C10.8304 3.55434 10.8029 2.85952 10.8424 2.17133C10.878 1.85781 10.8926 1.38905 11.4098 0.888484ZM2.53714 19.3914C2.54737 19.3798 2.61904 19.43 2.63702 19.4876C2.63728 19.4887 2.6361 19.4901 2.63628 19.4913C2.63267 19.4888 2.6287 19.487 2.62518 19.4846C2.56448 19.4436 2.52441 19.4002 2.53714 19.3914ZM13.8401 19.0096C13.7962 18.9807 13.5929 19.0534 13.5849 19.1221C13.5541 19.3865 14.034 19.1389 13.8401 19.0096ZM5.57928 15.6516C5.53797 15.6879 5.57593 15.6656 5.61923 15.6287C5.60095 15.6394 5.58768 15.6463 5.57928 15.6516ZM11.2803 11.0055C11.4102 10.8443 11.0944 10.8957 11.0118 11.0292C10.9865 11.0635 10.9689 11.1018 10.9563 11.1439C11.1267 11.1137 11.2367 11.0462 11.2803 11.0055ZM17.6102 9.19962C17.6224 9.18405 17.6043 9.19326 17.5851 9.21072C17.5733 9.22115 17.5617 9.23546 17.5481 9.25067C17.5921 9.22497 17.5979 9.20432 17.6102 9.19962ZM17.1027 9.03834C17.1117 9.03475 17.1221 9.03256 17.1331 9.03168C17.1571 8.99142 17.181 8.95193 17.2033 8.91183C17.1964 8.90747 17.1918 8.90604 17.1915 8.90739C17.1631 8.95185 17.1325 8.99478 17.1027 9.03834ZM13.3873 2.34223C13.3298 2.3324 13.2613 2.42617 13.1905 2.52719C13.1635 2.56562 13.1356 2.60436 13.1099 2.63964C13.1384 2.65668 13.1613 2.67131 13.1602 2.68107C13.1557 2.70899 13.0198 2.72895 13.0078 2.76467C12.9817 2.85001 13.0134 3.01665 12.9841 3.09833C12.9773 3.11291 12.8606 3.10975 12.8221 3.12866C12.672 3.20355 12.6777 3.30088 13.0552 3.30992C12.834 3.40381 13.0224 3.51921 13.0278 3.62064C13.0361 3.79752 12.965 4.08754 13.0211 4.29388C13.0589 4.3053 13.1188 4.37132 13.1698 4.3501C13.2677 4.30951 13.2541 4.05497 13.3148 4.01496C13.3693 3.97956 13.462 4.06924 13.5316 4.03346L13.5753 4.03124C13.5854 4.02613 13.5955 4.01725 13.6048 4.00461C13.6128 3.97632 13.6206 3.94781 13.6285 3.91953C13.6199 3.85644 13.6113 3.79322 13.6026 3.73013C13.6374 3.69944 13.6574 3.82811 13.6899 3.83001C13.7287 3.83146 13.7442 3.70867 13.7698 3.7072C13.7909 3.70702 13.8239 3.80465 13.8512 3.79746C13.8904 3.78669 13.8768 3.64507 13.8971 3.61768C13.9075 3.60597 14.0593 3.5223 14.068 3.52076C14.1341 3.51318 14.148 3.70673 14.2019 3.722C14.3515 3.76219 14.4933 3.59718 14.6184 3.52964C14.6743 3.4996 14.7341 3.50718 14.7923 3.53408C14.7387 4.03945 14.9706 4.41162 14.8337 3.63766C14.9054 3.74361 14.9309 3.52974 14.9891 3.55997C14.9971 3.56405 15.0041 3.57248 15.012 3.58217C15.0727 3.52368 15.1335 3.46578 15.1925 3.40609C15.6556 3.33387 15.2207 3.26168 14.9743 3.32989C14.9734 3.32377 14.9722 3.31747 14.9713 3.3114C15.0814 3.23151 14.972 3.20806 15.0364 3.12866C15.0998 3.04763 15.1441 3.0395 15.3427 2.95406C15.3262 2.94287 15.3097 2.93163 15.2931 2.92151C14.7171 3.06673 15.6676 2.68548 15.1999 2.75949C15.5113 2.55145 15.2737 2.53956 15.1607 2.58563C15.1472 2.58989 15.0933 2.63694 15.0727 2.64778C15.0251 2.67395 15.0632 2.5843 14.9121 2.76097C14.9526 2.70712 14.9888 2.64934 15.0194 2.58859C14.9878 2.6179 14.959 2.64974 14.9328 2.68329C14.8955 2.74537 14.8585 2.80767 14.8211 2.86972C14.8527 2.81787 14.8713 2.78233 14.8825 2.75801C14.9147 2.68288 14.8775 2.71183 14.8825 2.66627C14.8836 2.65386 14.9202 2.56113 14.9165 2.53015C14.9119 2.49368 14.8682 2.50982 14.8537 2.47318C14.8124 2.57638 14.7728 2.68018 14.7353 2.78464C14.6853 2.83269 14.7403 2.54563 14.7168 2.51683C14.7111 2.51172 14.6129 2.51221 14.6058 2.51757C14.5515 2.55832 14.5255 2.80538 14.4053 2.7336C14.3833 2.72064 14.3755 2.63202 14.3535 2.62558C14.3147 2.61493 14.1699 2.7944 14.1405 2.97256C14.1175 2.74226 13.9684 2.81975 13.9326 2.75061C13.9219 2.72927 13.9334 2.58617 13.8971 2.5516C13.8677 2.52357 13.7724 2.62981 13.7321 2.60635C13.6898 2.58067 13.6861 2.4588 13.667 2.44803C13.6488 2.43816 13.6208 2.53325 13.5945 2.53015C13.5121 2.51794 13.4537 2.35351 13.3873 2.34223ZM15.1873 3.83371C15.204 3.95452 15.2347 3.92318 15.2443 3.85146C15.2373 3.85233 15.2298 3.85269 15.2221 3.85368C15.2106 3.84695 15.1989 3.8404 15.1873 3.83371ZM15.1977 3.70572C15.1953 3.71064 15.1938 3.71651 15.1918 3.72273C15.2037 3.7186 15.2161 3.71505 15.228 3.7109C15.218 3.7091 15.2077 3.70749 15.1977 3.70572ZM15.191 3.60214C15.1493 3.59779 15.0931 3.59924 15.0342 3.61028C15.0524 3.63654 15.0716 3.66404 15.0934 3.67317C15.1044 3.67204 15.1147 3.67069 15.1244 3.66947C15.1497 3.65757 15.1715 3.62743 15.191 3.60214ZM12.976 2.35333C12.9684 2.3838 12.9637 2.41532 12.9671 2.45024C12.9774 2.42067 12.985 2.38919 12.9797 2.36147C12.9793 2.35803 12.9766 2.35509 12.976 2.35185V2.35333ZM12.7799 2.11955C12.7709 2.19378 12.7618 2.26801 12.7526 2.34223C12.7707 2.31334 12.7894 2.2842 12.8088 2.25567C12.807 2.21004 12.805 2.16443 12.8029 2.11881C12.7951 2.11898 12.7875 2.11929 12.7799 2.11955Z" fill="#4FB0F4"/>
</svg>
