<svg width="26" height="31" viewBox="0 0 26 31" fill="none" xmlns="http://www.w3.org/2000/svg">
<path d="M12.1569 31C11.3211 31 10.6056 30.6965 10.0104 30.0894C9.41524 29.4823 9.11765 28.7525 9.11765 27.9H15.1961C15.1961 28.7525 14.8985 29.4823 14.3033 30.0894C13.7081 30.6965 12.9927 31 12.1569 31ZM0 26.35V23.25H3.03922V12.4C3.03922 10.2558 3.67239 8.35062 4.93873 6.68437C6.20507 5.01812 7.85131 3.92667 9.87746 3.41V2.325C9.87746 1.67917 10.0991 1.13021 10.5423 0.678125C10.9855 0.226042 11.5237 0 12.1569 0C12.79 0 13.3282 0.226042 13.7715 0.678125C14.2147 1.13021 14.4363 1.67917 14.4363 2.325V2.82875C14.1577 3.39708 13.9551 3.97833 13.8284 4.5725C13.7018 5.16667 13.6512 5.77375 13.6765 6.39375C13.4232 6.34208 13.1763 6.29687 12.9357 6.25812C12.6951 6.21937 12.4355 6.2 12.1569 6.2C10.4853 6.2 9.05434 6.80708 7.86398 8.02125C6.67362 9.23542 6.07844 10.695 6.07844 12.4V23.25H18.2353V13.2912C18.6912 13.4979 19.1787 13.6594 19.6979 13.7756C20.2171 13.8919 20.7427 13.95 21.2745 13.95V23.25H24.3137V26.35H0Z" fill="white"/>
<path d="M18.0452 9.49355C18.9317 10.3977 20.0081 10.8498 21.2744 10.8498C22.5407 10.8498 23.6171 10.3977 24.5036 9.49355C25.39 8.58939 25.8332 7.49147 25.8332 6.1998C25.8332 4.90814 25.39 3.81022 24.5036 2.90605C23.6171 2.00189 22.5407 1.5498 21.2744 1.5498C20.0081 1.5498 18.9317 2.00189 18.0452 2.90605C17.1588 3.81022 16.7156 4.90814 16.7156 6.1998C16.7156 7.49147 17.1588 8.58939 18.0452 9.49355Z" fill="url(#paint0_linear_79_4311)"/>
<defs>
<linearGradient id="paint0_linear_79_4311" x1="21.2744" y1="-0.566747" x2="21.2744" y2="10.8498" gradientUnits="userSpaceOnUse">
<stop stop-color="#FFC577"/>
<stop offset="0.4" stop-color="#FF913B"/>
<stop offset="1" stop-color="#FE6BA8"/>
</linearGradient>
</defs>
</svg>
