<svg width="375" height="63" viewBox="0 0 375 63" fill="none" xmlns="http://www.w3.org/2000/svg">
<g clip-path="url(#clip0_433_1504)">
<path d="M71.5 13C70.39 12.65 69.17 12.5 68 12.5C66.05 12.5 63.95 12.9 62.5 14C61.05 12.9 58.95 12.5 57 12.5C55.05 12.5 52.95 12.9 51.5 14V28.65C51.5 28.9 51.75 29.15 52 29.15C52.1 29.15 52.15 29.1 52.25 29.1C53.6 28.45 55.55 28 57 28C58.95 28 61.05 28.4 62.5 29.5C63.85 28.65 66.3 28 68 28C69.65 28 71.35 28.3 72.75 29.05C72.85 29.1 72.9 29.1 73 29.1C73.25 29.1 73.5 28.85 73.5 28.6V14C72.9 13.55 72.25 13.25 71.5 13ZM71.5 26.5C70.4 26.15 69.2 26 68 26C66.3 26 63.85 26.65 62.5 27.5V16C63.85 15.15 66.3 14.5 68 14.5C69.2 14.5 70.4 14.65 71.5 15V26.5Z" fill="black"/>
</g>
<path d="M46.8271 40.0469H47.9072V44.4287H52.4258V40.0469H53.5059V50H52.4258V45.3926H47.9072V50H46.8271V40.0469ZM56.2402 49.6719C55.7982 49.3301 55.4609 48.8766 55.2285 48.3115C55.0007 47.7419 54.8867 47.1266 54.8867 46.4658C54.8867 45.846 54.9482 45.306 55.0713 44.8457C55.1989 44.3809 55.388 43.9707 55.6387 43.6152C56.1582 42.8861 56.9033 42.5215 57.874 42.5215C58.5029 42.5215 59.0475 42.6924 59.5078 43.0342C60.4056 43.7041 60.8545 44.8024 60.8545 46.3291C60.8545 47.8786 60.4102 48.9928 59.5215 49.6719C59.0612 50.0228 58.5143 50.1982 57.8809 50.1982C57.2474 50.1982 56.7005 50.0228 56.2402 49.6719ZM56.7598 43.8477C56.4772 44.1029 56.2699 44.4355 56.1377 44.8457C56.0055 45.2513 55.9395 45.7093 55.9395 46.2197C55.9395 46.6982 55.9759 47.113 56.0488 47.4639C56.1217 47.8102 56.2334 48.1224 56.3838 48.4004C56.7074 48.9837 57.2041 49.2754 57.874 49.2754C58.8356 49.2754 59.4417 48.6715 59.6924 47.4639C59.7653 47.1266 59.8018 46.7119 59.8018 46.2197C59.8018 45.7093 59.7357 45.2513 59.6035 44.8457C59.4714 44.4355 59.264 44.1029 58.9814 43.8477C58.6898 43.5833 58.3206 43.4512 57.874 43.4512C57.4229 43.4512 57.0514 43.5833 56.7598 43.8477ZM67.2324 50H66.1934V46.2607C66.1934 45.1852 66.0658 44.4264 65.8105 43.9844C65.5918 43.597 65.2568 43.4033 64.8057 43.4033C63.8122 43.4033 63.3154 44.349 63.3154 46.2402V50H62.2764V42.665H63.3154V43.9092C63.5023 43.5173 63.6777 43.221 63.8418 43.0205C64.0104 42.8154 64.1995 42.6719 64.4092 42.5898C64.6188 42.5078 64.8831 42.4668 65.2021 42.4668C65.6533 42.4668 66.0498 42.6217 66.3916 42.9316C66.7334 43.237 66.9681 43.6335 67.0957 44.1211C67.2188 43.6289 67.4535 43.2301 67.7998 42.9248C68.1462 42.6195 68.5609 42.4668 69.0439 42.4668C69.7503 42.4668 70.2767 42.7334 70.623 43.2666C70.974 43.7952 71.1494 44.5518 71.1494 45.5361V50H70.1172V46.2881C70.1172 45.3538 70.0397 44.6953 69.8848 44.3125C69.7298 43.9251 69.5247 43.6722 69.2695 43.5537C69.1191 43.4854 68.946 43.4512 68.75 43.4512C67.7383 43.4512 67.2324 44.3831 67.2324 46.2471V50ZM78.2041 46.7939H73.6377C73.7106 47.7464 74 48.4505 74.5059 48.9062C74.7747 49.1523 75.0755 49.2754 75.4082 49.2754C75.75 49.2754 76.0804 49.1888 76.3994 49.0156C76.7184 48.8379 76.9508 48.6123 77.0967 48.3389L78.0059 48.7148C77.7734 49.166 77.418 49.526 76.9395 49.7949C76.4655 50.0638 75.946 50.1982 75.3809 50.1982C74.8249 50.1982 74.3258 50.0251 73.8838 49.6787C73.4417 49.3324 73.109 48.8675 72.8857 48.2842C72.6624 47.71 72.5508 47.0583 72.5508 46.3291C72.5508 45.5999 72.6624 44.9528 72.8857 44.3877C73.1136 43.818 73.444 43.3646 73.877 43.0273C74.319 42.6901 74.7975 42.5215 75.3125 42.5215C75.8092 42.5215 76.2399 42.6217 76.6045 42.8223C76.9691 43.0182 77.2676 43.2962 77.5 43.6562C77.9648 44.3581 78.1973 45.1852 78.1973 46.1377L78.2041 46.7939ZM77.2061 45.8711C77.1787 45.429 77.0876 45.0234 76.9326 44.6543C76.7777 44.2852 76.568 43.9935 76.3037 43.7793C76.0439 43.5605 75.75 43.4512 75.4219 43.4512C75.0755 43.4512 74.7656 43.5742 74.4922 43.8203C73.9863 44.2806 73.7015 44.9642 73.6377 45.8711H77.2061Z" fill="black"/>
<g clip-path="url(#clip1_433_1504)">
<path d="M189.5 22H188.71L188.43 21.73C189.41 20.59 190 19.11 190 17.5C190 13.91 187.09 11 183.5 11C179.91 11 177 13.91 177 17.5C177 21.09 179.91 24 183.5 24C185.11 24 186.59 23.41 187.73 22.43L188 22.71V23.5L193 28.49L194.49 27L189.5 22ZM183.5 22C181.01 22 179 19.99 179 17.5C179 15.01 181.01 13 183.5 13C185.99 13 188 15.01 188 17.5C188 19.99 185.99 22 183.5 22Z" fill="#1F1F1F"/>
</g>
<path d="M169.343 39.5781C169.675 40.0475 169.931 40.5807 170.108 41.1777C170.291 41.7747 170.382 42.4059 170.382 43.0713C170.382 43.7412 170.291 44.377 170.108 44.9785C169.931 45.5801 169.675 46.1064 169.343 46.5576C169.006 47.0133 168.579 47.3688 168.064 47.624C167.554 47.8747 166.987 48 166.362 48H163.327V38.0469H166.362C166.978 38.0469 167.543 38.1836 168.058 38.457C168.577 38.7305 169.006 39.1042 169.343 39.5781ZM169.247 43.2695C169.247 42.832 169.224 42.4652 169.179 42.1689C169.138 41.8682 169.067 41.556 168.967 41.2324C168.78 40.6354 168.452 40.1159 167.982 39.6738C167.499 39.2318 166.866 39.0107 166.082 39.0107H164.407V47.0361H166.082C167.18 47.0361 167.982 46.6966 168.488 46.0176C168.994 45.334 169.247 44.418 169.247 43.2695ZM171.735 38.9082C171.735 38.7214 171.797 38.5641 171.92 38.4365C172.048 38.3089 172.196 38.2451 172.364 38.2451C172.537 38.2451 172.69 38.3044 172.822 38.4229C172.954 38.5413 173.021 38.6895 173.021 38.8672C173.021 39.0495 172.957 39.2067 172.829 39.3389C172.706 39.4665 172.562 39.5303 172.398 39.5303C172.225 39.5303 172.07 39.4733 171.934 39.3594C171.801 39.2409 171.735 39.0905 171.735 38.9082ZM171.865 40.665H172.897V48H171.865V40.665ZM177.081 44.7666C176.707 44.6436 176.432 44.5479 176.254 44.4795C176.081 44.4066 175.887 44.3086 175.673 44.1855C175.45 44.0625 175.263 43.9212 175.112 43.7617C174.775 43.4108 174.606 42.9505 174.606 42.3809C174.606 42.0117 174.709 41.6859 174.914 41.4033C175.124 41.1208 175.409 40.902 175.769 40.7471C176.129 40.5876 176.534 40.5033 176.985 40.4941C177.965 40.4941 178.69 40.8451 179.159 41.5469C179.269 41.7109 179.351 41.8773 179.405 42.0459L178.407 42.251C178.161 41.695 177.692 41.417 176.999 41.417C176.616 41.417 176.295 41.5104 176.035 41.6973C175.78 41.8796 175.652 42.1279 175.652 42.4424C175.652 42.6019 175.673 42.7272 175.714 42.8184C175.755 42.9095 175.794 42.9801 175.83 43.0303C175.871 43.0758 175.896 43.1055 175.905 43.1191C175.937 43.1738 175.994 43.2262 176.076 43.2764C176.149 43.3311 176.211 43.3721 176.261 43.3994C176.302 43.4313 176.37 43.4655 176.466 43.502L176.65 43.584C176.737 43.6204 176.824 43.6523 176.91 43.6797L177.3 43.8164L177.628 43.9395C177.728 43.9759 177.844 44.0238 177.977 44.083C178.113 44.1377 178.223 44.1855 178.305 44.2266C178.578 44.377 178.781 44.5137 178.913 44.6367C179.118 44.8327 179.266 45.0286 179.357 45.2246C179.467 45.4753 179.521 45.7464 179.521 46.0381C179.521 46.4482 179.408 46.8174 179.18 47.1455C178.956 47.4736 178.653 47.7311 178.271 47.918C177.888 48.1048 177.468 48.1982 177.013 48.1982C176.343 48.1982 175.791 48.0501 175.358 47.7539C174.925 47.4577 174.618 47.0452 174.436 46.5166L175.44 46.3252C175.586 46.6442 175.78 46.8835 176.021 47.043C176.263 47.1979 176.596 47.2754 177.02 47.2754C177.462 47.2754 177.812 47.166 178.072 46.9473C178.337 46.724 178.469 46.4209 178.469 46.0381C178.469 45.71 178.341 45.4502 178.086 45.2588C177.835 45.0674 177.5 44.9033 177.081 44.7666ZM185.175 42.4697C185.12 42.3148 185.018 42.1576 184.867 41.998C184.721 41.8385 184.548 41.7087 184.348 41.6084C184.152 41.5036 183.953 41.4512 183.753 41.4512C183.37 41.4512 183.017 41.5765 182.693 41.8271C182.374 42.0732 182.119 42.4196 181.928 42.8662C181.741 43.3083 181.647 43.8096 181.647 44.3701C181.647 44.9307 181.739 45.432 181.921 45.874C182.103 46.3161 182.354 46.6602 182.673 46.9062C182.992 47.1523 183.347 47.2754 183.739 47.2754C184.263 47.2754 184.703 47.0179 185.059 46.5029C185.118 46.4163 185.177 46.3138 185.236 46.1953L186.07 46.7217C185.801 47.1683 185.466 47.526 185.065 47.7949C184.664 48.0638 184.202 48.1982 183.678 48.1982C183.122 48.1982 182.604 48.0251 182.126 47.6787C181.647 47.3324 181.274 46.863 181.005 46.2705C180.736 45.6781 180.602 45.0309 180.602 44.3291C180.602 43.5361 180.752 42.8525 181.053 42.2783C181.358 41.7041 181.752 41.2689 182.235 40.9727C182.718 40.6719 183.224 40.5215 183.753 40.5215C184.254 40.5215 184.701 40.6559 185.093 40.9248C185.485 41.1937 185.811 41.5583 186.07 42.0186L185.175 42.4697ZM188.436 47.6719C187.993 47.3301 187.656 46.8766 187.424 46.3115C187.196 45.7419 187.082 45.1266 187.082 44.4658C187.082 43.846 187.144 43.306 187.267 42.8457C187.394 42.3809 187.583 41.9707 187.834 41.6152C188.354 40.8861 189.099 40.5215 190.069 40.5215C190.698 40.5215 191.243 40.6924 191.703 41.0342C192.601 41.7041 193.05 42.8024 193.05 44.3291C193.05 45.8786 192.605 46.9928 191.717 47.6719C191.257 48.0228 190.71 48.1982 190.076 48.1982C189.443 48.1982 188.896 48.0228 188.436 47.6719ZM188.955 41.8477C188.673 42.1029 188.465 42.4355 188.333 42.8457C188.201 43.2513 188.135 43.7093 188.135 44.2197C188.135 44.6982 188.171 45.113 188.244 45.4639C188.317 45.8102 188.429 46.1224 188.579 46.4004C188.903 46.9837 189.399 47.2754 190.069 47.2754C191.031 47.2754 191.637 46.6715 191.888 45.4639C191.961 45.1266 191.997 44.7119 191.997 44.2197C191.997 43.7093 191.931 43.2513 191.799 42.8457C191.667 42.4355 191.459 42.1029 191.177 41.8477C190.885 41.5833 190.516 41.4512 190.069 41.4512C189.618 41.4512 189.247 41.5833 188.955 41.8477ZM196.639 48L194.15 40.665H195.244L197.158 46.667L199.12 40.665H200.2L197.678 48H196.639ZM206.913 44.7939H202.347C202.42 45.7464 202.709 46.4505 203.215 46.9062C203.484 47.1523 203.785 47.2754 204.117 47.2754C204.459 47.2754 204.789 47.1888 205.108 47.0156C205.427 46.8379 205.66 46.6123 205.806 46.3389L206.715 46.7148C206.482 47.166 206.127 47.526 205.648 47.7949C205.174 48.0638 204.655 48.1982 204.09 48.1982C203.534 48.1982 203.035 48.0251 202.593 47.6787C202.151 47.3324 201.818 46.8675 201.595 46.2842C201.371 45.71 201.26 45.0583 201.26 44.3291C201.26 43.5999 201.371 42.9528 201.595 42.3877C201.823 41.818 202.153 41.3646 202.586 41.0273C203.028 40.6901 203.507 40.5215 204.021 40.5215C204.518 40.5215 204.949 40.6217 205.313 40.8223C205.678 41.0182 205.977 41.2962 206.209 41.6562C206.674 42.3581 206.906 43.1852 206.906 44.1377L206.913 44.7939ZM205.915 43.8711C205.888 43.429 205.797 43.0234 205.642 42.6543C205.487 42.2852 205.277 41.9935 205.013 41.7793C204.753 41.5605 204.459 41.4512 204.131 41.4512C203.785 41.4512 203.475 41.5742 203.201 41.8203C202.695 42.2806 202.41 42.9642 202.347 43.8711H205.915ZM212.013 41.6084C211.789 41.4717 211.507 41.4033 211.165 41.4033C210.819 41.4033 210.507 41.54 210.229 41.8135C209.704 42.3239 209.442 43.1556 209.442 44.3086V48H208.403V40.665H209.442V41.9023C209.524 41.6335 209.666 41.3896 209.866 41.1709C210.067 40.9521 210.304 40.7812 210.577 40.6582C210.851 40.5306 211.133 40.4668 211.425 40.4668C211.867 40.4668 212.245 40.5488 212.56 40.7129L212.013 41.6084Z" fill="black"/>
<g clip-path="url(#clip2_433_1504)">
<path d="M319.5 9H305.5C304.4 9 303.5 9.9 303.5 11V25C303.5 26.1 304.4 27 305.5 27H309.5L312.5 30L315.5 27H319.5C320.6 27 321.5 26.1 321.5 25V11C321.5 9.9 320.6 9 319.5 9ZM319.5 25H314.67L314.08 25.59L312.5 27.17L310.91 25.58L310.33 25H305.5V11H319.5V25ZM312.5 24L314.38 19.88L318.5 18L314.38 16.12L312.5 12L310.62 16.12L306.5 18L310.62 19.88L312.5 24Z" fill="#1F1F1F"/>
</g>
<path d="M290.97 45.5527C291.034 45.8216 291.175 46.0859 291.394 46.3457C291.617 46.6055 291.893 46.8174 292.221 46.9814C292.549 47.1455 292.9 47.2275 293.273 47.2275C293.665 47.2275 294.032 47.1523 294.374 47.002C294.72 46.8516 294.998 46.6419 295.208 46.373C295.418 46.1042 295.522 45.8011 295.522 45.4639C295.522 44.5706 294.786 43.8301 293.314 43.2422L292.85 43.0576C292.485 42.9209 292.189 42.7956 291.961 42.6816C291.505 42.4583 291.184 42.2464 290.997 42.0459C290.892 41.9411 290.771 41.7884 290.635 41.5879C290.398 41.2415 290.279 40.7904 290.279 40.2344C290.279 39.7467 290.405 39.3184 290.655 38.9492C290.91 38.5755 291.257 38.2884 291.694 38.0879C292.132 37.8828 292.619 37.7803 293.157 37.7803C293.681 37.7803 294.158 37.8691 294.586 38.0469C295.014 38.2201 295.374 38.4616 295.666 38.7715C295.958 39.0814 296.167 39.4368 296.295 39.8379L295.256 40.0088C295.183 39.7855 295.046 39.5781 294.846 39.3867C294.65 39.1908 294.406 39.0358 294.114 38.9219C293.823 38.8034 293.51 38.7441 293.178 38.7441C292.836 38.7441 292.528 38.8102 292.255 38.9424C291.986 39.07 291.774 39.2477 291.619 39.4756C291.464 39.6989 291.387 39.9518 291.387 40.2344C291.387 40.5898 291.48 40.8906 291.667 41.1367C291.854 41.3828 292.082 41.5697 292.351 41.6973C292.578 41.8112 292.756 41.8955 292.884 41.9502C293.011 42.0049 293.187 42.0755 293.41 42.1621C293.889 42.3444 294.256 42.5016 294.511 42.6338C295.03 42.8981 295.415 43.1556 295.666 43.4062C295.835 43.5749 295.987 43.7572 296.124 43.9531C296.42 44.3678 296.568 44.8737 296.568 45.4707C296.568 46.0723 296.413 46.5827 296.104 47.002C295.502 47.7995 294.529 48.1982 293.185 48.1982C292.341 48.1982 291.635 47.984 291.065 47.5557C290.5 47.1227 290.081 46.5257 289.808 45.7646L290.97 45.5527ZM302.317 40.665H303.356V48H302.317V46.7627C302.231 47.0361 302.087 47.2822 301.887 47.501C301.691 47.7152 301.449 47.8838 301.162 48.0068C300.88 48.1344 300.57 48.1982 300.232 48.1982C299.713 48.1982 299.264 48.057 298.886 47.7744C298.507 47.4873 298.216 47.0589 298.011 46.4893C297.806 45.915 297.703 45.2064 297.703 44.3633V40.665H298.735V44.3633C298.735 45.7259 299.054 46.6169 299.692 47.0361C299.925 47.1865 300.221 47.2617 300.581 47.2617C300.937 47.2617 301.253 47.125 301.531 46.8516C302.055 46.3411 302.317 45.5094 302.317 44.3564V40.665ZM306.077 41.9434C306.496 40.959 307.178 40.4668 308.121 40.4668C308.577 40.4668 308.982 40.5716 309.338 40.7812C309.698 40.9909 309.983 41.2826 310.192 41.6562C310.612 42.39 310.821 43.2764 310.821 44.3154C310.821 45.3454 310.612 46.234 310.192 46.9814C309.987 47.3506 309.705 47.6468 309.345 47.8701C308.989 48.0889 308.622 48.1982 308.244 48.1982C307.884 48.1982 307.588 48.1595 307.355 48.082C307.128 48.0091 306.929 47.8952 306.761 47.7402C306.487 47.4896 306.259 47.1569 306.077 46.7422V50.9258H305.038V40.665H306.077V41.9434ZM309.242 46.4756C309.593 45.9469 309.769 45.2269 309.769 44.3154C309.769 43.7184 309.689 43.2012 309.529 42.7637C309.374 42.3216 309.158 41.9844 308.88 41.752C308.602 41.515 308.285 41.3965 307.93 41.3965C307.574 41.3965 307.253 41.5173 306.966 41.7588C306.683 41.9958 306.458 42.3353 306.289 42.7773C306.125 43.2194 306.043 43.7344 306.043 44.3223C306.043 44.9102 306.125 45.4297 306.289 45.8809C306.458 46.3275 306.686 46.6715 306.973 46.9131C307.26 47.1546 307.579 47.2754 307.93 47.2754C308.458 47.2754 308.896 47.0088 309.242 46.4756ZM313.214 41.9434C313.633 40.959 314.314 40.4668 315.258 40.4668C315.714 40.4668 316.119 40.5716 316.475 40.7812C316.835 40.9909 317.119 41.2826 317.329 41.6562C317.748 42.39 317.958 43.2764 317.958 44.3154C317.958 45.3454 317.748 46.234 317.329 46.9814C317.124 47.3506 316.841 47.6468 316.481 47.8701C316.126 48.0889 315.759 48.1982 315.381 48.1982C315.021 48.1982 314.725 48.1595 314.492 48.082C314.264 48.0091 314.066 47.8952 313.897 47.7402C313.624 47.4896 313.396 47.1569 313.214 46.7422V50.9258H312.175V40.665H313.214V41.9434ZM316.379 46.4756C316.73 45.9469 316.905 45.2269 316.905 44.3154C316.905 43.7184 316.826 43.2012 316.666 42.7637C316.511 42.3216 316.295 41.9844 316.017 41.752C315.739 41.515 315.422 41.3965 315.066 41.3965C314.711 41.3965 314.39 41.5173 314.103 41.7588C313.82 41.9958 313.594 42.3353 313.426 42.7773C313.262 43.2194 313.18 43.7344 313.18 44.3223C313.18 44.9102 313.262 45.4297 313.426 45.8809C313.594 46.3275 313.822 46.6715 314.109 46.9131C314.396 47.1546 314.715 47.2754 315.066 47.2754C315.595 47.2754 316.033 47.0088 316.379 46.4756ZM320.48 47.6719C320.038 47.3301 319.701 46.8766 319.469 46.3115C319.241 45.7419 319.127 45.1266 319.127 44.4658C319.127 43.846 319.188 43.306 319.312 42.8457C319.439 42.3809 319.628 41.9707 319.879 41.6152C320.398 40.8861 321.144 40.5215 322.114 40.5215C322.743 40.5215 323.288 40.6924 323.748 41.0342C324.646 41.7041 325.095 42.8024 325.095 44.3291C325.095 45.8786 324.65 46.9928 323.762 47.6719C323.301 48.0228 322.755 48.1982 322.121 48.1982C321.488 48.1982 320.941 48.0228 320.48 47.6719ZM321 41.8477C320.717 42.1029 320.51 42.4355 320.378 42.8457C320.246 43.2513 320.18 43.7093 320.18 44.2197C320.18 44.6982 320.216 45.113 320.289 45.4639C320.362 45.8102 320.474 46.1224 320.624 46.4004C320.948 46.9837 321.444 47.2754 322.114 47.2754C323.076 47.2754 323.682 46.6715 323.933 45.4639C324.006 45.1266 324.042 44.7119 324.042 44.2197C324.042 43.7093 323.976 43.2513 323.844 42.8457C323.712 42.4355 323.504 42.1029 323.222 41.8477C322.93 41.5833 322.561 41.4512 322.114 41.4512C321.663 41.4512 321.292 41.5833 321 41.8477ZM330.126 41.6084C329.903 41.4717 329.62 41.4033 329.278 41.4033C328.932 41.4033 328.62 41.54 328.342 41.8135C327.818 42.3239 327.556 43.1556 327.556 44.3086V48H326.517V40.665H327.556V41.9023C327.638 41.6335 327.779 41.3896 327.979 41.1709C328.18 40.9521 328.417 40.7812 328.69 40.6582C328.964 40.5306 329.246 40.4668 329.538 40.4668C329.98 40.4668 330.358 40.5488 330.673 40.7129L330.126 41.6084ZM331.992 41.5879H331.021V40.665H331.992V38.9561H333.024V40.665H334.371V41.5879H333.024V46.5303C333.024 47.0635 333.291 47.3301 333.824 47.3301H334.303V48.1982H333.824C333.373 48.1982 333.013 48.1436 332.744 48.0342C332.48 47.9248 332.288 47.7516 332.17 47.5146C332.051 47.2731 331.992 46.9541 331.992 46.5576V41.5879Z" fill="black"/>
<defs>
<clipPath id="clip0_433_1504">
<rect width="24" height="24" fill="white" transform="translate(50.5 8)"/>
</clipPath>
<clipPath id="clip1_433_1504">
<rect width="24" height="24" fill="white" transform="translate(175.5 6)"/>
</clipPath>
<clipPath id="clip2_433_1504">
<rect width="24" height="24" fill="white" transform="translate(300.5 6)"/>
</clipPath>
</defs>
</svg>
