<svg width="43" height="45" viewBox="0 0 43 45" fill="none" xmlns="http://www.w3.org/2000/svg">
<g filter="url(#filter0_d_77_418)">
<path d="M34.6956 7.50583C35.6086 7.08333 36.5038 8.12182 35.9512 8.96257L29.577 18.6621C29.2806 19.1131 29.3955 19.7179 29.8367 20.0287L39.3246 26.7138C40.147 27.2933 39.6953 28.5877 38.6909 28.5296L27.1038 27.8591C26.565 27.8279 26.0987 28.2298 26.0501 28.7673L25.0046 40.3266C24.9139 41.3286 23.567 41.5846 23.1152 40.6857L17.9023 30.3157C17.6599 29.8335 17.0787 29.6306 16.5889 29.8573L6.05547 34.7315C5.14243 35.154 4.2473 34.1155 4.79982 33.2748L11.1741 23.5753C11.4705 23.1243 11.3555 22.5195 10.9144 22.2086L1.42643 15.5236C0.604019 14.9441 1.05581 13.6496 2.06018 13.7078L13.6473 14.3783C14.1861 14.4095 14.6524 14.0075 14.701 13.47L15.7465 1.91072C15.8371 0.908754 17.184 0.652787 17.6359 1.55166L22.8488 11.9217C23.0911 12.4039 23.6724 12.6067 24.1622 12.3801L34.6956 7.50583Z" fill="#FFE100"/>
</g>
<defs>
<filter id="filter0_d_77_418" x="0" y="0" width="42.751" height="44.2373" filterUnits="userSpaceOnUse" color-interpolation-filters="sRGB">
<feFlood flood-opacity="0" result="BackgroundImageFix"/>
<feColorMatrix in="SourceAlpha" type="matrix" values="0 0 0 0 0 0 0 0 0 0 0 0 0 0 0 0 0 0 127 0" result="hardAlpha"/>
<feOffset dx="1" dy="1"/>
<feGaussianBlur stdDeviation="1"/>
<feComposite in2="hardAlpha" operator="out"/>
<feColorMatrix type="matrix" values="0 0 0 0 0 0 0 0 0 0 0 0 0 0 0 0 0 0 0.55 0"/>
<feBlend mode="normal" in2="BackgroundImageFix" result="effect1_dropShadow_77_418"/>
<feBlend mode="normal" in="SourceGraphic" in2="effect1_dropShadow_77_418" result="shape"/>
</filter>
</defs>
</svg>
