<svg width="76" height="76" viewBox="0 0 76 76" fill="none" xmlns="http://www.w3.org/2000/svg">
<g filter="url(#filter0_d_71_2793)">
<rect width="48" height="48" rx="10" transform="matrix(1 0 0 -1 14 58)" fill="#96AC5B" shape-rendering="crispEdges"/>
<path d="M50.3095 32.472C50.4682 33.1293 50.5928 33.6507 50.6835 34.036L53.2335 45.936V45.97C52.5535 46.106 51.8055 46.1513 50.9895 46.106C50.1735 46.0833 49.4028 45.9927 48.6775 45.834H48.6435C48.5075 45.4713 48.3715 45.0407 48.2355 44.542C48.1222 44.0433 47.9975 43.5333 47.8615 43.012C47.7482 42.4907 47.6235 41.992 47.4875 41.516C47.3515 41.04 47.2042 40.632 47.0455 40.292C46.7508 40.2467 46.5242 40.224 46.3655 40.224C46.2068 40.224 46.0595 40.224 45.9235 40.224C45.8102 40.224 45.6742 40.2353 45.5155 40.258C45.3795 40.258 45.1868 40.258 44.9375 40.258C44.7788 40.6207 44.6428 41.0513 44.5295 41.55C44.4388 42.026 44.3368 42.536 44.2235 43.08C44.1328 43.6013 44.0308 44.1113 43.9175 44.61C43.8042 45.1087 43.6455 45.5507 43.4415 45.936C43.4188 45.936 43.3962 45.9473 43.3735 45.97C43.3735 45.97 43.3622 45.97 43.3395 45.97C43.1582 46.0153 42.7048 46.0153 41.9795 45.97C41.2542 45.9247 40.1208 45.9133 38.5795 45.936C38.5568 45.936 38.5342 45.9247 38.5115 45.902C38.5568 45.7433 38.6362 45.3013 38.7495 44.576C38.8628 43.8507 39.0215 42.91 39.2255 41.754C39.4295 40.598 39.6675 39.272 39.9395 37.776C40.2342 36.2573 40.5742 34.648 40.9595 32.948C41.3448 31.248 41.7642 29.48 42.2175 27.644C42.6708 25.808 43.1695 23.9833 43.7135 22.17C43.8722 22.1473 44.0422 22.136 44.2235 22.136C44.4048 22.136 44.6428 22.136 44.9375 22.136C45.2322 22.136 45.6062 22.136 46.0595 22.136C46.5355 22.1133 47.1475 22.068 47.8955 22C47.9635 22.2947 48.0655 22.748 48.2015 23.36C48.3602 23.9493 48.5188 24.6293 48.6775 25.4C48.8588 26.148 49.0402 26.9527 49.2215 27.814C49.4255 28.6753 49.6182 29.5027 49.7995 30.296C49.9808 31.0893 50.1508 31.8147 50.3095 32.472ZM45.9235 36.28C46.3542 36.2573 46.7848 36.246 47.2155 36.246C46.9888 34.2967 46.7848 32.778 46.6035 31.69C46.4448 30.602 46.2975 29.8653 46.1615 29.48C46.0482 29.0947 45.9235 29.0153 45.7875 29.242C45.6742 29.446 45.5608 29.8767 45.4475 30.534C45.3568 31.1913 45.2435 32.0187 45.1075 33.016C44.9942 34.0133 44.8582 35.09 44.6995 36.246C45.0848 36.2687 45.4928 36.28 45.9235 36.28Z" fill="white"/>
<path d="M23.5 45.9699L29.825 29.8699H32.907L39.186 45.9699H35.667L32.401 37.2989C32.309 37.0382 32.194 36.7162 32.056 36.3329C31.9333 35.9496 31.803 35.5432 31.665 35.1139C31.527 34.6846 31.3967 34.2782 31.274 33.8949C31.1667 33.4962 31.0747 33.1742 30.998 32.9289L31.619 32.9059C31.527 33.2432 31.4197 33.6036 31.297 33.9869C31.1897 34.3549 31.067 34.7382 30.929 35.1369C30.8063 35.5356 30.676 35.9189 30.538 36.2869C30.4153 36.6549 30.2927 37.0076 30.17 37.3449L26.927 45.9699H23.5ZM26.444 42.5889L27.594 39.7829H34.931L36.104 42.5889H26.444Z" fill="white"/>
</g>
<defs>
<filter id="filter0_d_71_2793" x="0" y="0" width="76" height="76" filterUnits="userSpaceOnUse" color-interpolation-filters="sRGB">
<feFlood flood-opacity="0" result="BackgroundImageFix"/>
<feColorMatrix in="SourceAlpha" type="matrix" values="0 0 0 0 0 0 0 0 0 0 0 0 0 0 0 0 0 0 127 0" result="hardAlpha"/>
<feOffset dy="4"/>
<feGaussianBlur stdDeviation="7"/>
<feComposite in2="hardAlpha" operator="out"/>
<feColorMatrix type="matrix" values="0 0 0 0 0 0 0 0 0 0 0 0 0 0 0 0 0 0 0.25 0"/>
<feBlend mode="normal" in2="BackgroundImageFix" result="effect1_dropShadow_71_2793"/>
<feBlend mode="normal" in="SourceGraphic" in2="effect1_dropShadow_71_2793" result="shape"/>
</filter>
</defs>
</svg>
