<svg width="76" height="76" viewBox="0 0 76 76" fill="none" xmlns="http://www.w3.org/2000/svg">
<g filter="url(#filter0_d_71_2794)">
<rect width="48" height="48" rx="10" transform="matrix(1 0 0 -1 14 58)" fill="#96AC5B" shape-rendering="crispEdges"/>
<path d="M45.2876 22.527C45.7273 22.4412 46.1829 22.5566 46.5288 22.8415C46.8747 23.1264 47.0746 23.5515 47.0747 23.9997V40.7594C47.0747 41.1881 46.8932 41.573 46.6049 41.8464C46.2257 42.8907 45.2045 43.8792 43.811 44.4059C41.6823 45.2103 39.4922 44.6341 38.9194 43.1198C38.3469 41.605 39.6089 39.7244 41.7377 38.9196C42.5377 38.6173 43.3465 38.5089 44.0747 38.5729V25.82L35.81 27.4323V40.7594C35.81 41.1116 35.687 41.4342 35.4838 41.6901C35.4613 43.0143 34.2942 44.4205 32.5297 45.0876C30.401 45.892 28.21 45.3168 27.6372 43.8024C27.0647 42.2878 28.3269 40.4071 30.4555 39.6022C31.2618 39.2975 32.0773 39.1902 32.81 39.2575V26.1979C32.81 25.4803 33.3186 24.8627 34.0229 24.7253L45.2876 22.527Z" fill="white"/>
</g>
<defs>
<filter id="filter0_d_71_2794" x="0" y="0" width="76" height="76" filterUnits="userSpaceOnUse" color-interpolation-filters="sRGB">
<feFlood flood-opacity="0" result="BackgroundImageFix"/>
<feColorMatrix in="SourceAlpha" type="matrix" values="0 0 0 0 0 0 0 0 0 0 0 0 0 0 0 0 0 0 127 0" result="hardAlpha"/>
<feOffset dy="4"/>
<feGaussianBlur stdDeviation="7"/>
<feComposite in2="hardAlpha" operator="out"/>
<feColorMatrix type="matrix" values="0 0 0 0 0 0 0 0 0 0 0 0 0 0 0 0 0 0 0.25 0"/>
<feBlend mode="normal" in2="BackgroundImageFix" result="effect1_dropShadow_71_2794"/>
<feBlend mode="normal" in="SourceGraphic" in2="effect1_dropShadow_71_2794" result="shape"/>
</filter>
</defs>
</svg>
