<svg width="76" height="76" viewBox="0 0 76 76" fill="none" xmlns="http://www.w3.org/2000/svg">
<g filter="url(#filter0_d_71_2795)">
<rect width="48" height="48" rx="24" transform="matrix(1 0 0 -1 14 58)" fill="#994340"/>
<path d="M43.38 29.804C43.4547 31.54 43.4453 33.304 43.352 35.096L43.268 44.028C42.988 43.9907 42.68 43.972 42.344 43.972C42.008 43.972 41.672 43.972 41.336 43.972C41 43.972 40.6733 43.9813 40.356 44C40.0573 44 39.796 44 39.572 44C39.5347 43.1973 39.5067 42.3293 39.488 41.396C39.488 40.4627 39.4787 39.5107 39.46 38.54C39.46 37.5693 39.432 36.6173 39.376 35.684C39.3387 34.7507 39.2733 33.892 39.18 33.108C39.0493 33.3133 38.9 33.64 38.732 34.088C38.564 34.5173 38.396 34.9653 38.228 35.432C38.06 35.8987 37.9013 36.3093 37.752 36.664C37.6027 37.0187 37.4907 37.196 37.416 37.196C37.3227 37.196 37.2107 37.1027 37.08 36.916C36.968 36.7107 36.8467 36.4587 36.716 36.16C36.604 35.8613 36.4827 35.544 36.352 35.208C36.2213 34.872 36.1093 34.564 36.016 34.284C35.9227 34.004 35.8387 33.7707 35.764 33.584C35.708 33.3973 35.68 33.304 35.68 33.304C35.5307 35.0587 35.4747 36.832 35.512 38.624C35.568 40.416 35.652 42.18 35.764 43.916C35.1667 44.0093 34.5133 44.0467 33.804 44.028C33.0947 44.0093 32.4413 44 31.844 44C31.8067 44 31.7787 43.972 31.76 43.916C31.7413 43.8413 31.7227 43.664 31.704 43.384C31.6853 43.104 31.6667 42.684 31.648 42.124C31.648 41.5453 31.648 40.7893 31.648 39.856C31.648 38.9227 31.648 37.7653 31.648 36.384C31.6667 35.0027 31.676 33.36 31.676 31.456C31.6947 29.552 31.7133 27.3307 31.732 24.792C31.9747 24.7173 32.2547 24.6707 32.572 24.652C32.8893 24.6333 33.216 24.6333 33.552 24.652C33.888 24.652 34.224 24.6613 34.56 24.68C34.896 24.68 35.2227 24.6707 35.54 24.652H35.568C35.736 24.8387 35.904 25.128 36.072 25.52C36.24 25.8933 36.3987 26.2947 36.548 26.724C36.6973 27.1533 36.8373 27.564 36.968 27.956C37.1173 28.348 37.2667 28.656 37.416 28.88C37.472 28.936 37.528 28.964 37.584 28.964C37.64 28.9827 37.724 28.8053 37.836 28.432C37.9667 28.0587 38.0973 27.6293 38.228 27.144C38.3773 26.64 38.536 26.1453 38.704 25.66C38.8907 25.1747 39.068 24.82 39.236 24.596C39.3667 24.6147 39.6 24.6147 39.936 24.596C40.2907 24.5773 40.664 24.5587 41.056 24.54C41.4667 24.5213 41.8773 24.512 42.288 24.512C42.7173 24.4933 43.0813 24.484 43.38 24.484C43.3053 26.276 43.3053 28.0493 43.38 29.804Z" fill="white"/>
</g>
<defs>
<filter id="filter0_d_71_2795" x="0" y="0" width="76" height="76" filterUnits="userSpaceOnUse" color-interpolation-filters="sRGB">
<feFlood flood-opacity="0" result="BackgroundImageFix"/>
<feColorMatrix in="SourceAlpha" type="matrix" values="0 0 0 0 0 0 0 0 0 0 0 0 0 0 0 0 0 0 127 0" result="hardAlpha"/>
<feOffset dy="4"/>
<feGaussianBlur stdDeviation="7"/>
<feComposite in2="hardAlpha" operator="out"/>
<feColorMatrix type="matrix" values="0 0 0 0 0 0 0 0 0 0 0 0 0 0 0 0 0 0 0.25 0"/>
<feBlend mode="normal" in2="BackgroundImageFix" result="effect1_dropShadow_71_2795"/>
<feBlend mode="normal" in="SourceGraphic" in2="effect1_dropShadow_71_2795" result="shape"/>
</filter>
</defs>
</svg>
