<svg width="32" height="31" viewBox="0 0 32 31" fill="none" xmlns="http://www.w3.org/2000/svg">
<path d="M15.0556 2.5787C15.414 1.80696 16.5111 1.80696 16.8695 2.5787L20.2612 9.882C20.4069 10.1957 20.7044 10.4119 21.0478 10.4535L29.0418 11.4224C29.8865 11.5248 30.2255 12.5682 29.6023 13.1475L23.7046 18.6301C23.4512 18.8656 23.3375 19.2154 23.4041 19.5548L24.9529 27.4569C25.1166 28.2919 24.229 28.9368 23.4854 28.5231L16.4487 24.6082C16.1464 24.44 15.7786 24.44 15.4763 24.6082L8.43964 28.5231C7.69607 28.9368 6.80847 28.2919 6.97213 27.4569L8.52097 19.5548C8.5875 19.2154 8.47386 18.8656 8.22049 18.6301L2.32273 13.1475C1.69952 12.5682 2.03855 11.5248 2.88327 11.4224L10.8772 10.4535C11.2206 10.4119 11.5182 10.1958 11.6639 9.882L15.0556 2.5787Z" fill="#FCB404" stroke="#456D2D" stroke-width="4"/>
</svg>
