<svg width="43" height="33" viewBox="0 0 43 33" fill="none" xmlns="http://www.w3.org/2000/svg">
<path d="M4.42947 8.96634C4.429 8.7668 4.65474 8.6663 4.8027 8.80017L8.61824 12.2523C8.6784 12.3068 8.7604 12.3262 8.83506 12.3037L13.5709 10.8785C13.7545 10.8233 13.9246 11.0176 13.8521 11.1998L11.9823 15.8991C11.9528 15.9732 11.963 16.0592 12.0094 16.1264L14.9486 20.391C15.0626 20.5564 14.942 20.777 14.7492 20.7558L9.77803 20.2079C9.69965 20.1993 9.62399 20.233 9.57796 20.297L6.65871 24.3579C6.54551 24.5154 6.30086 24.4574 6.25423 24.262L5.05173 19.2241C5.03277 19.1447 4.97575 19.0796 4.90097 19.0519L0.15753 17.297C-0.0264146 17.229 -0.0570091 16.9725 0.106948 16.873L4.33494 14.3073C4.4016 14.2669 4.44203 14.1929 4.44183 14.1118L4.42947 8.96634Z" fill="#9AD09B"/>
<path d="M3.97704 9.60311C4.03453 8.79732 4.94136 8.39357 5.57865 8.89002L5.64147 8.9427L8.78287 11.7736L12.6915 10.5948C13.5117 10.3473 14.2693 11.2102 13.9441 12.0214L12.3938 15.8866L14.8115 19.387C15.3188 20.1216 14.7786 21.1038 13.9184 21.0111L9.81868 20.5687L7.40437 23.9113C6.89767 24.6126 5.80629 24.3568 5.59986 23.4883L4.61611 19.3495L0.706574 17.9151C-0.113888 17.6141 -0.248205 16.4736 0.484504 16.0297L3.97571 13.9139L3.97415 9.68504L3.97704 9.60311ZM5.59809 14.3152C5.59823 14.676 5.41705 15.0053 5.11918 15.1858L2.4527 16.8014L5.43854 17.8971C5.77206 18.0195 6.02607 18.3086 6.11001 18.6617L6.86104 21.8222L8.70495 19.2698C8.89808 19.0025 9.20736 18.8535 9.53346 18.867L9.59884 18.8719L12.7292 19.2095L10.8832 16.5365C10.677 16.2379 10.6322 15.8557 10.7644 15.5259L11.9478 12.5739L8.96315 13.4743C8.62971 13.5749 8.26377 13.4892 7.99575 13.2477L5.59655 11.0857L5.59809 14.3152Z" fill="#F8E69A"/>
<path d="M32.3527 6.06445C32.3522 5.88224 32.5584 5.79047 32.6935 5.91271L36.1777 9.06506C36.2326 9.11476 36.3075 9.13251 36.3756 9.11199L40.7002 7.81057C40.8679 7.7601 41.0232 7.93756 40.957 8.10397L39.2495 12.3951C39.2226 12.4628 39.232 12.5413 39.2743 12.6027L41.9583 16.497C42.0623 16.648 41.9522 16.8494 41.7762 16.83L37.2367 16.3298C37.1651 16.3219 37.0961 16.3526 37.054 16.4111L34.3883 20.1193C34.2849 20.2631 34.0615 20.2102 34.0189 20.0318L32.9209 15.4314C32.9036 15.3589 32.8515 15.2994 32.7832 15.2741L28.4517 13.6717C28.2838 13.6095 28.2558 13.3753 28.4055 13.2845L32.2663 10.9416C32.3272 10.9046 32.3641 10.8371 32.364 10.763L32.3527 6.06445Z" fill="#678352"/>
<path d="M31.9395 6.64592C31.992 5.91011 32.8201 5.54143 33.402 5.99476L33.4594 6.04287L36.328 8.62789L39.8971 7.55145C40.6461 7.32551 41.3379 8.11349 41.0409 8.85421L39.6253 12.3837L41.833 15.5801C42.2963 16.2509 41.803 17.1478 41.0175 17.0631L37.2738 16.6592L35.0692 19.7115C34.6065 20.3519 33.6099 20.1183 33.4214 19.3253L32.5231 15.5459L28.9531 14.2361C28.2039 13.9611 28.0812 12.9198 28.7503 12.5143L31.9383 10.5823L31.9369 6.72074L31.9395 6.64592ZM33.4198 10.9488C33.4199 11.2783 33.2545 11.579 32.9825 11.7438L30.5476 13.2191L33.2741 14.2196C33.5787 14.3314 33.8106 14.5954 33.8873 14.9178L34.5731 17.8038L36.2568 15.4731C36.4332 15.229 36.7156 15.093 37.0134 15.1053L37.0731 15.1097L39.9316 15.418L38.2459 12.9772C38.0576 12.7045 38.0167 12.3555 38.1374 12.0544L39.2181 9.35871L36.4926 10.181C36.1881 10.2728 35.854 10.1946 35.6092 9.97402L33.4184 7.99972L33.4198 10.9488Z" fill="#FCB404"/>
<path d="M15.0286 2.84709C15.0286 1.27468 16.2842 0 17.8332 0H30.1383C31.6872 0 32.9429 1.27469 32.9429 2.8471V9.57143C32.9429 14.5933 28.9326 18.6643 23.9857 18.6643C19.0388 18.6643 15.0286 14.5933 15.0286 9.57142V2.84709Z" fill="#FCB404"/>
<path d="M30.6665 9.57111V2.84681C30.6663 2.55094 30.4296 2.31115 30.1381 2.31115H17.8329C17.5415 2.31131 17.3054 2.55104 17.3052 2.84681V9.57111C17.3052 13.3165 20.2961 16.3532 23.9855 16.3533L23.9857 18.6643L23.7543 18.6615C18.9143 18.5369 15.0286 14.5147 15.0286 9.57142V2.84709C15.0286 1.27468 16.2842 0 17.8332 0H30.1383C31.6872 0 32.9429 1.27469 32.9429 2.8471V9.57143L32.9402 9.80584C32.8177 14.7194 28.8554 18.6643 23.9857 18.6643L23.9855 16.3533C27.675 16.3533 30.6665 13.3165 30.6665 9.57111Z" fill="#F8E69A"/>
<path d="M27.2857 27.7571H20.6857L22.4226 20.0521L20.6857 17.7071H27.2857L25.5489 20.0521L27.2857 27.7571Z" fill="#678352"/>
<path d="M29.5656 16.5516L26.7761 20.3177L28.714 28.9131H19.2576L21.1941 20.317L18.4053 16.5516H29.5656ZM23.6501 19.7866L22.1138 26.6019H25.8571L24.3215 19.7866L25.0056 18.8627H22.9653L23.6501 19.7866Z" fill="#F8E69A"/>
<path d="M15.7762 30.8031C16.4009 28.9673 18.1036 26.3214 20.0168 26.3214H27.9546C29.8678 26.3214 31.5705 28.9673 32.1952 30.8031C32.5613 31.8787 31.7742 33 30.6532 33H17.3182C16.1972 33 15.4101 31.8787 15.7762 30.8031Z" fill="#994340"/>
<path d="M28.1334 26.3252C29.9732 26.3992 31.5901 29.0247 32.1952 30.8031C32.5613 31.8787 31.7742 33 30.6532 33H17.3182L17.2141 32.9967C16.1491 32.9299 15.4216 31.8451 15.7762 30.8031C16.3814 29.0247 17.9984 26.3991 19.8383 26.3252L20.0168 26.3214H27.9546L28.1334 26.3252ZM20.0169 28.6326C19.4249 28.6326 18.8737 30.2864 18.4695 30.6886H29.5015C29.0973 30.2865 28.5467 28.6326 27.9548 28.6326H20.0169Z" fill="#F8E69A"/>
<path d="M24.2169 5.78085C24.4614 5.11017 25.3958 5.11017 25.6403 5.78085L25.9535 6.64011C26.0304 6.85095 26.1941 7.0172 26.4018 7.09522L27.2483 7.41322C27.9089 7.66142 27.9089 8.61001 27.2483 8.85821L26.4018 9.1762C26.1941 9.25423 26.0304 9.42047 25.9535 9.63132L25.6403 10.4906C25.3958 11.1613 24.4614 11.1613 24.2169 10.4906L23.9036 9.63132C23.8267 9.42047 23.663 9.25423 23.4553 9.1762L22.6088 8.85821C21.9482 8.61001 21.9482 7.66142 22.6088 7.41322L23.4553 7.09522C23.663 7.0172 23.8267 6.85095 23.9036 6.64011L24.2169 5.78085Z" fill="#678352"/>
</svg>
