<svg width="51" height="34" viewBox="0 0 51 34" fill="none" xmlns="http://www.w3.org/2000/svg">
<path d="M33.175 3.03416C33.4971 2.16359 34.7285 2.16359 35.0506 3.03416L38.4101 12.1119C38.5114 12.3856 38.7272 12.6014 39.0009 12.7027L48.0786 16.0622C48.9492 16.3843 48.9492 17.6157 48.0786 17.9378L39.0009 21.2973C38.7272 21.3986 38.5114 21.6144 38.4101 21.8881L35.0506 30.9658C34.7285 31.8364 33.4971 31.8364 33.175 30.9658L29.8155 21.8881C29.7142 21.6144 29.4984 21.3986 29.2247 21.2973L20.147 17.9378C19.2764 17.6157 19.2764 16.3843 20.147 16.0622L29.2247 12.7027C29.4984 12.6014 29.7142 12.3856 29.8155 12.1119L33.175 3.03416Z" fill="#9AD09B" stroke="#F8E69A" stroke-width="3"/>
<path d="M7.87307 5.03595C7.95895 4.11166 9.14831 3.79296 9.68483 4.55048L11.6401 7.31119C11.8088 7.54934 12.0731 7.70192 12.3637 7.72892L15.7322 8.04191C16.6564 8.12779 16.9751 9.31715 16.2176 9.85367L13.4569 11.809C13.2188 11.9776 13.0662 12.2419 13.0392 12.5325L12.7262 15.901C12.6403 16.8253 11.451 17.144 10.9144 16.3865L8.95913 13.6257C8.79046 13.3876 8.52618 13.235 8.2356 13.208L4.86711 12.895C3.94282 12.8091 3.62413 11.6198 4.38165 11.0833L7.14235 9.12797C7.3805 8.9593 7.53309 8.69501 7.56009 8.40443L7.87307 5.03595Z" fill="#9AD09B" stroke="#F8E69A" stroke-width="2"/>
</svg>
