<svg width="24" height="23" viewBox="0 0 24 23" fill="none" xmlns="http://www.w3.org/2000/svg">
<path d="M10.7638 0.691041C11.0632 -0.230221 12.3665 -0.230221 12.6659 0.691042L14.7461 7.09234C14.8799 7.50433 15.2639 7.78327 15.6971 7.78329L22.4279 7.78354C23.3966 7.78358 23.7993 9.02313 23.0157 9.59254L17.5705 13.549C17.22 13.8037 17.0734 14.255 17.2072 14.667L19.2869 21.0684C19.5862 21.9897 18.5318 22.7558 17.7481 22.1865L12.3026 18.2304C11.9521 17.9758 11.4776 17.9758 11.1271 18.2304L5.6816 22.1865C4.8979 22.7558 3.84348 21.9897 4.14278 21.0684L6.22247 14.667C6.35632 14.255 6.20967 13.8037 5.85922 13.549L0.414034 9.59254C-0.369627 9.02313 0.0331266 7.78358 1.00181 7.78354L7.73262 7.78329C8.16581 7.78327 8.54974 7.50433 8.68362 7.09234L10.7638 0.691041Z" fill="#FFAA2A"/>
</svg>
