<svg width="45" height="40" viewBox="0 0 45 40" fill="none" xmlns="http://www.w3.org/2000/svg">
<path d="M21.549 11.9266C21.8483 11.0054 23.1517 11.0054 23.451 11.9266L25.5312 18.3279C25.6651 18.7399 26.049 19.0189 26.4822 19.0189L33.213 19.0191C34.1817 19.0192 34.5845 20.2587 33.8008 20.8281L28.3556 24.7846C28.0052 25.0392 27.8585 25.4906 27.9924 25.9026L30.0721 32.304C30.3714 33.2253 29.3169 33.9914 28.5332 33.4221L23.0878 29.466C22.7373 29.2114 22.2627 29.2114 21.9122 29.466L16.4668 33.4221C15.6831 33.9914 14.6286 33.2253 14.9279 32.304L17.0076 25.9026C17.1415 25.4906 16.9948 25.0392 16.6444 24.7846L11.1992 20.8281C10.4155 20.2587 10.8183 19.0192 11.787 19.0191L18.5178 19.0189C18.951 19.0189 19.3349 18.7399 19.4688 18.3279L21.549 11.9266Z" fill="#FFAA2A"/>
</svg>
